G04*
G04 #@! TF.GenerationSoftware,Altium Limited,Altium Designer,22.3.1 (43)*
G04*
G04 Layer_Color=32896*
%FSLAX25Y25*%
%MOIN*%
G70*
G04*
G04 #@! TF.SameCoordinates,EA674111-52F9-450F-9133-BA455BD730D8*
G04*
G04*
G04 #@! TF.FilePolarity,Positive*
G04*
G01*
G75*
%ADD10C,0.01000*%
%ADD24C,0.00787*%
D10*
X442002Y193500D02*
X441002Y192500D01*
Y190501D01*
X442002Y189501D01*
X443001D01*
X444001Y190501D01*
Y191501D01*
Y190501D01*
X445001Y189501D01*
X446000D01*
X447000Y190501D01*
Y192500D01*
X446000Y193500D01*
X441002Y187502D02*
X445001D01*
X447000Y185503D01*
X445001Y183503D01*
X441002D01*
X442002Y181504D02*
X441002Y180504D01*
Y178505D01*
X442002Y177505D01*
X443001D01*
X444001Y178505D01*
Y179505D01*
Y178505D01*
X445001Y177505D01*
X446000D01*
X447000Y178505D01*
Y180504D01*
X446000Y181504D01*
X418503Y193000D02*
X424501D01*
X422501D01*
X418503Y189001D01*
X421502Y192000D01*
X424501Y189001D01*
Y184003D02*
Y186002D01*
X423501Y187002D01*
X421502D01*
X420502Y186002D01*
Y184003D01*
X421502Y183003D01*
X422501D01*
Y187002D01*
X420502Y181004D02*
X423501D01*
X424501Y180004D01*
Y177005D01*
X425500D01*
X426500Y178005D01*
Y179005D01*
X424501Y177005D02*
X420502D01*
X424501Y175006D02*
Y173006D01*
Y174006D01*
X418503D01*
X419502Y175006D01*
X429003Y193500D02*
X435001D01*
X433001D01*
X429003Y189501D01*
X432002Y192500D01*
X435001Y189501D01*
Y184503D02*
Y186502D01*
X434001Y187502D01*
X432002D01*
X431002Y186502D01*
Y184503D01*
X432002Y183503D01*
X433001D01*
Y187502D01*
X431002Y181504D02*
X434001D01*
X435001Y180504D01*
Y177505D01*
X436000D01*
X437000Y178505D01*
Y179505D01*
X435001Y177505D02*
X431002D01*
X435001Y171507D02*
Y175506D01*
X431002Y171507D01*
X430002D01*
X429003Y172507D01*
Y174506D01*
X430002Y175506D01*
X449003Y193500D02*
X455001D01*
X453001D01*
X449003Y189501D01*
X452002Y192500D01*
X455001Y189501D01*
Y184503D02*
Y186502D01*
X454001Y187502D01*
X452002D01*
X451002Y186502D01*
Y184503D01*
X452002Y183503D01*
X453001D01*
Y187502D01*
X451002Y181504D02*
X454001D01*
X455001Y180504D01*
Y177505D01*
X456000D01*
X457000Y178505D01*
Y179505D01*
X455001Y177505D02*
X451002D01*
X450002Y175506D02*
X449003Y174506D01*
Y172507D01*
X450002Y171507D01*
X451002D01*
X452002Y172507D01*
Y173506D01*
Y172507D01*
X453001Y171507D01*
X454001D01*
X455001Y172507D01*
Y174506D01*
X454001Y175506D01*
X459503Y194000D02*
X465501D01*
X463501D01*
X459503Y190001D01*
X462502Y193000D01*
X465501Y190001D01*
Y185003D02*
Y187002D01*
X464501Y188002D01*
X462502D01*
X461502Y187002D01*
Y185003D01*
X462502Y184003D01*
X463501D01*
Y188002D01*
X461502Y182004D02*
X464501D01*
X465501Y181004D01*
Y178005D01*
X466500D01*
X467500Y179005D01*
Y180005D01*
X465501Y178005D02*
X461502D01*
X465501Y173007D02*
X459503D01*
X462502Y176006D01*
Y172007D01*
X414999Y229499D02*
X409001D01*
Y226500D01*
X410001Y225500D01*
X412000D01*
X413000Y226500D01*
Y229499D01*
X414999Y223501D02*
Y221501D01*
Y222501D01*
X409001D01*
X410001Y223501D01*
D24*
X418500Y220000D02*
Y225000D01*
Y220000D02*
X468500D01*
Y225000D01*
X465167Y206667D02*
Y220000D01*
X463500Y205000D02*
X465167Y206667D01*
X461833D02*
X463500Y205000D01*
X461833Y206667D02*
Y220000D01*
X455167Y206667D02*
Y220000D01*
X453500Y205000D02*
X455167Y206667D01*
X451833D02*
X453500Y205000D01*
X451833Y206667D02*
Y220000D01*
X445167Y206667D02*
Y220000D01*
X443500Y205000D02*
X445167Y206667D01*
X441833D02*
X443500Y205000D01*
X441833Y206667D02*
Y220000D01*
X435167Y206667D02*
Y220000D01*
X433500Y205000D02*
X435167Y206667D01*
X431833D02*
X433500Y205000D01*
X431833Y206667D02*
Y220000D01*
X425167Y206667D02*
Y220000D01*
X423500Y205000D02*
X425167Y206667D01*
X421833D02*
X423500Y205000D01*
X421833Y206667D02*
Y220000D01*
X418500Y225000D02*
X468500D01*
M02*
