G04*
G04 #@! TF.GenerationSoftware,Altium Limited,Altium Designer,22.3.1 (43)*
G04*
G04 Layer_Physical_Order=1*
G04 Layer_Color=255*
%FSLAX25Y25*%
%MOIN*%
G70*
G04*
G04 #@! TF.SameCoordinates,EA674111-52F9-450F-9133-BA455BD730D8*
G04*
G04*
G04 #@! TF.FilePolarity,Positive*
G04*
G01*
G75*
%ADD17C,0.03000*%
%ADD18C,0.15748*%
%ADD19C,0.06693*%
%ADD20C,0.11811*%
%ADD21C,0.24803*%
%ADD22R,0.05906X0.05906*%
%ADD23C,0.05906*%
G36*
X664303Y238567D02*
X666038Y238041D01*
X667636Y237187D01*
X669037Y236037D01*
X670187Y234636D01*
X671041Y233038D01*
X671567Y231304D01*
X671738Y229564D01*
X671726Y229500D01*
Y90500D01*
X671738Y90436D01*
X671567Y88696D01*
X671041Y86962D01*
X670187Y85364D01*
X669037Y83963D01*
X667636Y82814D01*
X666038Y81959D01*
X664303Y81433D01*
X662564Y81262D01*
X662500Y81274D01*
X140500D01*
X140436Y81262D01*
X138697Y81433D01*
X136962Y81959D01*
X135364Y82814D01*
X133963Y83963D01*
X132814Y85364D01*
X131959Y86962D01*
X131476Y88555D01*
X131274Y152261D01*
Y229500D01*
X131262Y229564D01*
X131433Y231304D01*
X131959Y233038D01*
X132814Y234636D01*
X133963Y236037D01*
X135364Y237187D01*
X136962Y238041D01*
X138697Y238567D01*
X140436Y238738D01*
X140500Y238725D01*
X662500D01*
X662564Y238738D01*
X664303Y238567D01*
D02*
G37*
%LPC*%
G36*
X444020Y233953D02*
X444000D01*
Y230500D01*
X447453D01*
Y230520D01*
X447183Y231526D01*
X446663Y232427D01*
X445927Y233163D01*
X445026Y233683D01*
X444020Y233953D01*
D02*
G37*
G36*
X443000D02*
X442980D01*
X441974Y233683D01*
X441073Y233163D01*
X440337Y232427D01*
X439817Y231526D01*
X439547Y230520D01*
Y230500D01*
X443000D01*
Y233953D01*
D02*
G37*
G36*
X467453D02*
X459547D01*
Y228211D01*
X459085Y228019D01*
X457453Y229652D01*
Y230520D01*
X457183Y231526D01*
X456663Y232427D01*
X455927Y233163D01*
X455026Y233683D01*
X454020Y233953D01*
X452980D01*
X451974Y233683D01*
X451073Y233163D01*
X450337Y232427D01*
X449817Y231526D01*
X449547Y230520D01*
Y229480D01*
X449817Y228474D01*
X450337Y227573D01*
X451073Y226837D01*
X451974Y226317D01*
X452980Y226047D01*
X453848D01*
X467698Y212198D01*
X468525Y211645D01*
X469500Y211451D01*
X512657D01*
X515871Y208236D01*
X515573Y207514D01*
X515307Y206180D01*
Y204820D01*
X515573Y203486D01*
X516093Y202229D01*
X516849Y201098D01*
X517811Y200136D01*
X518942Y199380D01*
X520198Y198860D01*
X521532Y198594D01*
X522893D01*
X524227Y198860D01*
X525484Y199380D01*
X526615Y200136D01*
X527576Y201098D01*
X528332Y202229D01*
X528853Y203486D01*
X529118Y204820D01*
Y206180D01*
X528853Y207514D01*
X528332Y208771D01*
X527576Y209902D01*
X526615Y210864D01*
X525484Y211620D01*
X524227Y212140D01*
X522893Y212405D01*
X521532D01*
X520198Y212140D01*
X519476Y211841D01*
X515515Y215802D01*
X514688Y216355D01*
X513713Y216549D01*
X470556D01*
X461519Y225585D01*
X461711Y226047D01*
X467453D01*
Y227451D01*
X571460D01*
X590675Y208236D01*
X590376Y207514D01*
X590110Y206180D01*
Y204820D01*
X590376Y203486D01*
X590896Y202229D01*
X591652Y201098D01*
X592614Y200136D01*
X593745Y199380D01*
X595002Y198860D01*
X596336Y198594D01*
X597696D01*
X599030Y198860D01*
X600287Y199380D01*
X601418Y200136D01*
X602380Y201098D01*
X603135Y202229D01*
X603656Y203486D01*
X603921Y204820D01*
Y206180D01*
X603656Y207514D01*
X603135Y208771D01*
X602380Y209902D01*
X601418Y210864D01*
X600287Y211620D01*
X599030Y212140D01*
X597696Y212405D01*
X596336D01*
X595002Y212140D01*
X594279Y211841D01*
X574318Y231802D01*
X573491Y232355D01*
X572516Y232549D01*
X467453D01*
Y233953D01*
D02*
G37*
G36*
X447453Y229500D02*
X444000D01*
Y226047D01*
X444020D01*
X445026Y226317D01*
X445927Y226837D01*
X446663Y227573D01*
X447183Y228474D01*
X447453Y229480D01*
Y229500D01*
D02*
G37*
G36*
X443000D02*
X439547D01*
Y229480D01*
X439817Y228474D01*
X440337Y227573D01*
X441073Y226837D01*
X441974Y226317D01*
X442980Y226047D01*
X443000D01*
Y229500D01*
D02*
G37*
G36*
X424020Y233953D02*
X422980D01*
X421974Y233683D01*
X421073Y233163D01*
X420459Y232549D01*
X247500D01*
X246525Y232355D01*
X245698Y231802D01*
X225736Y211841D01*
X225014Y212140D01*
X223680Y212405D01*
X222320D01*
X220986Y212140D01*
X219729Y211620D01*
X218598Y210864D01*
X217636Y209902D01*
X216880Y208771D01*
X216360Y207514D01*
X216094Y206180D01*
Y204820D01*
X216360Y203486D01*
X216880Y202229D01*
X217636Y201098D01*
X218598Y200136D01*
X219729Y199380D01*
X220986Y198860D01*
X222320Y198594D01*
X223680D01*
X225014Y198860D01*
X226271Y199380D01*
X227402Y200136D01*
X228364Y201098D01*
X229120Y202229D01*
X229640Y203486D01*
X229906Y204820D01*
Y206180D01*
X229640Y207514D01*
X229341Y208236D01*
X248556Y227451D01*
X420459D01*
X421073Y226837D01*
X421974Y226317D01*
X422980Y226047D01*
X424020D01*
X425026Y226317D01*
X425927Y226837D01*
X426663Y227573D01*
X427183Y228474D01*
X427453Y229480D01*
Y230520D01*
X427183Y231526D01*
X426663Y232427D01*
X425927Y233163D01*
X425026Y233683D01*
X424020Y233953D01*
D02*
G37*
G36*
X434020D02*
X432980D01*
X431974Y233683D01*
X431073Y233163D01*
X430337Y232427D01*
X429817Y231526D01*
X429547Y230520D01*
Y229652D01*
X407944Y208049D01*
X304222D01*
X303923Y208771D01*
X303167Y209902D01*
X302205Y210864D01*
X301074Y211620D01*
X299817Y212140D01*
X298483Y212405D01*
X297123D01*
X295789Y212140D01*
X294532Y211620D01*
X293401Y210864D01*
X292439Y209902D01*
X291684Y208771D01*
X291163Y207514D01*
X290898Y206180D01*
Y204820D01*
X291163Y203486D01*
X291684Y202229D01*
X292439Y201098D01*
X293401Y200136D01*
X294532Y199380D01*
X295789Y198860D01*
X297123Y198594D01*
X298483D01*
X299817Y198860D01*
X301074Y199380D01*
X302205Y200136D01*
X303167Y201098D01*
X303923Y202229D01*
X304222Y202951D01*
X409000D01*
X409975Y203145D01*
X410802Y203698D01*
X433152Y226047D01*
X434020D01*
X435026Y226317D01*
X435927Y226837D01*
X436663Y227573D01*
X437183Y228474D01*
X437453Y229480D01*
Y230520D01*
X437183Y231526D01*
X436663Y232427D01*
X435927Y233163D01*
X435026Y233683D01*
X434020Y233953D01*
D02*
G37*
G36*
X645571Y231902D02*
X643461D01*
X641378Y231572D01*
X639371Y230920D01*
X637492Y229962D01*
X635785Y228722D01*
X634294Y227231D01*
X633054Y225524D01*
X632096Y223644D01*
X631444Y221638D01*
X631114Y219555D01*
Y217445D01*
X631444Y215362D01*
X632096Y213356D01*
X633054Y211476D01*
X634294Y209770D01*
X635785Y208278D01*
X637492Y207038D01*
X639371Y206080D01*
X641378Y205428D01*
X643461Y205098D01*
X645571D01*
X647654Y205428D01*
X649660Y206080D01*
X651540Y207038D01*
X653246Y208278D01*
X654738Y209770D01*
X655978Y211476D01*
X656936Y213356D01*
X657587Y215362D01*
X657917Y217445D01*
Y219555D01*
X657587Y221638D01*
X656936Y223644D01*
X655978Y225524D01*
X654738Y227231D01*
X653246Y228722D01*
X651540Y229962D01*
X649660Y230920D01*
X647654Y231572D01*
X645571Y231902D01*
D02*
G37*
G36*
X156555D02*
X154445D01*
X152362Y231572D01*
X150356Y230920D01*
X148476Y229962D01*
X146769Y228722D01*
X145278Y227231D01*
X144038Y225524D01*
X143080Y223644D01*
X142428Y221638D01*
X142098Y219555D01*
Y217445D01*
X142428Y215362D01*
X143080Y213356D01*
X144038Y211476D01*
X145278Y209770D01*
X146769Y208278D01*
X148476Y207038D01*
X150356Y206080D01*
X152362Y205428D01*
X154445Y205098D01*
X156555D01*
X158638Y205428D01*
X160644Y206080D01*
X162524Y207038D01*
X164231Y208278D01*
X165722Y209770D01*
X166962Y211476D01*
X167920Y213356D01*
X168572Y215362D01*
X168902Y217445D01*
Y219555D01*
X168572Y221638D01*
X167920Y223644D01*
X166962Y225524D01*
X165722Y227231D01*
X164231Y228722D01*
X162524Y229962D01*
X160644Y230920D01*
X158638Y231572D01*
X156555Y231902D01*
D02*
G37*
G36*
X572696Y202406D02*
X572516D01*
Y196000D01*
X578921D01*
Y196180D01*
X578656Y197514D01*
X578135Y198771D01*
X577380Y199902D01*
X576418Y200864D01*
X575287Y201620D01*
X574030Y202140D01*
X572696Y202406D01*
D02*
G37*
G36*
X571516D02*
X571336D01*
X570002Y202140D01*
X568745Y201620D01*
X567614Y200864D01*
X566652Y199902D01*
X565896Y198771D01*
X565376Y197514D01*
X565110Y196180D01*
Y196000D01*
X571516D01*
Y202406D01*
D02*
G37*
G36*
X497893D02*
X497713D01*
Y196000D01*
X504118D01*
Y196180D01*
X503853Y197514D01*
X503332Y198771D01*
X502576Y199902D01*
X501615Y200864D01*
X500484Y201620D01*
X499227Y202140D01*
X497893Y202406D01*
D02*
G37*
G36*
X496713D02*
X496532D01*
X495198Y202140D01*
X493942Y201620D01*
X492811Y200864D01*
X491849Y199902D01*
X491093Y198771D01*
X490573Y197514D01*
X490307Y196180D01*
Y196000D01*
X496713D01*
Y202406D01*
D02*
G37*
G36*
X273483D02*
X273303D01*
Y196000D01*
X279709D01*
Y196180D01*
X279443Y197514D01*
X278923Y198771D01*
X278167Y199902D01*
X277205Y200864D01*
X276074Y201620D01*
X274817Y202140D01*
X273483Y202406D01*
D02*
G37*
G36*
X272303D02*
X272123D01*
X270789Y202140D01*
X269532Y201620D01*
X268401Y200864D01*
X267439Y199902D01*
X266684Y198771D01*
X266163Y197514D01*
X265898Y196180D01*
Y196000D01*
X272303D01*
Y202406D01*
D02*
G37*
G36*
X198680D02*
X198500D01*
Y196000D01*
X204906D01*
Y196180D01*
X204640Y197514D01*
X204120Y198771D01*
X203364Y199902D01*
X202402Y200864D01*
X201271Y201620D01*
X200014Y202140D01*
X198680Y202406D01*
D02*
G37*
G36*
X197500D02*
X197320D01*
X195986Y202140D01*
X194729Y201620D01*
X193598Y200864D01*
X192636Y199902D01*
X191880Y198771D01*
X191360Y197514D01*
X191095Y196180D01*
Y196000D01*
X197500D01*
Y202406D01*
D02*
G37*
G36*
X578921Y195000D02*
X572516D01*
Y188594D01*
X572696D01*
X574030Y188860D01*
X575287Y189380D01*
X576418Y190136D01*
X577380Y191098D01*
X578135Y192229D01*
X578656Y193486D01*
X578921Y194820D01*
Y195000D01*
D02*
G37*
G36*
X571516D02*
X565110D01*
Y194820D01*
X565376Y193486D01*
X565896Y192229D01*
X566652Y191098D01*
X567403Y190347D01*
X567196Y189847D01*
X566443D01*
X565338Y189550D01*
X564347Y188978D01*
X563538Y188169D01*
X562965Y187178D01*
X562669Y186072D01*
Y184928D01*
X562965Y183822D01*
X563538Y182831D01*
X564347Y182022D01*
X565338Y181450D01*
X566443Y181154D01*
X567588D01*
X568693Y181450D01*
X569685Y182022D01*
X570494Y182831D01*
X571066Y183822D01*
X571362Y184928D01*
Y186072D01*
X571066Y187178D01*
X570494Y188169D01*
X570390Y188273D01*
X570636Y188734D01*
X571336Y188594D01*
X571516D01*
Y195000D01*
D02*
G37*
G36*
X504118D02*
X497713D01*
Y188594D01*
X497893D01*
X499227Y188860D01*
X500484Y189380D01*
X501615Y190136D01*
X502576Y191098D01*
X503332Y192229D01*
X503853Y193486D01*
X504118Y194820D01*
Y195000D01*
D02*
G37*
G36*
X496713D02*
X490307D01*
Y194820D01*
X490573Y193486D01*
X491093Y192229D01*
X491849Y191098D01*
X492600Y190347D01*
X492393Y189847D01*
X491640D01*
X490535Y189550D01*
X489544Y188978D01*
X488735Y188169D01*
X488162Y187178D01*
X487866Y186072D01*
Y184928D01*
X488162Y183822D01*
X488735Y182831D01*
X489544Y182022D01*
X490535Y181450D01*
X491640Y181154D01*
X492785D01*
X493890Y181450D01*
X494881Y182022D01*
X495691Y182831D01*
X496263Y183822D01*
X496559Y184928D01*
Y186072D01*
X496263Y187178D01*
X495691Y188169D01*
X495587Y188273D01*
X495833Y188734D01*
X496532Y188594D01*
X496713D01*
Y195000D01*
D02*
G37*
G36*
X279709D02*
X273303D01*
Y188594D01*
X273483D01*
X274817Y188860D01*
X276074Y189380D01*
X277205Y190136D01*
X278167Y191098D01*
X278923Y192229D01*
X279443Y193486D01*
X279709Y194820D01*
Y195000D01*
D02*
G37*
G36*
X272303D02*
X265898D01*
Y194820D01*
X266163Y193486D01*
X266684Y192229D01*
X267439Y191098D01*
X268191Y190347D01*
X267984Y189847D01*
X267231D01*
X266125Y189550D01*
X265134Y188978D01*
X264325Y188169D01*
X263753Y187178D01*
X263457Y186072D01*
Y184928D01*
X263753Y183822D01*
X264325Y182831D01*
X265134Y182022D01*
X266125Y181450D01*
X267231Y181154D01*
X268375D01*
X269481Y181450D01*
X270472Y182022D01*
X271281Y182831D01*
X271853Y183822D01*
X272150Y184928D01*
Y186072D01*
X271853Y187178D01*
X271281Y188169D01*
X271177Y188273D01*
X271423Y188734D01*
X272123Y188594D01*
X272303D01*
Y195000D01*
D02*
G37*
G36*
X204906D02*
X198500D01*
Y188594D01*
X198680D01*
X200014Y188860D01*
X201271Y189380D01*
X202402Y190136D01*
X203364Y191098D01*
X204120Y192229D01*
X204640Y193486D01*
X204906Y194820D01*
Y195000D01*
D02*
G37*
G36*
X197500D02*
X191095D01*
Y194820D01*
X191360Y193486D01*
X191880Y192229D01*
X192636Y191098D01*
X193388Y190347D01*
X193181Y189847D01*
X192428D01*
X191322Y189550D01*
X190331Y188978D01*
X189522Y188169D01*
X188950Y187178D01*
X188654Y186072D01*
Y184928D01*
X188950Y183822D01*
X189522Y182831D01*
X190331Y182022D01*
X191322Y181450D01*
X192428Y181154D01*
X193572D01*
X194678Y181450D01*
X195669Y182022D01*
X196478Y182831D01*
X197050Y183822D01*
X197346Y184928D01*
Y186072D01*
X197050Y187178D01*
X196478Y188169D01*
X196374Y188273D01*
X196620Y188734D01*
X197320Y188594D01*
X197500D01*
Y195000D01*
D02*
G37*
G36*
X607588Y189847D02*
X606444D01*
X605338Y189550D01*
X604347Y188978D01*
X603538Y188169D01*
X602965Y187178D01*
X602669Y186072D01*
Y184928D01*
X602965Y183822D01*
X603538Y182831D01*
X604347Y182022D01*
X605338Y181450D01*
X606444Y181154D01*
X607588D01*
X608693Y181450D01*
X609685Y182022D01*
X610494Y182831D01*
X611066Y183822D01*
X611362Y184928D01*
Y186072D01*
X611066Y187178D01*
X610494Y188169D01*
X609685Y188978D01*
X608693Y189550D01*
X607588Y189847D01*
D02*
G37*
G36*
X532785D02*
X531640D01*
X530535Y189550D01*
X529544Y188978D01*
X528735Y188169D01*
X528162Y187178D01*
X527866Y186072D01*
Y184928D01*
X528162Y183822D01*
X528735Y182831D01*
X529544Y182022D01*
X530535Y181450D01*
X531640Y181154D01*
X532785D01*
X533890Y181450D01*
X534881Y182022D01*
X535691Y182831D01*
X536263Y183822D01*
X536559Y184928D01*
Y186072D01*
X536263Y187178D01*
X535691Y188169D01*
X534881Y188978D01*
X533890Y189550D01*
X532785Y189847D01*
D02*
G37*
G36*
X308375D02*
X307231D01*
X306125Y189550D01*
X305134Y188978D01*
X304325Y188169D01*
X303753Y187178D01*
X303457Y186072D01*
Y184928D01*
X303753Y183822D01*
X304325Y182831D01*
X305134Y182022D01*
X306125Y181450D01*
X307231Y181154D01*
X308375D01*
X309481Y181450D01*
X310472Y182022D01*
X311281Y182831D01*
X311853Y183822D01*
X312150Y184928D01*
Y186072D01*
X311853Y187178D01*
X311281Y188169D01*
X310472Y188978D01*
X309481Y189550D01*
X308375Y189847D01*
D02*
G37*
G36*
X233572D02*
X232428D01*
X231322Y189550D01*
X230331Y188978D01*
X229522Y188169D01*
X228950Y187178D01*
X228654Y186072D01*
Y184928D01*
X228950Y183822D01*
X229522Y182831D01*
X230331Y182022D01*
X231322Y181450D01*
X232428Y181154D01*
X233572D01*
X234678Y181450D01*
X235669Y182022D01*
X236478Y182831D01*
X237050Y183822D01*
X237347Y184928D01*
Y186072D01*
X237050Y187178D01*
X236478Y188169D01*
X235669Y188978D01*
X234678Y189550D01*
X233572Y189847D01*
D02*
G37*
G36*
X587890Y194374D02*
X586142D01*
X584427Y194033D01*
X582812Y193364D01*
X581359Y192393D01*
X580123Y191157D01*
X579152Y189703D01*
X578483Y188088D01*
X578142Y186374D01*
Y184626D01*
X578483Y182912D01*
X579152Y181297D01*
X580123Y179843D01*
X581359Y178607D01*
X582812Y177636D01*
X584427Y176967D01*
X586142Y176626D01*
X587890D01*
X589604Y176967D01*
X591219Y177636D01*
X592673Y178607D01*
X593909Y179843D01*
X594880Y181297D01*
X595549Y182912D01*
X595890Y184626D01*
Y186374D01*
X595549Y188088D01*
X594880Y189703D01*
X593909Y191157D01*
X592673Y192393D01*
X591219Y193364D01*
X589604Y194033D01*
X587890Y194374D01*
D02*
G37*
G36*
X513087D02*
X511339D01*
X509624Y194033D01*
X508009Y193364D01*
X506556Y192393D01*
X505320Y191157D01*
X504349Y189703D01*
X503680Y188088D01*
X503339Y186374D01*
Y184626D01*
X503680Y182912D01*
X504349Y181297D01*
X505320Y179843D01*
X506556Y178607D01*
X508009Y177636D01*
X509624Y176967D01*
X511339Y176626D01*
X513087D01*
X514801Y176967D01*
X516416Y177636D01*
X517869Y178607D01*
X519105Y179843D01*
X520077Y181297D01*
X520746Y182912D01*
X521087Y184626D01*
Y186374D01*
X520746Y188088D01*
X520077Y189703D01*
X519105Y191157D01*
X517869Y192393D01*
X516416Y193364D01*
X514801Y194033D01*
X513087Y194374D01*
D02*
G37*
G36*
X288677D02*
X286929D01*
X285215Y194033D01*
X283600Y193364D01*
X282146Y192393D01*
X280910Y191157D01*
X279939Y189703D01*
X279270Y188088D01*
X278929Y186374D01*
Y184626D01*
X279270Y182912D01*
X279939Y181297D01*
X280910Y179843D01*
X282146Y178607D01*
X283600Y177636D01*
X285215Y176967D01*
X286929Y176626D01*
X288677D01*
X290392Y176967D01*
X292007Y177636D01*
X293460Y178607D01*
X294696Y179843D01*
X295667Y181297D01*
X296336Y182912D01*
X296677Y184626D01*
Y186374D01*
X296336Y188088D01*
X295667Y189703D01*
X294696Y191157D01*
X293460Y192393D01*
X292007Y193364D01*
X290392Y194033D01*
X288677Y194374D01*
D02*
G37*
G36*
X213874D02*
X212126D01*
X210412Y194033D01*
X208797Y193364D01*
X207343Y192393D01*
X206107Y191157D01*
X205136Y189703D01*
X204467Y188088D01*
X204126Y186374D01*
Y184626D01*
X204467Y182912D01*
X205136Y181297D01*
X206107Y179843D01*
X207343Y178607D01*
X208797Y177636D01*
X210412Y176967D01*
X212126Y176626D01*
X213874D01*
X215588Y176967D01*
X217203Y177636D01*
X218657Y178607D01*
X219893Y179843D01*
X220864Y181297D01*
X221533Y182912D01*
X221874Y184626D01*
Y186374D01*
X221533Y188088D01*
X220864Y189703D01*
X219893Y191157D01*
X218657Y192393D01*
X217203Y193364D01*
X215588Y194033D01*
X213874Y194374D01*
D02*
G37*
G36*
X571500Y174162D02*
X571310Y174125D01*
X571118Y174088D01*
X571114Y174086D01*
X571110Y174085D01*
X570948Y173977D01*
X570786Y173870D01*
X570783Y173866D01*
X570779Y173864D01*
X570671Y173702D01*
X570562Y173541D01*
X570561Y173537D01*
X570558Y173533D01*
X570520Y173342D01*
X570480Y173152D01*
X570481Y173147D01*
X570480Y173143D01*
X570480Y162500D01*
X570558Y162110D01*
X570779Y161779D01*
X571110Y161558D01*
X571500Y161480D01*
X602500D01*
X602890Y161558D01*
X603221Y161779D01*
X603442Y162110D01*
X603520Y162500D01*
Y172866D01*
X603482Y173056D01*
X603445Y173248D01*
X603443Y173252D01*
X603442Y173256D01*
X603334Y173418D01*
X603227Y173581D01*
X603224Y173583D01*
X603221Y173587D01*
X603059Y173695D01*
X602899Y173804D01*
X602894Y173805D01*
X602890Y173808D01*
X602700Y173846D01*
X602509Y173886D01*
X571509Y174162D01*
X571504Y174162D01*
X571500Y174162D01*
D02*
G37*
G36*
X496500D02*
X496310Y174125D01*
X496118Y174088D01*
X496114Y174086D01*
X496110Y174085D01*
X495948Y173977D01*
X495786Y173870D01*
X495783Y173866D01*
X495779Y173864D01*
X495671Y173702D01*
X495562Y173541D01*
X495561Y173537D01*
X495558Y173533D01*
X495520Y173342D01*
X495480Y173152D01*
X495481Y173147D01*
X495480Y173143D01*
X495480Y162500D01*
X495558Y162110D01*
X495779Y161779D01*
X496110Y161558D01*
X496500Y161480D01*
X527500D01*
X527890Y161558D01*
X528221Y161779D01*
X528442Y162110D01*
X528520Y162500D01*
Y172866D01*
X528482Y173056D01*
X528445Y173248D01*
X528443Y173252D01*
X528442Y173256D01*
X528334Y173418D01*
X528227Y173581D01*
X528224Y173583D01*
X528221Y173587D01*
X528059Y173695D01*
X527899Y173804D01*
X527894Y173805D01*
X527890Y173808D01*
X527700Y173846D01*
X527509Y173886D01*
X496509Y174162D01*
X496504Y174162D01*
X496500Y174162D01*
D02*
G37*
G36*
X272000Y174158D02*
X271810Y174120D01*
X271618Y174084D01*
X271614Y174081D01*
X271610Y174080D01*
X271448Y173972D01*
X271286Y173866D01*
X271283Y173862D01*
X271279Y173859D01*
X271171Y173697D01*
X271061Y173537D01*
X271061Y173532D01*
X271058Y173529D01*
X271020Y173338D01*
X270980Y173147D01*
X270981Y173143D01*
X270980Y173138D01*
X270980Y162500D01*
X271058Y162110D01*
X271279Y161779D01*
X271610Y161558D01*
X272000Y161480D01*
X303000D01*
X303390Y161558D01*
X303721Y161779D01*
X303942Y162110D01*
X304020Y162500D01*
Y172862D01*
X303982Y173052D01*
X303945Y173243D01*
X303943Y173247D01*
X303942Y173252D01*
X303834Y173414D01*
X303727Y173576D01*
X303724Y173579D01*
X303721Y173583D01*
X303559Y173690D01*
X303399Y173800D01*
X303394Y173801D01*
X303390Y173804D01*
X303200Y173842D01*
X303009Y173881D01*
X272009Y174158D01*
X272005Y174157D01*
X272000Y174158D01*
D02*
G37*
G36*
X197500D02*
X197310Y174120D01*
X197118Y174084D01*
X197114Y174081D01*
X197110Y174080D01*
X196948Y173972D01*
X196785Y173866D01*
X196783Y173862D01*
X196779Y173859D01*
X196671Y173697D01*
X196562Y173537D01*
X196561Y173532D01*
X196558Y173529D01*
X196520Y173338D01*
X196480Y173147D01*
X196481Y173143D01*
X196480Y173138D01*
Y162500D01*
X196558Y162110D01*
X196779Y161779D01*
X197110Y161558D01*
X197500Y161480D01*
X228500D01*
X228890Y161558D01*
X229221Y161779D01*
X229442Y162110D01*
X229520Y162500D01*
Y172862D01*
X229482Y173052D01*
X229445Y173243D01*
X229443Y173247D01*
X229442Y173252D01*
X229334Y173414D01*
X229227Y173576D01*
X229223Y173579D01*
X229221Y173583D01*
X229059Y173690D01*
X228899Y173800D01*
X228894Y173801D01*
X228890Y173804D01*
X228700Y173842D01*
X228509Y173881D01*
X197509Y174158D01*
X197504Y174157D01*
X197500Y174158D01*
D02*
G37*
G36*
X401063Y174152D02*
X398953D01*
X396870Y173822D01*
X394864Y173170D01*
X392984Y172212D01*
X391277Y170972D01*
X389786Y169481D01*
X388546Y167774D01*
X387588Y165894D01*
X386936Y163888D01*
X386606Y161805D01*
Y159695D01*
X386936Y157612D01*
X387588Y155606D01*
X388546Y153726D01*
X389786Y152020D01*
X391277Y150528D01*
X392984Y149288D01*
X394864Y148330D01*
X396870Y147678D01*
X398953Y147348D01*
X401063D01*
X403146Y147678D01*
X405152Y148330D01*
X407032Y149288D01*
X408738Y150528D01*
X410230Y152020D01*
X411470Y153726D01*
X412428Y155606D01*
X413079Y157612D01*
X413409Y159695D01*
Y161805D01*
X413079Y163888D01*
X412428Y165894D01*
X411470Y167774D01*
X410230Y169481D01*
X408738Y170972D01*
X407032Y172212D01*
X405152Y173170D01*
X403146Y173822D01*
X401063Y174152D01*
D02*
G37*
G36*
X645571Y116402D02*
X643461D01*
X641378Y116072D01*
X639371Y115420D01*
X637492Y114462D01*
X635785Y113222D01*
X634294Y111731D01*
X633054Y110024D01*
X632096Y108144D01*
X631444Y106138D01*
X631114Y104055D01*
Y101945D01*
X631444Y99862D01*
X632096Y97856D01*
X633054Y95976D01*
X634294Y94270D01*
X635785Y92778D01*
X637492Y91538D01*
X639371Y90580D01*
X641378Y89928D01*
X643461Y89598D01*
X645571D01*
X647654Y89928D01*
X649660Y90580D01*
X651540Y91538D01*
X653246Y92778D01*
X654738Y94270D01*
X655978Y95976D01*
X656936Y97856D01*
X657587Y99862D01*
X657917Y101945D01*
Y104055D01*
X657587Y106138D01*
X656936Y108144D01*
X655978Y110024D01*
X654738Y111731D01*
X653246Y113222D01*
X651540Y114462D01*
X649660Y115420D01*
X647654Y116072D01*
X645571Y116402D01*
D02*
G37*
G36*
X156555D02*
X154445D01*
X152362Y116072D01*
X150356Y115420D01*
X148476Y114462D01*
X146769Y113222D01*
X145278Y111731D01*
X144038Y110024D01*
X143080Y108144D01*
X142428Y106138D01*
X142098Y104055D01*
Y101945D01*
X142428Y99862D01*
X143080Y97856D01*
X144038Y95976D01*
X145278Y94270D01*
X146769Y92778D01*
X148476Y91538D01*
X150356Y90580D01*
X152362Y89928D01*
X154445Y89598D01*
X156555D01*
X158638Y89928D01*
X160644Y90580D01*
X162524Y91538D01*
X164231Y92778D01*
X165722Y94270D01*
X166962Y95976D01*
X167920Y97856D01*
X168572Y99862D01*
X168902Y101945D01*
Y104055D01*
X168572Y106138D01*
X167920Y108144D01*
X166962Y110024D01*
X165722Y111731D01*
X164231Y113222D01*
X162524Y114462D01*
X160644Y115420D01*
X158638Y116072D01*
X156555Y116402D01*
D02*
G37*
%LPD*%
D17*
X453500Y230000D02*
X469500Y214000D01*
X513713D02*
X522213Y205500D01*
X469500Y214000D02*
X513713D01*
X463500Y230000D02*
X572516D01*
X597016Y205500D01*
X297803D02*
X409000D01*
X433500Y230000D01*
X223000Y205500D02*
X247500Y230000D01*
X423500D01*
D18*
X213000Y185500D02*
D03*
X287803D02*
D03*
X512213D02*
D03*
X587016D02*
D03*
D19*
X193000D02*
D03*
X233000D02*
D03*
X267803D02*
D03*
X307803D02*
D03*
X492213D02*
D03*
X532213D02*
D03*
X567016D02*
D03*
X607016D02*
D03*
D20*
X198000Y195500D02*
D03*
X223000Y205500D02*
D03*
X272803Y195500D02*
D03*
X297803Y205500D02*
D03*
X497213Y195500D02*
D03*
X522213Y205500D02*
D03*
X572016Y195500D02*
D03*
X597016Y205500D02*
D03*
D21*
X644516Y103000D02*
D03*
Y218500D02*
D03*
X155500Y103000D02*
D03*
Y218500D02*
D03*
X400008Y160750D02*
D03*
D22*
X463500Y230000D02*
D03*
D23*
X453500D02*
D03*
X443500D02*
D03*
X433500D02*
D03*
X423500D02*
D03*
M02*
