G04*
G04 #@! TF.GenerationSoftware,Altium Limited,Altium Designer,22.3.1 (43)*
G04*
G04 Layer_Physical_Order=2*
G04 Layer_Color=16711680*
%FSLAX25Y25*%
%MOIN*%
G70*
G04*
G04 #@! TF.SameCoordinates,EA674111-52F9-450F-9133-BA455BD730D8*
G04*
G04*
G04 #@! TF.FilePolarity,Positive*
G04*
G01*
G75*
%ADD18C,0.15748*%
%ADD19C,0.06693*%
%ADD20C,0.11811*%
%ADD21C,0.24803*%
%ADD22R,0.05906X0.05906*%
%ADD23C,0.05906*%
D18*
X213000Y185500D02*
D03*
X287803D02*
D03*
X512213D02*
D03*
X587016D02*
D03*
D19*
X193000D02*
D03*
X233000D02*
D03*
X267803D02*
D03*
X307803D02*
D03*
X492213D02*
D03*
X532213D02*
D03*
X567016D02*
D03*
X607016D02*
D03*
D20*
X198000Y195500D02*
D03*
X223000Y205500D02*
D03*
X272803Y195500D02*
D03*
X297803Y205500D02*
D03*
X497213Y195500D02*
D03*
X522213Y205500D02*
D03*
X572016Y195500D02*
D03*
X597016Y205500D02*
D03*
D21*
X644516Y103000D02*
D03*
Y218500D02*
D03*
X155500Y103000D02*
D03*
Y218500D02*
D03*
X400008Y160750D02*
D03*
D22*
X463500Y230000D02*
D03*
D23*
X453500D02*
D03*
X443500D02*
D03*
X433500D02*
D03*
X423500D02*
D03*
M02*
