G04*
G04 #@! TF.GenerationSoftware,Altium Limited,Altium Designer,22.3.1 (43)*
G04*
G04 Layer_Color=16711935*
%FSLAX25Y25*%
%MOIN*%
G70*
G04*
G04 #@! TF.SameCoordinates,FA4DBF7D-5AA6-417A-B6B1-0F17FB98994D*
G04*
G04*
G04 #@! TF.FilePolarity,Positive*
G04*
G01*
G75*
%ADD25C,0.00500*%
D25*
X140500Y240000D02*
G03*
X130000Y229500I0J-10500D01*
G01*
X673000D02*
G03*
X662500Y240000I-10500J0D01*
G01*
Y80000D02*
G03*
X673000Y90500I0J10500D01*
G01*
X130000D02*
G03*
X140500Y80000I10500J0D01*
G01*
X272000Y162500D02*
X303000D01*
X272000Y173138D02*
X303000D01*
Y162500D02*
Y173138D01*
X272000Y162500D02*
Y173138D01*
X571500Y162500D02*
X602500D01*
X571500Y173143D02*
X602500D01*
Y162500D02*
Y173143D01*
X571500Y162500D02*
Y173143D01*
X496500Y162500D02*
X527500D01*
X496500Y173143D02*
X527500D01*
Y162500D02*
Y173143D01*
X496500Y162500D02*
Y173143D01*
X197500Y162500D02*
X228500D01*
X197500Y173138D02*
X228500D01*
Y162500D02*
Y173138D01*
X197500Y162500D02*
Y173138D01*
X130000Y90500D02*
Y229500D01*
X140500Y240000D02*
X662500D01*
X673000Y90500D02*
Y229500D01*
X140500Y80000D02*
X662500D01*
M02*
