G04*
G04 #@! TF.GenerationSoftware,Altium Limited,Altium Designer,22.3.1 (43)*
G04*
G04 Layer_Color=8388736*
%FSLAX25Y25*%
%MOIN*%
G70*
G04*
G04 #@! TF.SameCoordinates,EA674111-52F9-450F-9133-BA455BD730D8*
G04*
G04*
G04 #@! TF.FilePolarity,Negative*
G04*
G01*
G75*
%ADD11C,0.16548*%
%ADD12C,0.07493*%
%ADD13C,0.12611*%
%ADD14C,0.25603*%
%ADD15R,0.06706X0.06706*%
%ADD16C,0.06706*%
D11*
X213000Y185500D02*
D03*
X287803D02*
D03*
X512213D02*
D03*
X587016D02*
D03*
D12*
X193000D02*
D03*
X233000D02*
D03*
X267803D02*
D03*
X307803D02*
D03*
X492213D02*
D03*
X532213D02*
D03*
X567016D02*
D03*
X607016D02*
D03*
D13*
X198000Y195500D02*
D03*
X223000Y205500D02*
D03*
X272803Y195500D02*
D03*
X297803Y205500D02*
D03*
X497213Y195500D02*
D03*
X522213Y205500D02*
D03*
X572016Y195500D02*
D03*
X597016Y205500D02*
D03*
D14*
X644516Y103000D02*
D03*
Y218500D02*
D03*
X155500Y103000D02*
D03*
Y218500D02*
D03*
X400008Y160750D02*
D03*
D15*
X463500Y230000D02*
D03*
D16*
X453500D02*
D03*
X443500D02*
D03*
X433500D02*
D03*
X423500D02*
D03*
M02*
