G04*
G04 #@! TF.GenerationSoftware,Altium Limited,Altium Designer,22.3.1 (43)*
G04*
G04 Layer_Color=65535*
%FSLAX25Y25*%
%MOIN*%
G70*
G04*
G04 #@! TF.SameCoordinates,89DBF051-8EAF-407F-B82A-721474CCDED3*
G04*
G04*
G04 #@! TF.FilePolarity,Positive*
G04*
G01*
G75*
%ADD10C,0.00787*%
%ADD11C,0.00984*%
%ADD12C,0.01000*%
%ADD13C,0.00600*%
D10*
X566506Y377500D02*
G03*
X566506Y377500I-11506J0D01*
G01*
X534006D02*
G03*
X534006Y377500I-11506J0D01*
G01*
X503006Y378000D02*
G03*
X503006Y378000I-11506J0D01*
G01*
X175086Y145883D02*
G03*
X174669Y129324I3914J-8383D01*
G01*
X184256Y145114D02*
G03*
X182913Y145884I-5256J-7614D01*
G01*
X183329Y129323D02*
G03*
X184256Y129886I-4329J8177D01*
G01*
X136586Y145883D02*
G03*
X136169Y129324I3914J-8383D01*
G01*
X145756Y145114D02*
G03*
X144413Y145884I-5256J-7614D01*
G01*
X144829Y129323D02*
G03*
X145756Y129886I-4329J8177D01*
G01*
X155586Y145883D02*
G03*
X155169Y129324I3914J-8383D01*
G01*
X164756Y145114D02*
G03*
X163413Y145884I-5256J-7614D01*
G01*
X163829Y129323D02*
G03*
X164756Y129886I-4329J8177D01*
G01*
X252586Y145147D02*
G03*
X252169Y128588I3914J-8383D01*
G01*
X261756Y144378D02*
G03*
X260413Y145148I-5256J-7614D01*
G01*
X260829Y128587D02*
G03*
X261756Y129150I-4329J8177D01*
G01*
X212086Y145647D02*
G03*
X211669Y129088I3914J-8383D01*
G01*
X221256Y144878D02*
G03*
X219913Y145648I-5256J-7614D01*
G01*
X220329Y129087D02*
G03*
X221256Y129650I-4329J8177D01*
G01*
X232586Y145383D02*
G03*
X232169Y128824I3914J-8383D01*
G01*
X241756Y144614D02*
G03*
X240413Y145384I-5256J-7614D01*
G01*
X240829Y128823D02*
G03*
X241756Y129386I-4329J8177D01*
G01*
X475086Y146147D02*
G03*
X474669Y129588I3914J-8383D01*
G01*
X484256Y145378D02*
G03*
X482913Y146148I-5256J-7614D01*
G01*
X483329Y129587D02*
G03*
X484256Y130150I-4329J8177D01*
G01*
X454836Y146147D02*
G03*
X454419Y129588I3914J-8383D01*
G01*
X464006Y145378D02*
G03*
X462663Y146148I-5256J-7614D01*
G01*
X463079Y129587D02*
G03*
X464006Y130150I-4329J8177D01*
G01*
X434586Y146147D02*
G03*
X434169Y129588I3914J-8383D01*
G01*
X443756Y145378D02*
G03*
X442413Y146148I-5256J-7614D01*
G01*
X442829Y129587D02*
G03*
X443756Y130150I-4329J8177D01*
G01*
X529336Y145883D02*
G03*
X528919Y129324I3914J-8383D01*
G01*
X538506Y145114D02*
G03*
X537163Y145884I-5256J-7614D01*
G01*
X537579Y129323D02*
G03*
X538506Y129886I-4329J8177D01*
G01*
X550086Y145883D02*
G03*
X549669Y129324I3914J-8383D01*
G01*
X559256Y145114D02*
G03*
X557913Y145884I-5256J-7614D01*
G01*
X558329Y129323D02*
G03*
X559256Y129886I-4329J8177D01*
G01*
X516829Y129323D02*
G03*
X517756Y129886I-4329J8177D01*
G01*
Y145114D02*
G03*
X516413Y145884I-5256J-7614D01*
G01*
X508586Y145883D02*
G03*
X508169Y129324I3914J-8383D01*
G01*
X90500Y287500D02*
X250500D01*
X90500D02*
Y297500D01*
X98000D01*
X250500D01*
Y287500D02*
Y297500D01*
Y301000D02*
Y311000D01*
X98000D02*
X250500D01*
X90500D02*
X98000D01*
X90500Y301000D02*
Y311000D01*
Y301000D02*
X250500D01*
X138000Y414500D02*
X250500D01*
X130500D02*
X138000D01*
X130500Y404500D02*
Y414500D01*
Y404500D02*
X250500D01*
Y414500D01*
Y391000D02*
Y401000D01*
X130500Y391000D02*
X250500D01*
X130500D02*
Y401000D01*
X138000D01*
X250500D01*
X451000Y331500D02*
Y339500D01*
X475000D01*
Y331500D02*
Y339500D01*
X451000Y331500D02*
X475000D01*
X447000Y335500D02*
X451000D01*
X475000D02*
X479000D01*
X450500Y318500D02*
Y326500D01*
X474500D01*
Y318500D02*
Y326500D01*
X450500Y318500D02*
X474500D01*
X446500Y322500D02*
X450500D01*
X474500D02*
X478500D01*
X450500Y306000D02*
Y314000D01*
X474500D01*
Y306000D02*
Y314000D01*
X450500Y306000D02*
X474500D01*
X446500Y310000D02*
X450500D01*
X474500D02*
X478500D01*
X301500Y328500D02*
Y343500D01*
X346500D01*
Y328500D02*
Y343500D01*
X301500Y328500D02*
X346500D01*
X554016Y391959D02*
X555984D01*
X555000Y390974D02*
Y392943D01*
X521516Y391959D02*
X523484D01*
X522500Y390974D02*
Y392943D01*
X490516Y392459D02*
X492484D01*
X491500Y391474D02*
Y393443D01*
X381000Y354500D02*
X396000D01*
X381000D02*
Y399500D01*
X396000D01*
Y354500D02*
Y399500D01*
X119000Y236500D02*
Y251500D01*
X164000D01*
Y236500D02*
Y251500D01*
X119000Y236500D02*
X164000D01*
X154000Y254500D02*
Y262500D01*
X130000Y254500D02*
X154000D01*
X130000D02*
Y262500D01*
X154000D01*
Y258500D02*
X158000D01*
X126000D02*
X130000D01*
X154000Y264500D02*
Y272500D01*
X130000Y264500D02*
X154000D01*
X130000D02*
Y272500D01*
X154000D01*
Y268500D02*
X158000D01*
X126000D02*
X130000D01*
X228500Y264000D02*
Y272000D01*
X204500Y264000D02*
X228500D01*
X204500D02*
Y272000D01*
X228500D01*
Y268000D02*
X232500D01*
X200500D02*
X204500D01*
X228500Y253000D02*
Y261000D01*
X204500Y253000D02*
X228500D01*
X204500D02*
Y261000D01*
X228500D01*
Y257000D02*
X232500D01*
X200500D02*
X204500D01*
X194000Y236000D02*
Y251000D01*
X239000D01*
Y236000D02*
Y251000D01*
X194000Y236000D02*
X239000D01*
X493000Y237500D02*
Y252500D01*
X538000D01*
Y237500D02*
Y252500D01*
X493000Y237500D02*
X538000D01*
X528000Y265000D02*
Y273000D01*
X504000Y265000D02*
X528000D01*
X504000D02*
Y273000D01*
X528000D01*
Y269000D02*
X532000D01*
X500000D02*
X504000D01*
X528000Y254500D02*
Y262500D01*
X504000Y254500D02*
X528000D01*
X504000D02*
Y262500D01*
X528000D01*
Y258500D02*
X532000D01*
X500000D02*
X504000D01*
X451000Y264500D02*
Y272500D01*
X427000Y264500D02*
X451000D01*
X427000D02*
Y272500D01*
X451000D01*
Y268500D02*
X455000D01*
X423000D02*
X427000D01*
X451000Y254500D02*
Y262500D01*
X427000Y254500D02*
X451000D01*
X427000D02*
Y262500D01*
X451000D01*
Y258500D02*
X455000D01*
X423000D02*
X427000D01*
X417500Y237500D02*
Y252500D01*
X462500D01*
Y237500D02*
Y252500D01*
X417500Y237500D02*
X462500D01*
X591500Y277500D02*
Y327500D01*
X573167Y280833D02*
X586500D01*
X571500Y282500D02*
X573167Y280833D01*
X571500Y282500D02*
X573167Y284167D01*
X586500D01*
X573167Y290833D02*
X586500D01*
X571500Y292500D02*
X573167Y290833D01*
X571500Y292500D02*
X573167Y294167D01*
X586500D01*
X573167Y300833D02*
X586500D01*
X571500Y302500D02*
X573167Y300833D01*
X571500Y302500D02*
X573167Y304167D01*
X586500D01*
X573167Y310833D02*
X586500D01*
X571500Y312500D02*
X573167Y310833D01*
X571500Y312500D02*
X573167Y314167D01*
X586500D01*
X573167Y320833D02*
X586500D01*
X571500Y322500D02*
X573167Y320833D01*
X571500Y322500D02*
X573167Y324167D01*
X586500D01*
Y327500D02*
X591500D01*
X586500Y277500D02*
Y327500D01*
Y277500D02*
X591500D01*
X184256Y129886D02*
Y145114D01*
X145756Y129886D02*
Y145114D01*
X164756Y129886D02*
Y145114D01*
X161500Y165500D02*
Y173500D01*
X137500Y165500D02*
X161500D01*
X137500D02*
Y173500D01*
X161500D01*
Y169500D02*
X165500D01*
X133500D02*
X137500D01*
X151500Y176000D02*
Y184000D01*
X127500Y176000D02*
X151500D01*
X127500D02*
Y184000D01*
X151500D01*
Y180000D02*
X155500D01*
X123500D02*
X127500D01*
X261756Y129150D02*
Y144378D01*
X221256Y129650D02*
Y144878D01*
X241756Y129386D02*
Y144614D01*
X228000Y176500D02*
Y184500D01*
X204000Y176500D02*
X228000D01*
X204000D02*
Y184500D01*
X228000D01*
Y180500D02*
X232000D01*
X200000D02*
X204000D01*
X242500Y166000D02*
Y174000D01*
X218500Y166000D02*
X242500D01*
X218500D02*
Y174000D01*
X242500D01*
Y170000D02*
X246500D01*
X214500D02*
X218500D01*
X477000Y156000D02*
Y164000D01*
X453000Y156000D02*
X477000D01*
X453000D02*
Y164000D01*
X477000D01*
Y160000D02*
X481000D01*
X449000D02*
X453000D01*
X465000Y166000D02*
Y174000D01*
X441000Y166000D02*
X465000D01*
X441000D02*
Y174000D01*
X465000D01*
Y170000D02*
X469000D01*
X437000D02*
X441000D01*
X454000Y176000D02*
Y184000D01*
X430000Y176000D02*
X454000D01*
X430000D02*
Y184000D01*
X454000D01*
Y180000D02*
X458000D01*
X426000D02*
X430000D01*
X484256Y130150D02*
Y145378D01*
X464006Y130150D02*
Y145378D01*
X443756Y130150D02*
Y145378D01*
X538506Y129886D02*
Y145114D01*
X559256Y129886D02*
Y145114D01*
X517756Y129886D02*
Y145114D01*
X526000Y176000D02*
Y184000D01*
X502000Y176000D02*
X526000D01*
X502000D02*
Y184000D01*
X526000D01*
Y180000D02*
X530000D01*
X498000D02*
X502000D01*
X550000Y155500D02*
Y163500D01*
X526000Y155500D02*
X550000D01*
X526000D02*
Y163500D01*
X550000D01*
Y159500D02*
X554000D01*
X522000D02*
X526000D01*
X255000Y155500D02*
Y163500D01*
X231000Y155500D02*
X255000D01*
X231000D02*
Y163500D01*
X255000D01*
Y159500D02*
X259000D01*
X227000D02*
X231000D01*
X177500Y155000D02*
Y163000D01*
X153500Y155000D02*
X177500D01*
X153500D02*
Y163000D01*
X177500D01*
Y159000D02*
X181500D01*
X149500D02*
X153500D01*
X539500Y166000D02*
Y174000D01*
X515500Y166000D02*
X539500D01*
X515500D02*
Y174000D01*
X539500D01*
Y170000D02*
X543500D01*
X511500D02*
X515500D01*
X401500Y393000D02*
X411500D01*
Y363000D02*
Y393000D01*
X401500Y363000D02*
X411500D01*
X401500D02*
Y393000D01*
D11*
X179492Y122343D02*
G03*
X179492Y122343I-492J0D01*
G01*
X140992D02*
G03*
X140992Y122343I-492J0D01*
G01*
X159992D02*
G03*
X159992Y122343I-492J0D01*
G01*
X256992Y121606D02*
G03*
X256992Y121606I-492J0D01*
G01*
X216492Y122106D02*
G03*
X216492Y122106I-492J0D01*
G01*
X236992Y121843D02*
G03*
X236992Y121843I-492J0D01*
G01*
X479492Y122606D02*
G03*
X479492Y122606I-492J0D01*
G01*
X459242D02*
G03*
X459242Y122606I-492J0D01*
G01*
X438992D02*
G03*
X438992Y122606I-492J0D01*
G01*
X533742Y122343D02*
G03*
X533742Y122343I-492J0D01*
G01*
X554492D02*
G03*
X554492Y122343I-492J0D01*
G01*
X512992D02*
G03*
X512992Y122343I-492J0D01*
G01*
D12*
X401500Y397500D02*
X441500D01*
X401500Y357500D02*
X441500D01*
X401500D02*
Y397500D01*
X441500Y357500D02*
Y397500D01*
X272500Y361500D02*
X357500D01*
X272500Y422000D02*
X357500D01*
Y361500D02*
Y422000D01*
X272500Y361500D02*
Y422000D01*
X533400Y317997D02*
Y311999D01*
Y313999D01*
X537399Y317997D01*
X534400Y314998D01*
X537399Y311999D01*
X542397D02*
X540398D01*
X539398Y312999D01*
Y314998D01*
X540398Y315998D01*
X542397D01*
X543397Y314998D01*
Y313999D01*
X539398D01*
X545396Y315998D02*
Y312999D01*
X546396Y311999D01*
X549395D01*
Y311000D01*
X548395Y310000D01*
X547396D01*
X549395Y311999D02*
Y315998D01*
X555393Y311999D02*
X551394D01*
X555393Y315998D01*
Y316998D01*
X554393Y317997D01*
X552394D01*
X551394Y316998D01*
X533400Y304998D02*
X534400Y305998D01*
X536399D01*
X537399Y304998D01*
Y303999D01*
X536399Y302999D01*
X535399D01*
X536399D01*
X537399Y301999D01*
Y301000D01*
X536399Y300000D01*
X534400D01*
X533400Y301000D01*
X539398Y305998D02*
Y301999D01*
X541397Y300000D01*
X543397Y301999D01*
Y305998D01*
X545396Y304998D02*
X546396Y305998D01*
X548395D01*
X549395Y304998D01*
Y303999D01*
X548395Y302999D01*
X547396D01*
X548395D01*
X549395Y301999D01*
Y301000D01*
X548395Y300000D01*
X546396D01*
X545396Y301000D01*
X533900Y287497D02*
Y281499D01*
Y283499D01*
X537899Y287497D01*
X534900Y284498D01*
X537899Y281499D01*
X542897D02*
X540898D01*
X539898Y282499D01*
Y284498D01*
X540898Y285498D01*
X542897D01*
X543897Y284498D01*
Y283499D01*
X539898D01*
X545896Y285498D02*
Y282499D01*
X546896Y281499D01*
X549895D01*
Y280500D01*
X548895Y279500D01*
X547895D01*
X549895Y281499D02*
Y285498D01*
X554893Y281499D02*
Y287497D01*
X551894Y284498D01*
X555893D01*
X533400Y297997D02*
Y291999D01*
Y293999D01*
X537399Y297997D01*
X534400Y294998D01*
X537399Y291999D01*
X542397D02*
X540398D01*
X539398Y292999D01*
Y294998D01*
X540398Y295998D01*
X542397D01*
X543397Y294998D01*
Y293999D01*
X539398D01*
X545396Y295998D02*
Y292999D01*
X546396Y291999D01*
X549395D01*
Y291000D01*
X548395Y290000D01*
X547396D01*
X549395Y291999D02*
Y295998D01*
X551394Y296998D02*
X552394Y297997D01*
X554393D01*
X555393Y296998D01*
Y295998D01*
X554393Y294998D01*
X553394D01*
X554393D01*
X555393Y293999D01*
Y292999D01*
X554393Y291999D01*
X552394D01*
X551394Y292999D01*
X533500Y327397D02*
Y321399D01*
Y323399D01*
X537499Y327397D01*
X534500Y324398D01*
X537499Y321399D01*
X542497D02*
X540498D01*
X539498Y322399D01*
Y324398D01*
X540498Y325398D01*
X542497D01*
X543497Y324398D01*
Y323399D01*
X539498D01*
X545496Y325398D02*
Y322399D01*
X546496Y321399D01*
X549495D01*
Y320400D01*
X548495Y319400D01*
X547496D01*
X549495Y321399D02*
Y325398D01*
X551494Y321399D02*
X553493D01*
X552494D01*
Y327397D01*
X551494Y326398D01*
X306099Y351898D02*
X305099Y352898D01*
X303100D01*
X302100Y351898D01*
Y347900D01*
X303100Y346900D01*
X305099D01*
X306099Y347900D01*
X312097Y352898D02*
X310097Y351898D01*
X308098Y349899D01*
Y347900D01*
X309098Y346900D01*
X311097D01*
X312097Y347900D01*
Y348899D01*
X311097Y349899D01*
X308098D01*
X483500Y405998D02*
Y400000D01*
X486499D01*
X487499Y401000D01*
Y401999D01*
X486499Y402999D01*
X483500D01*
X486499D01*
X487499Y403999D01*
Y404998D01*
X486499Y405998D01*
X483500D01*
X489498Y400000D02*
Y403999D01*
X491497Y405998D01*
X493497Y403999D01*
Y400000D01*
Y402999D01*
X489498D01*
X495496Y405998D02*
X499495D01*
X497496D01*
Y400000D01*
X501494Y405998D02*
X505493D01*
X503493D01*
Y400000D01*
X511491Y405998D02*
X507492D01*
Y400000D01*
X511491D01*
X507492Y402999D02*
X509492D01*
X513490Y400000D02*
Y405998D01*
X516489D01*
X517489Y404998D01*
Y402999D01*
X516489Y401999D01*
X513490D01*
X515490D02*
X517489Y400000D01*
X519488Y405998D02*
Y404998D01*
X521488Y402999D01*
X523487Y404998D01*
Y405998D01*
X521488Y402999D02*
Y400000D01*
X531485Y405998D02*
Y400000D01*
X535483D01*
X541481Y405998D02*
X537483D01*
Y400000D01*
X541481D01*
X537483Y402999D02*
X539482D01*
X543481Y405998D02*
Y401999D01*
X545480Y400000D01*
X547479Y401999D01*
Y405998D01*
X553477D02*
X549479D01*
Y400000D01*
X553477D01*
X549479Y402999D02*
X551478D01*
X555477Y405998D02*
Y400000D01*
X559475D01*
X385599Y407898D02*
X384599Y408898D01*
X382600D01*
X381600Y407898D01*
Y403900D01*
X382600Y402900D01*
X384599D01*
X385599Y403900D01*
X391597Y408898D02*
X387598D01*
Y405899D01*
X389597Y406899D01*
X390597D01*
X391597Y405899D01*
Y403900D01*
X390597Y402900D01*
X388598D01*
X387598Y403900D01*
X523500Y209499D02*
X527499D01*
X525499Y211499D02*
Y207500D01*
X150000Y209499D02*
X153999D01*
X151999Y211499D02*
Y207500D01*
X224500Y209499D02*
X228499D01*
X226499Y211499D02*
Y207500D01*
X449000Y209499D02*
X452999D01*
X450999Y211499D02*
Y207500D01*
D13*
X83601Y294500D02*
Y297499D01*
X85100D01*
X85600Y297000D01*
Y296000D01*
X85100Y295500D01*
X83601D01*
X88599Y297499D02*
X86600D01*
Y296000D01*
X87599Y296500D01*
X88099D01*
X88599Y296000D01*
Y295000D01*
X88099Y294500D01*
X87100D01*
X86600Y295000D01*
X83901Y308000D02*
Y310999D01*
X85400D01*
X85900Y310500D01*
Y309500D01*
X85400Y309000D01*
X83901D01*
X86900Y308000D02*
X87899D01*
X87400D01*
Y310999D01*
X86900Y310500D01*
X123601Y411401D02*
Y414399D01*
X125100D01*
X125600Y413900D01*
Y412900D01*
X125100Y412400D01*
X123601D01*
X128599Y414399D02*
X127600Y413900D01*
X126600Y412900D01*
Y411900D01*
X127100Y411401D01*
X128099D01*
X128599Y411900D01*
Y412400D01*
X128099Y412900D01*
X126600D01*
X123601Y397901D02*
Y400900D01*
X125100D01*
X125600Y400400D01*
Y399400D01*
X125100Y398900D01*
X123601D01*
X128599Y397901D02*
X126600D01*
X128599Y399900D01*
Y400400D01*
X128099Y400900D01*
X127100D01*
X126600Y400400D01*
X432501Y334000D02*
Y337000D01*
X434000D01*
X434500Y336500D01*
Y335500D01*
X434000Y335000D01*
X432501D01*
X433500D02*
X434500Y334000D01*
X435500D02*
X436499D01*
X435999D01*
Y337000D01*
X435500Y336500D01*
X432501Y321500D02*
Y324500D01*
X434000D01*
X434500Y324000D01*
Y323000D01*
X434000Y322500D01*
X432501D01*
X433500D02*
X434500Y321500D01*
X437499D02*
X435500D01*
X437499Y323500D01*
Y324000D01*
X436999Y324500D01*
X436000D01*
X435500Y324000D01*
X432501Y308501D02*
Y311500D01*
X434000D01*
X434500Y311000D01*
Y310000D01*
X434000Y309500D01*
X432501D01*
X433500D02*
X434500Y308501D01*
X435500Y311000D02*
X436000Y311500D01*
X436999D01*
X437499Y311000D01*
Y310500D01*
X436999Y310000D01*
X436500D01*
X436999D01*
X437499Y309500D01*
Y309000D01*
X436999Y308501D01*
X436000D01*
X435500Y309000D01*
X265500Y419000D02*
X265001Y419499D01*
X264001D01*
X263501Y419000D01*
Y418500D01*
X264001Y418000D01*
X265001D01*
X265500Y417500D01*
Y417000D01*
X265001Y416501D01*
X264001D01*
X263501Y417000D01*
X266500Y419499D02*
Y416501D01*
X267500Y417500D01*
X268499Y416501D01*
Y419499D01*
X269499Y416501D02*
X270499D01*
X269999D01*
Y419499D01*
X269499Y419000D01*
X536501Y388499D02*
Y385501D01*
X538001D01*
X538501Y386000D01*
Y388000D01*
X538001Y388499D01*
X536501D01*
X541500Y388000D02*
X541000Y388499D01*
X540000D01*
X539500Y388000D01*
Y387500D01*
X540000Y387000D01*
X541000D01*
X541500Y386500D01*
Y386000D01*
X541000Y385501D01*
X540000D01*
X539500Y386000D01*
X542499Y388000D02*
X542999Y388499D01*
X543999D01*
X544499Y388000D01*
Y387500D01*
X543999Y387000D01*
X543499D01*
X543999D01*
X544499Y386500D01*
Y386000D01*
X543999Y385501D01*
X542999D01*
X542499Y386000D01*
X504001Y388499D02*
Y385501D01*
X505501D01*
X506001Y386000D01*
Y388000D01*
X505501Y388499D01*
X504001D01*
X509000Y388000D02*
X508500Y388499D01*
X507500D01*
X507000Y388000D01*
Y387500D01*
X507500Y387000D01*
X508500D01*
X509000Y386500D01*
Y386000D01*
X508500Y385501D01*
X507500D01*
X507000Y386000D01*
X511999Y385501D02*
X509999D01*
X511999Y387500D01*
Y388000D01*
X511499Y388499D01*
X510499D01*
X509999Y388000D01*
X473501Y388499D02*
Y385501D01*
X475001D01*
X475500Y386000D01*
Y388000D01*
X475001Y388499D01*
X473501D01*
X478500Y388000D02*
X478000Y388499D01*
X477000D01*
X476500Y388000D01*
Y387500D01*
X477000Y387000D01*
X478000D01*
X478500Y386500D01*
Y386000D01*
X478000Y385501D01*
X477000D01*
X476500Y386000D01*
X479499Y385501D02*
X480499D01*
X479999D01*
Y388499D01*
X479499Y388000D01*
X170000Y245500D02*
X169500Y246000D01*
X168500D01*
X168001Y245500D01*
Y243500D01*
X168500Y243001D01*
X169500D01*
X170000Y243500D01*
X171000Y243001D02*
X171999D01*
X171500D01*
Y246000D01*
X171000Y245500D01*
X167751Y256501D02*
Y259500D01*
X169251D01*
X169751Y259000D01*
Y258000D01*
X169251Y257500D01*
X167751D01*
X168751D02*
X169751Y256501D01*
X170750D02*
X171750D01*
X171250D01*
Y259500D01*
X170750Y259000D01*
X175249Y259500D02*
X174249Y259000D01*
X173249Y258000D01*
Y257000D01*
X173749Y256501D01*
X174749D01*
X175249Y257000D01*
Y257500D01*
X174749Y258000D01*
X173249D01*
X167251Y267001D02*
Y270000D01*
X168751D01*
X169251Y269500D01*
Y268500D01*
X168751Y268000D01*
X167251D01*
X168251D02*
X169251Y267001D01*
X170250D02*
X171250D01*
X170750D01*
Y270000D01*
X170250Y269500D01*
X172749Y270000D02*
X174749D01*
Y269500D01*
X172749Y267500D01*
Y267001D01*
X243251Y266001D02*
Y269000D01*
X244751D01*
X245251Y268500D01*
Y267500D01*
X244751Y267000D01*
X243251D01*
X244251D02*
X245251Y266001D01*
X246250D02*
X247250D01*
X246750D01*
Y269000D01*
X246250Y268500D01*
X248749Y266500D02*
X249249Y266001D01*
X250249D01*
X250749Y266500D01*
Y268500D01*
X250249Y269000D01*
X249249D01*
X248749Y268500D01*
Y268000D01*
X249249Y267500D01*
X250749D01*
X243251Y255501D02*
Y258500D01*
X244751D01*
X245251Y258000D01*
Y257000D01*
X244751Y256500D01*
X243251D01*
X244251D02*
X245251Y255501D01*
X246250D02*
X247250D01*
X246750D01*
Y258500D01*
X246250Y258000D01*
X248749D02*
X249249Y258500D01*
X250249D01*
X250749Y258000D01*
Y257500D01*
X250249Y257000D01*
X250749Y256500D01*
Y256000D01*
X250249Y255501D01*
X249249D01*
X248749Y256000D01*
Y256500D01*
X249249Y257000D01*
X248749Y257500D01*
Y258000D01*
X249249Y257000D02*
X250249D01*
X245500Y244000D02*
X245000Y244499D01*
X244001D01*
X243501Y244000D01*
Y242000D01*
X244001Y241500D01*
X245000D01*
X245500Y242000D01*
X248499Y241500D02*
X246500D01*
X248499Y243500D01*
Y244000D01*
X247999Y244499D01*
X247000D01*
X246500Y244000D01*
X487000Y246500D02*
X486500Y247000D01*
X485501D01*
X485001Y246500D01*
Y244500D01*
X485501Y244001D01*
X486500D01*
X487000Y244500D01*
X489499Y244001D02*
Y247000D01*
X488000Y245500D01*
X489999D01*
X482501Y267500D02*
Y270499D01*
X484001D01*
X484501Y270000D01*
Y269000D01*
X484001Y268500D01*
X482501D01*
X483501D02*
X484501Y267500D01*
X487500D02*
X485500D01*
X487500Y269500D01*
Y270000D01*
X487000Y270499D01*
X486000D01*
X485500Y270000D01*
X488499D02*
X488999Y270499D01*
X489999D01*
X490499Y270000D01*
Y269500D01*
X489999Y269000D01*
X489499D01*
X489999D01*
X490499Y268500D01*
Y268000D01*
X489999Y267500D01*
X488999D01*
X488499Y268000D01*
X483001Y257000D02*
Y259999D01*
X484501D01*
X485001Y259500D01*
Y258500D01*
X484501Y258000D01*
X483001D01*
X484001D02*
X485001Y257000D01*
X488000D02*
X486000D01*
X488000Y259000D01*
Y259500D01*
X487500Y259999D01*
X486500D01*
X486000Y259500D01*
X490999Y257000D02*
X488999D01*
X490999Y259000D01*
Y259500D01*
X490499Y259999D01*
X489499D01*
X488999Y259500D01*
X406001Y267001D02*
Y270000D01*
X407501D01*
X408001Y269500D01*
Y268500D01*
X407501Y268000D01*
X406001D01*
X407001D02*
X408001Y267001D01*
X410999D02*
X409000D01*
X410999Y269000D01*
Y269500D01*
X410500Y270000D01*
X409500D01*
X409000Y269500D01*
X411999Y267001D02*
X412999D01*
X412499D01*
Y270000D01*
X411999Y269500D01*
X406001Y257501D02*
Y260500D01*
X407501D01*
X408001Y260000D01*
Y259000D01*
X407501Y258500D01*
X406001D01*
X407001D02*
X408001Y257501D01*
X411000D02*
X409000D01*
X411000Y259500D01*
Y260000D01*
X410500Y260500D01*
X409500D01*
X409000Y260000D01*
X411999D02*
X412499Y260500D01*
X413499D01*
X413999Y260000D01*
Y258000D01*
X413499Y257501D01*
X412499D01*
X411999Y258000D01*
Y260000D01*
X411500Y246000D02*
X411000Y246499D01*
X410001D01*
X409501Y246000D01*
Y244000D01*
X410001Y243500D01*
X411000D01*
X411500Y244000D01*
X412500Y246000D02*
X413000Y246499D01*
X413999D01*
X414499Y246000D01*
Y245500D01*
X413999Y245000D01*
X413499D01*
X413999D01*
X414499Y244500D01*
Y244000D01*
X413999Y243500D01*
X413000D01*
X412500Y244000D01*
X571700Y330500D02*
Y333499D01*
X573200D01*
X573699Y332999D01*
Y331999D01*
X573200Y331500D01*
X571700D01*
X576198Y330500D02*
Y333499D01*
X574699Y331999D01*
X576698D01*
X170100Y150200D02*
Y152200D01*
X169600Y152699D01*
X168601D01*
X168101Y152200D01*
Y150200D01*
X168601Y149700D01*
X169600D01*
X169100Y150700D02*
X170100Y149700D01*
X169600D02*
X170100Y150200D01*
X171100D02*
X171600Y149700D01*
X172599D01*
X173099Y150200D01*
Y152200D01*
X172599Y152699D01*
X171600D01*
X171100Y152200D01*
Y151700D01*
X171600Y151200D01*
X173099D01*
X131500Y150700D02*
Y152700D01*
X131000Y153200D01*
X130000D01*
X129501Y152700D01*
Y150700D01*
X130000Y150200D01*
X131000D01*
X130500Y151200D02*
X131500Y150200D01*
X131000D02*
X131500Y150700D01*
X132500Y150200D02*
X133499D01*
X133000D01*
Y153200D01*
X132500Y152700D01*
X150600Y150400D02*
Y152400D01*
X150100Y152900D01*
X149101D01*
X148601Y152400D01*
Y150400D01*
X149101Y149900D01*
X150100D01*
X149601Y150900D02*
X150600Y149900D01*
X150100D02*
X150600Y150400D01*
X153599Y152900D02*
X151600D01*
Y151400D01*
X152600Y151900D01*
X153099D01*
X153599Y151400D01*
Y150400D01*
X153099Y149900D01*
X152100D01*
X151600Y150400D01*
X174501Y168000D02*
Y171000D01*
X176000D01*
X176500Y170500D01*
Y169500D01*
X176000Y169000D01*
X174501D01*
X175501D02*
X176500Y168000D01*
X177500Y170500D02*
X178000Y171000D01*
X178999D01*
X179499Y170500D01*
Y170000D01*
X178999Y169500D01*
X179499Y169000D01*
Y168500D01*
X178999Y168000D01*
X178000D01*
X177500Y168500D01*
Y169000D01*
X178000Y169500D01*
X177500Y170000D01*
Y170500D01*
X178000Y169500D02*
X178999D01*
X165001Y178500D02*
Y181500D01*
X166500D01*
X167000Y181000D01*
Y180000D01*
X166500Y179500D01*
X165001D01*
X166000D02*
X167000Y178500D01*
X169499D02*
Y181500D01*
X168000Y180000D01*
X169999D01*
X247251Y150000D02*
Y152000D01*
X246751Y152499D01*
X245751D01*
X245251Y152000D01*
Y150000D01*
X245751Y149501D01*
X246751D01*
X246251Y150500D02*
X247251Y149501D01*
X246751D02*
X247251Y150000D01*
X248250Y149501D02*
X249250D01*
X248750D01*
Y152499D01*
X248250Y152000D01*
X250749D02*
X251249Y152499D01*
X252249D01*
X252749Y152000D01*
Y150000D01*
X252249Y149501D01*
X251249D01*
X250749Y150000D01*
Y152000D01*
X207000Y150500D02*
Y152500D01*
X206500Y152999D01*
X205501D01*
X205001Y152500D01*
Y150500D01*
X205501Y150001D01*
X206500D01*
X206000Y151000D02*
X207000Y150001D01*
X206500D02*
X207000Y150500D01*
X209999Y150001D02*
X208000D01*
X209999Y152000D01*
Y152500D01*
X209499Y152999D01*
X208500D01*
X208000Y152500D01*
X227500Y150500D02*
Y152500D01*
X227000Y152999D01*
X226001D01*
X225501Y152500D01*
Y150500D01*
X226001Y150001D01*
X227000D01*
X226501Y151000D02*
X227500Y150001D01*
X227000D02*
X227500Y150500D01*
X230499Y152999D02*
X229500Y152500D01*
X228500Y151500D01*
Y150500D01*
X229000Y150001D01*
X229999D01*
X230499Y150500D01*
Y151000D01*
X229999Y151500D01*
X228500D01*
X241501Y179000D02*
Y182000D01*
X243000D01*
X243500Y181500D01*
Y180500D01*
X243000Y180000D01*
X241501D01*
X242500D02*
X243500Y179000D01*
X246499Y182000D02*
X244500D01*
Y180500D01*
X245499Y181000D01*
X245999D01*
X246499Y180500D01*
Y179500D01*
X245999Y179000D01*
X245000D01*
X244500Y179500D01*
X255501Y168000D02*
Y171000D01*
X257000D01*
X257500Y170500D01*
Y169500D01*
X257000Y169000D01*
X255501D01*
X256501D02*
X257500Y168000D01*
X258500Y168500D02*
X259000Y168000D01*
X259999D01*
X260499Y168500D01*
Y170500D01*
X259999Y171000D01*
X259000D01*
X258500Y170500D01*
Y170000D01*
X259000Y169500D01*
X260499D01*
X490751Y158001D02*
Y161000D01*
X492251D01*
X492751Y160500D01*
Y159500D01*
X492251Y159000D01*
X490751D01*
X491751D02*
X492751Y158001D01*
X493750D02*
X494750D01*
X494250D01*
Y161000D01*
X493750Y160500D01*
X497749Y158001D02*
Y161000D01*
X496249Y159500D01*
X498249D01*
X478751Y168000D02*
Y171000D01*
X480251D01*
X480751Y170500D01*
Y169500D01*
X480251Y169000D01*
X478751D01*
X479751D02*
X480751Y168000D01*
X481750D02*
X482750D01*
X482250D01*
Y171000D01*
X481750Y170500D01*
X484249D02*
X484749Y171000D01*
X485749D01*
X486249Y170500D01*
Y168500D01*
X485749Y168000D01*
X484749D01*
X484249Y168500D01*
Y170500D01*
X467001Y178000D02*
Y181000D01*
X468500D01*
X469000Y180500D01*
Y179500D01*
X468500Y179000D01*
X467001D01*
X468001D02*
X469000Y178000D01*
X471999Y181000D02*
X470999Y180500D01*
X470000Y179500D01*
Y178500D01*
X470500Y178000D01*
X471499D01*
X471999Y178500D01*
Y179000D01*
X471499Y179500D01*
X470000D01*
X469750Y151000D02*
Y153000D01*
X469251Y153499D01*
X468251D01*
X467751Y153000D01*
Y151000D01*
X468251Y150501D01*
X469251D01*
X468751Y151500D02*
X469750Y150501D01*
X469251D02*
X469750Y151000D01*
X470750Y150501D02*
X471750D01*
X471250D01*
Y153499D01*
X470750Y153000D01*
X473249Y150501D02*
X474249D01*
X473749D01*
Y153499D01*
X473249Y153000D01*
X449500Y151000D02*
Y153000D01*
X449000Y153499D01*
X448001D01*
X447501Y153000D01*
Y151000D01*
X448001Y150501D01*
X449000D01*
X448500Y151500D02*
X449500Y150501D01*
X449000D02*
X449500Y151000D01*
X450500Y153499D02*
X452499D01*
Y153000D01*
X450500Y151000D01*
Y150501D01*
X429500Y151000D02*
Y153000D01*
X429000Y153499D01*
X428001D01*
X427501Y153000D01*
Y151000D01*
X428001Y150501D01*
X429000D01*
X428501Y151500D02*
X429500Y150501D01*
X429000D02*
X429500Y151000D01*
X430500Y153000D02*
X431000Y153499D01*
X431999D01*
X432499Y153000D01*
Y152500D01*
X431999Y152000D01*
X431499D01*
X431999D01*
X432499Y151500D01*
Y151000D01*
X431999Y150501D01*
X431000D01*
X430500Y151000D01*
X524250D02*
Y153000D01*
X523750Y153499D01*
X522751D01*
X522251Y153000D01*
Y151000D01*
X522751Y150501D01*
X523750D01*
X523250Y151500D02*
X524250Y150501D01*
X523750D02*
X524250Y151000D01*
X525250Y153000D02*
X525750Y153499D01*
X526749D01*
X527249Y153000D01*
Y152500D01*
X526749Y152000D01*
X527249Y151500D01*
Y151000D01*
X526749Y150501D01*
X525750D01*
X525250Y151000D01*
Y151500D01*
X525750Y152000D01*
X525250Y152500D01*
Y153000D01*
X525750Y152000D02*
X526749D01*
X512900Y219499D02*
Y216500D01*
X514399D01*
X514899Y217000D01*
Y218999D01*
X514399Y219499D01*
X512900D01*
X517399Y216500D02*
Y219499D01*
X515899Y218000D01*
X517898D01*
X544751Y151000D02*
Y153000D01*
X544251Y153499D01*
X543251D01*
X542751Y153000D01*
Y151000D01*
X543251Y150501D01*
X544251D01*
X543751Y151500D02*
X544751Y150501D01*
X544251D02*
X544751Y151000D01*
X545750Y150501D02*
X546750D01*
X546250D01*
Y153499D01*
X545750Y153000D01*
X550249Y150501D02*
X548249D01*
X550249Y152500D01*
Y153000D01*
X549749Y153499D01*
X548749D01*
X548249Y153000D01*
X503500Y151000D02*
Y153000D01*
X503000Y153499D01*
X502001D01*
X501501Y153000D01*
Y151000D01*
X502001Y150501D01*
X503000D01*
X502500Y151500D02*
X503500Y150501D01*
X503000D02*
X503500Y151000D01*
X505999Y150501D02*
Y153499D01*
X504500Y152000D01*
X506499D01*
X540001Y178000D02*
Y181000D01*
X541500D01*
X542000Y180500D01*
Y179500D01*
X541500Y179000D01*
X540001D01*
X541001D02*
X542000Y178000D01*
X543000Y181000D02*
X544999D01*
Y180500D01*
X543000Y178500D01*
Y178000D01*
X190251Y157501D02*
Y160500D01*
X191751D01*
X192251Y160000D01*
Y159000D01*
X191751Y158500D01*
X190251D01*
X191251D02*
X192251Y157501D01*
X193250D02*
X194250D01*
X193750D01*
Y160500D01*
X193250Y160000D01*
X197749Y157501D02*
X195749D01*
X197749Y159500D01*
Y160000D01*
X197249Y160500D01*
X196249D01*
X195749Y160000D01*
X562251Y157501D02*
Y160500D01*
X563751D01*
X564251Y160000D01*
Y159000D01*
X563751Y158500D01*
X562251D01*
X563251D02*
X564251Y157501D01*
X565250D02*
X566250D01*
X565750D01*
Y160500D01*
X565250Y160000D01*
X569749Y160500D02*
X567749D01*
Y159000D01*
X568749Y159500D01*
X569249D01*
X569749Y159000D01*
Y158000D01*
X569249Y157501D01*
X568249D01*
X567749Y158000D01*
X550751Y168500D02*
Y171500D01*
X552251D01*
X552750Y171000D01*
Y170000D01*
X552251Y169500D01*
X550751D01*
X551751D02*
X552750Y168500D01*
X553750D02*
X554750D01*
X554250D01*
Y171500D01*
X553750Y171000D01*
X556249Y168500D02*
X557249D01*
X556749D01*
Y171500D01*
X556249Y171000D01*
X269251Y158001D02*
Y161000D01*
X270751D01*
X271251Y160500D01*
Y159500D01*
X270751Y159000D01*
X269251D01*
X270251D02*
X271251Y158001D01*
X272250D02*
X273250D01*
X272750D01*
Y161000D01*
X272250Y160500D01*
X274749D02*
X275249Y161000D01*
X276249D01*
X276749Y160500D01*
Y160000D01*
X276249Y159500D01*
X275749D01*
X276249D01*
X276749Y159000D01*
Y158500D01*
X276249Y158001D01*
X275249D01*
X274749Y158500D01*
X213900Y219499D02*
Y216500D01*
X215400D01*
X215899Y217000D01*
Y218999D01*
X215400Y219499D01*
X213900D01*
X218898Y216500D02*
X216899D01*
X218898Y218499D01*
Y218999D01*
X218398Y219499D01*
X217399D01*
X216899Y218999D01*
X139400Y219499D02*
Y216500D01*
X140900D01*
X141399Y217000D01*
Y218999D01*
X140900Y219499D01*
X139400D01*
X142399Y216500D02*
X143399D01*
X142899D01*
Y219499D01*
X142399Y218999D01*
X438400Y219499D02*
Y216500D01*
X439899D01*
X440399Y217000D01*
Y218999D01*
X439899Y219499D01*
X438400D01*
X441399Y218999D02*
X441899Y219499D01*
X442899D01*
X443398Y218999D01*
Y218499D01*
X442899Y218000D01*
X442399D01*
X442899D01*
X443398Y217500D01*
Y217000D01*
X442899Y216500D01*
X441899D01*
X441399Y217000D01*
X402001Y352501D02*
Y355500D01*
X403500D01*
X404000Y355000D01*
Y354000D01*
X403500Y353500D01*
X402001D01*
X405000Y355000D02*
X405500Y355500D01*
X406499D01*
X406999Y355000D01*
Y354500D01*
X406499Y354000D01*
X406000D01*
X406499D01*
X406999Y353500D01*
Y353000D01*
X406499Y352501D01*
X405500D01*
X405000Y353000D01*
M02*
