G04*
G04 #@! TF.GenerationSoftware,Altium Limited,Altium Designer,22.3.1 (43)*
G04*
G04 Layer_Color=32768*
%FSLAX25Y25*%
%MOIN*%
G70*
G04*
G04 #@! TF.SameCoordinates,8EB33FF8-491A-49A4-B63E-2C25C033CD89*
G04*
G04*
G04 #@! TF.FilePolarity,Positive*
G04*
G01*
G75*
%ADD36C,0.00197*%
%ADD37C,0.00394*%
D36*
X566900Y377500D02*
G03*
X566900Y377500I-11900J0D01*
G01*
X534400D02*
G03*
X534400Y377500I-11900J0D01*
G01*
X503400Y378000D02*
G03*
X503400Y378000I-11900J0D01*
G01*
X184650Y124114D02*
Y150886D01*
X169354Y124114D02*
X184650D01*
X169354D02*
Y150886D01*
X184650D01*
X146150Y124114D02*
Y150886D01*
X130854Y124114D02*
X146150D01*
X130854D02*
Y150886D01*
X146150D01*
X165150Y124114D02*
Y150886D01*
X149854Y124114D02*
X165150D01*
X149854D02*
Y150886D01*
X165150D01*
X262150Y123378D02*
Y150150D01*
X246854Y123378D02*
X262150D01*
X246854D02*
Y150150D01*
X262150D01*
X221650Y123878D02*
Y150650D01*
X206354Y123878D02*
X221650D01*
X206354D02*
Y150650D01*
X221650D01*
X242150Y123614D02*
Y150386D01*
X226854Y123614D02*
X242150D01*
X226854D02*
Y150386D01*
X242150D01*
X484650Y124378D02*
Y151150D01*
X469354Y124378D02*
X484650D01*
X469354D02*
Y151150D01*
X484650D01*
X464400Y124378D02*
Y151150D01*
X449104Y124378D02*
X464400D01*
X449104D02*
Y151150D01*
X464400D01*
X444150Y124378D02*
Y151150D01*
X428854Y124378D02*
X444150D01*
X428854D02*
Y151150D01*
X444150D01*
X538900Y124114D02*
Y150886D01*
X523604Y124114D02*
X538900D01*
X523604D02*
Y150886D01*
X538900D01*
X559650Y124114D02*
Y150886D01*
X544354Y124114D02*
X559650D01*
X544354D02*
Y150886D01*
X559650D01*
X502854D02*
X518150D01*
X502854Y124114D02*
Y150886D01*
Y124114D02*
X518150D01*
Y150886D01*
D37*
X555000Y375532D02*
Y379468D01*
X553031Y377500D02*
X556968D01*
X522500Y375532D02*
Y379468D01*
X520532Y377500D02*
X524469D01*
X491500Y376031D02*
Y379969D01*
X489532Y378000D02*
X493469D01*
X177032Y137500D02*
X180968D01*
X179000Y135531D02*
Y139469D01*
X138531Y137500D02*
X142469D01*
X140500Y135531D02*
Y139469D01*
X157531Y137500D02*
X161469D01*
X159500Y135531D02*
Y139469D01*
X254532Y136764D02*
X258469D01*
X256500Y134795D02*
Y138732D01*
X214032Y137264D02*
X217969D01*
X216000Y135295D02*
Y139232D01*
X234531Y137000D02*
X238469D01*
X236500Y135031D02*
Y138969D01*
X477032Y137764D02*
X480969D01*
X479000Y135795D02*
Y139732D01*
X456781Y137764D02*
X460718D01*
X458750Y135795D02*
Y139732D01*
X436531Y137764D02*
X440469D01*
X438500Y135795D02*
Y139732D01*
X531282Y137500D02*
X535218D01*
X533250Y135531D02*
Y139469D01*
X552032Y137500D02*
X555969D01*
X554000Y135531D02*
Y139469D01*
X512500Y135531D02*
Y139469D01*
X510532Y137500D02*
X514468D01*
M02*
