G04*
G04 #@! TF.GenerationSoftware,Altium Limited,Altium Designer,22.3.1 (43)*
G04*
G04 Layer_Color=8388736*
%FSLAX25Y25*%
%MOIN*%
G70*
G04*
G04 #@! TF.SameCoordinates,B38667F7-6E9D-49A0-AD6C-2E3F1ACDF6D0*
G04*
G04*
G04 #@! TF.FilePolarity,Negative*
G04*
G01*
G75*
%ADD14C,0.05524*%
%ADD15R,0.06706X0.06706*%
%ADD16C,0.06706*%
%ADD17C,0.25603*%
%ADD18C,0.06312*%
%ADD19C,0.11800*%
%ADD20C,0.06902*%
%ADD21R,0.06706X0.06706*%
%ADD22R,0.06312X0.06312*%
%ADD23C,0.05800*%
D14*
X339000Y336000D02*
D03*
X309000D02*
D03*
X400400Y360900D02*
D03*
Y390900D02*
D03*
X126500Y244000D02*
D03*
X156500D02*
D03*
X201500Y243500D02*
D03*
X231500D02*
D03*
X500500Y245000D02*
D03*
X530500D02*
D03*
X425000D02*
D03*
X455000D02*
D03*
D15*
X95500Y292500D02*
D03*
Y306000D02*
D03*
X135700Y399500D02*
D03*
X135500Y386000D02*
D03*
D16*
X105500Y292500D02*
D03*
X115500D02*
D03*
X125500D02*
D03*
X135500D02*
D03*
X145500D02*
D03*
X155500D02*
D03*
X165500D02*
D03*
X175500D02*
D03*
X185500D02*
D03*
X195500D02*
D03*
X205500D02*
D03*
X215500D02*
D03*
X225500D02*
D03*
X235500D02*
D03*
X245500D02*
D03*
Y306000D02*
D03*
X235500D02*
D03*
X225500D02*
D03*
X215500D02*
D03*
X205500D02*
D03*
X195500D02*
D03*
X185500D02*
D03*
X175500D02*
D03*
X165500D02*
D03*
X155500D02*
D03*
X145500D02*
D03*
X135500D02*
D03*
X125500D02*
D03*
X115500D02*
D03*
X105500D02*
D03*
X245700Y399500D02*
D03*
X235700D02*
D03*
X225700D02*
D03*
X215700D02*
D03*
X205700D02*
D03*
X195700D02*
D03*
X185700D02*
D03*
X175700D02*
D03*
X165700D02*
D03*
X155700D02*
D03*
X145700D02*
D03*
X145500Y386000D02*
D03*
X155500D02*
D03*
X165500D02*
D03*
X175500D02*
D03*
X185500D02*
D03*
X195500D02*
D03*
X205500D02*
D03*
X215500D02*
D03*
X225500D02*
D03*
X235500D02*
D03*
X245500D02*
D03*
X596500Y282500D02*
D03*
Y292500D02*
D03*
Y302500D02*
D03*
Y312500D02*
D03*
X418400Y366900D02*
D03*
Y376900D02*
D03*
D17*
X588516Y400000D02*
D03*
X99500D02*
D03*
X588516Y140000D02*
D03*
Y255500D02*
D03*
X344008Y197748D02*
D03*
X99500Y255500D02*
D03*
Y140000D02*
D03*
D18*
X443000Y335500D02*
D03*
X483000D02*
D03*
X442500Y322500D02*
D03*
X482500D02*
D03*
X442500Y310000D02*
D03*
X482500D02*
D03*
X162000Y258500D02*
D03*
X122000D02*
D03*
X162000Y268500D02*
D03*
X122000D02*
D03*
X236500Y268000D02*
D03*
X196500D02*
D03*
X236500Y257000D02*
D03*
X196500D02*
D03*
X536000Y269000D02*
D03*
X496000D02*
D03*
X536000Y258500D02*
D03*
X496000D02*
D03*
X459000Y268500D02*
D03*
X419000D02*
D03*
X459000Y258500D02*
D03*
X419000D02*
D03*
X179000Y137500D02*
D03*
Y147736D02*
D03*
X140500Y137500D02*
D03*
Y147736D02*
D03*
X159500Y137500D02*
D03*
Y147736D02*
D03*
X169500Y169500D02*
D03*
X129500D02*
D03*
X159500Y180000D02*
D03*
X119500D02*
D03*
X256500Y136764D02*
D03*
Y147000D02*
D03*
X216000Y137264D02*
D03*
Y147500D02*
D03*
X236500Y137000D02*
D03*
Y147236D02*
D03*
X236000Y180500D02*
D03*
X196000D02*
D03*
X250500Y170000D02*
D03*
X210500D02*
D03*
X485000Y160000D02*
D03*
X445000D02*
D03*
X473000Y170000D02*
D03*
X433000D02*
D03*
X462000Y180000D02*
D03*
X422000D02*
D03*
X479000Y137764D02*
D03*
Y148000D02*
D03*
X458750Y137764D02*
D03*
Y148000D02*
D03*
X438500Y137764D02*
D03*
Y148000D02*
D03*
X533250Y137500D02*
D03*
Y147736D02*
D03*
X525500Y200500D02*
D03*
X515500D02*
D03*
X535500D02*
D03*
X545500D02*
D03*
X554000Y137500D02*
D03*
Y147736D02*
D03*
X512500D02*
D03*
Y137500D02*
D03*
X534000Y180000D02*
D03*
X494000D02*
D03*
X558000Y159500D02*
D03*
X518000D02*
D03*
X263000D02*
D03*
X223000D02*
D03*
X185500Y159000D02*
D03*
X145500D02*
D03*
X547500Y170000D02*
D03*
X507500D02*
D03*
X172000Y200500D02*
D03*
X162000D02*
D03*
X142000D02*
D03*
X152000D02*
D03*
X246500D02*
D03*
X236500D02*
D03*
X216500D02*
D03*
X226500D02*
D03*
X471000D02*
D03*
X461000D02*
D03*
X441000D02*
D03*
X451000D02*
D03*
D19*
X355659Y362200D02*
D03*
X328100D02*
D03*
D20*
X555000Y372500D02*
D03*
Y382500D02*
D03*
X522500Y372500D02*
D03*
Y382500D02*
D03*
X491500Y373000D02*
D03*
Y383000D02*
D03*
D21*
X596500Y322500D02*
D03*
X418400Y386900D02*
D03*
D22*
X179000Y127264D02*
D03*
X140500D02*
D03*
X159500D02*
D03*
X256500Y126528D02*
D03*
X216000Y127028D02*
D03*
X236500Y126764D02*
D03*
X479000Y127528D02*
D03*
X458750D02*
D03*
X438500D02*
D03*
X533250Y127264D02*
D03*
X554000D02*
D03*
X512500D02*
D03*
D23*
X359500Y307000D02*
D03*
X276000Y307500D02*
D03*
M02*
