G04*
G04 #@! TF.GenerationSoftware,Altium Limited,Altium Designer,22.3.1 (43)*
G04*
G04 Layer_Color=32896*
%FSLAX25Y25*%
%MOIN*%
G70*
G04*
G04 #@! TF.SameCoordinates,B38667F7-6E9D-49A0-AD6C-2E3F1ACDF6D0*
G04*
G04*
G04 #@! TF.FilePolarity,Positive*
G04*
G01*
G75*
%ADD12C,0.01000*%
D12*
X383900Y159593D02*
Y153595D01*
Y155594D01*
X379901Y159593D01*
X382900Y156594D01*
X379901Y153595D01*
X374903D02*
X376902D01*
X377902Y154594D01*
Y156594D01*
X376902Y157593D01*
X374903D01*
X373903Y156594D01*
Y155594D01*
X377902D01*
X371904Y157593D02*
Y154594D01*
X370904Y153595D01*
X367905D01*
Y152595D01*
X368905Y151595D01*
X369904D01*
X367905Y153595D02*
Y157593D01*
X365906Y159593D02*
Y153595D01*
X362907D01*
X361907Y154594D01*
Y155594D01*
Y156594D01*
X362907Y157593D01*
X365906D01*
X358908Y153595D02*
X356909D01*
X355909Y154594D01*
Y156594D01*
X356909Y157593D01*
X358908D01*
X359908Y156594D01*
Y154594D01*
X358908Y153595D01*
X352910Y157593D02*
X350911D01*
X349911Y156594D01*
Y153595D01*
X352910D01*
X353910Y154594D01*
X352910Y155594D01*
X349911D01*
X347912Y157593D02*
Y153595D01*
Y155594D01*
X346912Y156594D01*
X345912Y157593D01*
X344913D01*
X337915Y159593D02*
Y153595D01*
X340914D01*
X341914Y154594D01*
Y156594D01*
X340914Y157593D01*
X337915D01*
X329918Y159593D02*
Y153595D01*
X326918D01*
X325919Y154594D01*
Y155594D01*
X326918Y156594D01*
X329918D01*
X326918D01*
X325919Y157593D01*
Y158593D01*
X326918Y159593D01*
X329918D01*
X322920Y153595D02*
X320920D01*
X319921Y154594D01*
Y156594D01*
X320920Y157593D01*
X322920D01*
X323919Y156594D01*
Y154594D01*
X322920Y153595D01*
X316922Y158593D02*
Y157593D01*
X317921D01*
X315922D01*
X316922D01*
Y154594D01*
X315922Y153595D01*
X311923Y158593D02*
Y157593D01*
X312923D01*
X310924D01*
X311923D01*
Y154594D01*
X310924Y153595D01*
X306925D02*
X304926D01*
X303926Y154594D01*
Y156594D01*
X304926Y157593D01*
X306925D01*
X307925Y156594D01*
Y154594D01*
X306925Y153595D01*
X301926D02*
Y157593D01*
X300927D01*
X299927Y156594D01*
Y153595D01*
Y156594D01*
X298927Y157593D01*
X297928Y156594D01*
Y153595D01*
X383900Y141998D02*
Y147996D01*
X379901Y141998D01*
Y147996D01*
X374903Y141998D02*
X376902D01*
X377902Y142997D01*
Y144997D01*
X376902Y145996D01*
X374903D01*
X373903Y144997D01*
Y143997D01*
X377902D01*
X368905Y141998D02*
X370904D01*
X371904Y142997D01*
Y144997D01*
X370904Y145996D01*
X368905D01*
X367905Y144997D01*
Y143997D01*
X371904D01*
X365906Y141998D02*
X363907D01*
X364906D01*
Y147996D01*
X365906D01*
X354909Y141998D02*
Y147996D01*
X352910Y145996D01*
X350911Y147996D01*
Y141998D01*
X347912D02*
X345912D01*
X344913Y142997D01*
Y144997D01*
X345912Y145996D01*
X347912D01*
X348911Y144997D01*
Y142997D01*
X347912Y141998D01*
X342913D02*
Y145996D01*
X339914D01*
X338915Y144997D01*
Y141998D01*
X332916Y147996D02*
Y141998D01*
X335915D01*
X336915Y142997D01*
Y144997D01*
X335915Y145996D01*
X332916D01*
X329918D02*
X327918D01*
X326918Y144997D01*
Y141998D01*
X329918D01*
X330917Y142997D01*
X329918Y143997D01*
X326918D01*
X324919Y141998D02*
X322920D01*
X323919D01*
Y147996D01*
X324919D01*
X379901Y132400D02*
X383900D01*
X379901Y136399D01*
Y137398D01*
X380901Y138398D01*
X382900D01*
X383900Y137398D01*
X377902D02*
X376902Y138398D01*
X374903D01*
X373903Y137398D01*
Y133400D01*
X374903Y132400D01*
X376902D01*
X377902Y133400D01*
Y137398D01*
X367905Y132400D02*
X371904D01*
X367905Y136399D01*
Y137398D01*
X368905Y138398D01*
X370904D01*
X371904Y137398D01*
X361907Y132400D02*
X365906D01*
X361907Y136399D01*
Y137398D01*
X362907Y138398D01*
X364906D01*
X365906Y137398D01*
M02*
