G04*
G04 #@! TF.GenerationSoftware,Altium Limited,Altium Designer,22.3.1 (43)*
G04*
G04 Layer_Physical_Order=1*
G04 Layer_Color=255*
%FSLAX25Y25*%
%MOIN*%
G70*
G04*
G04 #@! TF.SameCoordinates,8EB33FF8-491A-49A4-B63E-2C25C033CD89*
G04*
G04*
G04 #@! TF.FilePolarity,Positive*
G04*
G01*
G75*
%ADD12C,0.01000*%
%ADD24C,0.03000*%
%ADD25C,0.04724*%
%ADD26R,0.05906X0.05906*%
%ADD27C,0.05906*%
%ADD28C,0.24803*%
%ADD29C,0.05512*%
%ADD30C,0.11000*%
%ADD31C,0.06102*%
%ADD32R,0.05906X0.05906*%
%ADD33R,0.05512X0.05512*%
%ADD34C,0.05000*%
G36*
X606500Y421977D02*
X606519D01*
X606767Y421962D01*
X607000Y421865D01*
X607000Y421865D01*
X607500Y421899D01*
X608353Y421815D01*
X610134Y421274D01*
X611776Y420397D01*
X613216Y419216D01*
X614397Y417776D01*
X615274Y416134D01*
X615815Y414353D01*
X615899Y413500D01*
X615865Y413000D01*
X615865Y413000D01*
X615962Y412767D01*
X615977Y412519D01*
Y127754D01*
X615865Y127300D01*
X615865D01*
X615914Y126800D01*
X615799Y125636D01*
X615259Y123855D01*
X614381Y122213D01*
X613200Y120774D01*
X611761Y119592D01*
X610119Y118715D01*
X608337Y118174D01*
X606973Y118040D01*
X606722Y118026D01*
X606484Y118124D01*
Y118124D01*
X606411Y118023D01*
X605989Y118023D01*
X84500D01*
X84432Y118009D01*
X82647Y118185D01*
X80866Y118726D01*
X79224Y119603D01*
X77784Y120784D01*
X76603Y122224D01*
X75726Y123866D01*
X75185Y125647D01*
X75010Y127432D01*
X75023Y127500D01*
Y412416D01*
X75033Y412654D01*
X75135Y412900D01*
X75135D01*
X75091Y413400D01*
X75185Y414353D01*
X75726Y416134D01*
X76603Y417776D01*
X77784Y419215D01*
X79224Y420397D01*
X80866Y421274D01*
X82647Y421815D01*
X83600Y421909D01*
X84100Y421865D01*
Y421865D01*
X84346Y421967D01*
X84584Y421977D01*
X606500D01*
D02*
G37*
%LPC*%
G36*
X250257Y420029D02*
X204500D01*
X203915Y419913D01*
X203419Y419581D01*
X197022Y413184D01*
X196020Y413453D01*
X194980D01*
X193974Y413183D01*
X193073Y412663D01*
X192337Y411927D01*
X191817Y411026D01*
X191547Y410020D01*
Y408980D01*
X191817Y407974D01*
X192337Y407073D01*
X193073Y406337D01*
X193971Y405819D01*
Y399681D01*
X193073Y399163D01*
X192337Y398427D01*
X191817Y397526D01*
X191547Y396520D01*
Y395480D01*
X191817Y394474D01*
X192337Y393573D01*
X193073Y392837D01*
X193974Y392317D01*
X194980Y392047D01*
X196020D01*
X197026Y392317D01*
X197927Y392837D01*
X198663Y393573D01*
X199183Y394474D01*
X199453Y395480D01*
Y396520D01*
X199183Y397526D01*
X198663Y398427D01*
X197927Y399163D01*
X197029Y399681D01*
Y405819D01*
X197927Y406337D01*
X198663Y407073D01*
X199183Y407974D01*
X199453Y408980D01*
Y410020D01*
X199185Y411022D01*
X205134Y416971D01*
X210154D01*
X210346Y416509D01*
X207022Y413184D01*
X206020Y413453D01*
X204980D01*
X203974Y413183D01*
X203073Y412663D01*
X202337Y411927D01*
X201817Y411026D01*
X201547Y410020D01*
Y408980D01*
X201817Y407974D01*
X202337Y407073D01*
X203073Y406337D01*
X203971Y405819D01*
Y399681D01*
X203073Y399163D01*
X202337Y398427D01*
X201817Y397526D01*
X201547Y396520D01*
Y395480D01*
X201817Y394474D01*
X202337Y393573D01*
X203073Y392837D01*
X203974Y392317D01*
X204980Y392047D01*
X206020D01*
X207026Y392317D01*
X207927Y392837D01*
X208663Y393573D01*
X209183Y394474D01*
X209453Y395480D01*
Y396520D01*
X209183Y397526D01*
X208663Y398427D01*
X207927Y399163D01*
X207029Y399681D01*
Y405819D01*
X207927Y406337D01*
X208663Y407073D01*
X209183Y407974D01*
X209453Y408980D01*
Y410020D01*
X209185Y411022D01*
X213134Y414971D01*
X219254D01*
X219446Y414509D01*
X217720Y412783D01*
X217026Y413183D01*
X216020Y413453D01*
X214980D01*
X213974Y413183D01*
X213073Y412663D01*
X212337Y411927D01*
X211817Y411026D01*
X211547Y410020D01*
Y408980D01*
X211817Y407974D01*
X212337Y407073D01*
X213073Y406337D01*
X213971Y405819D01*
Y399681D01*
X213073Y399163D01*
X212337Y398427D01*
X211817Y397526D01*
X211547Y396520D01*
Y395480D01*
X211817Y394474D01*
X212337Y393573D01*
X213073Y392837D01*
X213974Y392317D01*
X214980Y392047D01*
X216020D01*
X217026Y392317D01*
X217927Y392837D01*
X218663Y393573D01*
X219183Y394474D01*
X219453Y395480D01*
Y396520D01*
X219183Y397526D01*
X218663Y398427D01*
X217927Y399163D01*
X217029Y399681D01*
Y405819D01*
X217927Y406337D01*
X218663Y407073D01*
X219183Y407974D01*
X219453Y408980D01*
Y410020D01*
X219417Y410154D01*
X222212Y412949D01*
X222704Y412898D01*
X222881Y412471D01*
X222337Y411927D01*
X221817Y411026D01*
X221547Y410020D01*
Y408980D01*
X221817Y407974D01*
X222337Y407073D01*
X223073Y406337D01*
X223971Y405819D01*
Y399681D01*
X223073Y399163D01*
X222337Y398427D01*
X221817Y397526D01*
X221547Y396520D01*
Y395480D01*
X221817Y394474D01*
X222337Y393573D01*
X223073Y392837D01*
X223971Y392319D01*
Y370672D01*
X224087Y370086D01*
X224419Y369590D01*
X330508Y263500D01*
Y244226D01*
X330625Y243641D01*
X330956Y243145D01*
X434976Y139125D01*
X434744Y138258D01*
Y137269D01*
X435000Y136314D01*
X435495Y135458D01*
X436194Y134758D01*
X437050Y134264D01*
X438005Y134008D01*
X438995D01*
X439950Y134264D01*
X440806Y134758D01*
X441505Y135458D01*
X442000Y136314D01*
X442256Y137269D01*
Y138258D01*
X442000Y139214D01*
X441505Y140070D01*
X440806Y140769D01*
X440284Y141071D01*
X440418Y141571D01*
X452780D01*
X455226Y139125D01*
X454994Y138258D01*
Y137269D01*
X455250Y136314D01*
X455745Y135458D01*
X456444Y134758D01*
X457300Y134264D01*
X458255Y134008D01*
X459244D01*
X460200Y134264D01*
X461056Y134758D01*
X461756Y135458D01*
X462250Y136314D01*
X462506Y137269D01*
Y138258D01*
X462250Y139214D01*
X461756Y140070D01*
X461056Y140769D01*
X460200Y141264D01*
X459244Y141520D01*
X458255D01*
X457389Y141288D01*
X454495Y144181D01*
X453999Y144513D01*
X453414Y144629D01*
X441132D01*
X440941Y145129D01*
X441505Y145694D01*
X441954Y146471D01*
X442500D01*
X443085Y146587D01*
X443581Y146919D01*
X463081Y166419D01*
X463413Y166915D01*
X463529Y167500D01*
Y176546D01*
X464306Y176995D01*
X465005Y177694D01*
X465500Y178550D01*
X465756Y179506D01*
Y180494D01*
X465500Y181450D01*
X465005Y182306D01*
X464306Y183005D01*
X463450Y183500D01*
X462495Y183756D01*
X461506D01*
X460550Y183500D01*
X459694Y183005D01*
X458994Y182306D01*
X458500Y181450D01*
X458244Y180494D01*
Y179506D01*
X458500Y178550D01*
X458994Y177694D01*
X459694Y176995D01*
X460471Y176546D01*
Y168133D01*
X442212Y149875D01*
X441717Y149941D01*
X441505Y150306D01*
X440806Y151005D01*
X439950Y151500D01*
X438995Y151756D01*
X438005D01*
X437050Y151500D01*
X436194Y151005D01*
X435495Y150306D01*
X435000Y149450D01*
X434744Y148495D01*
Y147505D01*
X434849Y147113D01*
X434401Y146854D01*
X336075Y245180D01*
Y263780D01*
X336537Y263971D01*
X389790Y210719D01*
X390286Y210387D01*
X390872Y210271D01*
X472066D01*
X481471Y200867D01*
Y182400D01*
X481587Y181815D01*
X481919Y181319D01*
X490071Y173167D01*
Y150997D01*
X480361Y141288D01*
X479494Y141520D01*
X478506D01*
X477550Y141264D01*
X476694Y140769D01*
X475994Y140070D01*
X475500Y139214D01*
X475244Y138258D01*
Y137269D01*
X475500Y136314D01*
X475994Y135458D01*
X476694Y134758D01*
X477550Y134264D01*
X478506Y134008D01*
X479494D01*
X480450Y134264D01*
X481306Y134758D01*
X482006Y135458D01*
X482500Y136314D01*
X482756Y137269D01*
Y138258D01*
X482524Y139125D01*
X492681Y149282D01*
X493013Y149778D01*
X493129Y150364D01*
Y173800D01*
X493013Y174385D01*
X492681Y174881D01*
X484529Y183034D01*
Y201500D01*
X484413Y202085D01*
X484081Y202581D01*
X474854Y211809D01*
X475046Y212271D01*
X541567D01*
X560726Y193111D01*
Y162716D01*
X560226Y162551D01*
X559450Y163000D01*
X558495Y163256D01*
X557506D01*
X556550Y163000D01*
X555694Y162505D01*
X554994Y161806D01*
X554500Y160950D01*
X554244Y159994D01*
Y159005D01*
X554500Y158050D01*
X554994Y157194D01*
X555694Y156494D01*
X556471Y156046D01*
Y152370D01*
X555361Y151260D01*
X554494Y151492D01*
X553506D01*
X552550Y151236D01*
X551694Y150742D01*
X550994Y150042D01*
X550500Y149186D01*
X550244Y148231D01*
Y147242D01*
X550500Y146286D01*
X550994Y145430D01*
X551694Y144731D01*
X552550Y144236D01*
X553506Y143980D01*
X554494D01*
X555450Y144236D01*
X556306Y144731D01*
X557006Y145430D01*
X557500Y146286D01*
X557756Y147242D01*
Y148231D01*
X557524Y149097D01*
X559081Y150655D01*
X559413Y151151D01*
X559529Y151736D01*
Y156046D01*
X560226Y156448D01*
X560726Y156283D01*
Y146389D01*
X555361Y141024D01*
X554494Y141256D01*
X553506D01*
X552550Y141000D01*
X551694Y140506D01*
X550994Y139806D01*
X550500Y138950D01*
X550244Y137995D01*
Y137005D01*
X550500Y136050D01*
X550994Y135194D01*
X551197Y134991D01*
X551006Y134529D01*
X538383D01*
X536774Y136139D01*
X537006Y137005D01*
Y137995D01*
X536750Y138950D01*
X536256Y139806D01*
X535556Y140506D01*
X534700Y141000D01*
X533744Y141256D01*
X532756D01*
X531800Y141000D01*
X530944Y140506D01*
X530244Y139806D01*
X529750Y138950D01*
X529494Y137995D01*
Y137005D01*
X529750Y136050D01*
X530244Y135194D01*
X530944Y134494D01*
X531800Y134000D01*
X532756Y133744D01*
X533744D01*
X534611Y133976D01*
X536669Y131919D01*
X537165Y131587D01*
X537750Y131471D01*
X550126D01*
X550244Y131020D01*
X550244D01*
Y124029D01*
X537006D01*
Y131020D01*
X529494D01*
Y124029D01*
X528133D01*
X516024Y136139D01*
X516256Y137005D01*
Y137995D01*
X516000Y138950D01*
X515506Y139806D01*
X514806Y140506D01*
X513950Y141000D01*
X512994Y141256D01*
X512006D01*
X511050Y141000D01*
X510194Y140506D01*
X509494Y139806D01*
X509000Y138950D01*
X508744Y137995D01*
Y137005D01*
X509000Y136050D01*
X509494Y135194D01*
X510194Y134494D01*
X511050Y134000D01*
X512006Y133744D01*
X512994D01*
X513861Y133976D01*
X516361Y131476D01*
X516110Y131020D01*
X515816Y131020D01*
X508744D01*
Y123508D01*
X516256D01*
Y130544D01*
X516256Y130874D01*
X516712Y131125D01*
X526419Y121419D01*
X526915Y121087D01*
X527500Y120971D01*
X557900D01*
X558485Y121087D01*
X558981Y121419D01*
X567337Y129774D01*
X567669Y130271D01*
X567785Y130856D01*
Y196072D01*
X567669Y196658D01*
X567337Y197154D01*
X545610Y218881D01*
X545114Y219213D01*
X544528Y219329D01*
X394334D01*
X267029Y346634D01*
Y401454D01*
Y403257D01*
X266913Y403842D01*
X266581Y404338D01*
X251338Y419581D01*
X250842Y419913D01*
X250257Y420029D01*
D02*
G37*
G36*
X186020Y413453D02*
X184980D01*
X183974Y413183D01*
X183073Y412663D01*
X182337Y411927D01*
X181817Y411026D01*
X181547Y410020D01*
Y408980D01*
X181817Y407974D01*
X182337Y407073D01*
X183073Y406337D01*
X183974Y405817D01*
X184980Y405547D01*
X186020D01*
X187026Y405817D01*
X187927Y406337D01*
X188663Y407073D01*
X189183Y407974D01*
X189453Y408980D01*
Y410020D01*
X189183Y411026D01*
X188663Y411927D01*
X187927Y412663D01*
X187026Y413183D01*
X186020Y413453D01*
D02*
G37*
G36*
X176020D02*
X174980D01*
X173974Y413183D01*
X173073Y412663D01*
X172337Y411927D01*
X171817Y411026D01*
X171547Y410020D01*
Y408980D01*
X171817Y407974D01*
X172337Y407073D01*
X173073Y406337D01*
X173974Y405817D01*
X174980Y405547D01*
X176020D01*
X177026Y405817D01*
X177927Y406337D01*
X178663Y407073D01*
X179183Y407974D01*
X179453Y408980D01*
Y410020D01*
X179183Y411026D01*
X178663Y411927D01*
X177927Y412663D01*
X177026Y413183D01*
X176020Y413453D01*
D02*
G37*
G36*
X139453D02*
X131547D01*
Y405547D01*
X139453D01*
Y413453D01*
D02*
G37*
G36*
X186020Y399953D02*
X184980D01*
X183974Y399683D01*
X183073Y399163D01*
X182337Y398427D01*
X181817Y397526D01*
X181547Y396520D01*
Y395480D01*
X181817Y394474D01*
X182337Y393573D01*
X183073Y392837D01*
X183974Y392317D01*
X184980Y392047D01*
X186020D01*
X187026Y392317D01*
X187927Y392837D01*
X188663Y393573D01*
X189183Y394474D01*
X189453Y395480D01*
Y396520D01*
X189183Y397526D01*
X188663Y398427D01*
X187927Y399163D01*
X187026Y399683D01*
X186020Y399953D01*
D02*
G37*
G36*
X176020D02*
X174980D01*
X173974Y399683D01*
X173073Y399163D01*
X172337Y398427D01*
X171817Y397526D01*
X171547Y396520D01*
Y395480D01*
X171817Y394474D01*
X172337Y393573D01*
X173073Y392837D01*
X173974Y392317D01*
X174980Y392047D01*
X176020D01*
X177026Y392317D01*
X177927Y392837D01*
X178663Y393573D01*
X179183Y394474D01*
X179453Y395480D01*
Y396520D01*
X179183Y397526D01*
X178663Y398427D01*
X177927Y399163D01*
X177026Y399683D01*
X176020Y399953D01*
D02*
G37*
G36*
X166020Y413453D02*
X164980D01*
X163974Y413183D01*
X163073Y412663D01*
X162337Y411927D01*
X161817Y411026D01*
X161547Y410020D01*
Y408980D01*
X161817Y407974D01*
X162337Y407073D01*
X163073Y406337D01*
X163971Y405819D01*
Y399681D01*
X163073Y399163D01*
X162337Y398427D01*
X161817Y397526D01*
X161547Y396520D01*
Y395480D01*
X161817Y394474D01*
X162337Y393573D01*
X163073Y392837D01*
X163974Y392317D01*
X164980Y392047D01*
X166020D01*
X167026Y392317D01*
X167927Y392837D01*
X168663Y393573D01*
X169183Y394474D01*
X169453Y395480D01*
Y396520D01*
X169183Y397526D01*
X168663Y398427D01*
X167927Y399163D01*
X167029Y399681D01*
Y405819D01*
X167927Y406337D01*
X168663Y407073D01*
X169183Y407974D01*
X169453Y408980D01*
Y410020D01*
X169183Y411026D01*
X168663Y411927D01*
X167927Y412663D01*
X167026Y413183D01*
X166020Y413453D01*
D02*
G37*
G36*
X156020D02*
X154980D01*
X153974Y413183D01*
X153073Y412663D01*
X152337Y411927D01*
X151817Y411026D01*
X151547Y410020D01*
Y408980D01*
X151817Y407974D01*
X152337Y407073D01*
X153073Y406337D01*
X153971Y405819D01*
Y399681D01*
X153073Y399163D01*
X152337Y398427D01*
X151817Y397526D01*
X151547Y396520D01*
Y395480D01*
X151817Y394474D01*
X152337Y393573D01*
X153073Y392837D01*
X153974Y392317D01*
X154980Y392047D01*
X156020D01*
X157026Y392317D01*
X157927Y392837D01*
X158663Y393573D01*
X159183Y394474D01*
X159453Y395480D01*
Y396520D01*
X159183Y397526D01*
X158663Y398427D01*
X157927Y399163D01*
X157029Y399681D01*
Y405819D01*
X157927Y406337D01*
X158663Y407073D01*
X159183Y407974D01*
X159453Y408980D01*
Y410020D01*
X159183Y411026D01*
X158663Y411927D01*
X157927Y412663D01*
X157026Y413183D01*
X156020Y413453D01*
D02*
G37*
G36*
X146020D02*
X144980D01*
X143974Y413183D01*
X143073Y412663D01*
X142337Y411927D01*
X141817Y411026D01*
X141547Y410020D01*
Y408980D01*
X141817Y407974D01*
X142337Y407073D01*
X143073Y406337D01*
X143971Y405819D01*
Y399681D01*
X143073Y399163D01*
X142337Y398427D01*
X141817Y397526D01*
X141547Y396520D01*
Y395480D01*
X141817Y394474D01*
X142337Y393573D01*
X143073Y392837D01*
X143974Y392317D01*
X144980Y392047D01*
X146020D01*
X147026Y392317D01*
X147927Y392837D01*
X148663Y393573D01*
X149183Y394474D01*
X149453Y395480D01*
Y396520D01*
X149183Y397526D01*
X148663Y398427D01*
X147927Y399163D01*
X147029Y399681D01*
Y405819D01*
X147927Y406337D01*
X148663Y407073D01*
X149183Y407974D01*
X149453Y408980D01*
Y410020D01*
X149183Y411026D01*
X148663Y411927D01*
X147927Y412663D01*
X147026Y413183D01*
X146020Y413453D01*
D02*
G37*
G36*
X139453Y399953D02*
X131547D01*
Y392047D01*
X139453D01*
Y399953D01*
D02*
G37*
G36*
X400843Y394262D02*
X399957D01*
X399102Y394033D01*
X398336Y393590D01*
X397710Y392964D01*
X397267Y392198D01*
X397038Y391343D01*
Y390457D01*
X397267Y389602D01*
X397710Y388836D01*
X398336Y388210D01*
X399102Y387767D01*
X399957Y387538D01*
X400843D01*
X401698Y387767D01*
X402464Y388210D01*
X403090Y388836D01*
X403533Y389602D01*
X403762Y390457D01*
Y391343D01*
X403533Y392198D01*
X403090Y392964D01*
X402464Y393590D01*
X401698Y394033D01*
X400843Y394262D01*
D02*
G37*
G36*
X589571Y413402D02*
X587461D01*
X585378Y413072D01*
X583371Y412420D01*
X581492Y411462D01*
X579785Y410222D01*
X578294Y408731D01*
X577054Y407024D01*
X576096Y405144D01*
X575444Y403138D01*
X575114Y401055D01*
Y398945D01*
X575444Y396862D01*
X576096Y394856D01*
X577054Y392976D01*
X578294Y391269D01*
X579785Y389778D01*
X581492Y388538D01*
X583371Y387580D01*
X585378Y386928D01*
X587461Y386598D01*
X589571D01*
X591654Y386928D01*
X593660Y387580D01*
X595540Y388538D01*
X597246Y389778D01*
X598738Y391269D01*
X599978Y392976D01*
X600936Y394856D01*
X601587Y396862D01*
X601917Y398945D01*
Y401055D01*
X601587Y403138D01*
X600936Y405144D01*
X599978Y407024D01*
X598738Y408731D01*
X597246Y410222D01*
X595540Y411462D01*
X593660Y412420D01*
X591654Y413072D01*
X589571Y413402D01*
D02*
G37*
G36*
X100555D02*
X98445D01*
X96362Y413072D01*
X94356Y412420D01*
X92476Y411462D01*
X90769Y410222D01*
X89278Y408731D01*
X88038Y407024D01*
X87080Y405144D01*
X86428Y403138D01*
X86098Y401055D01*
Y398945D01*
X86428Y396862D01*
X87080Y394856D01*
X88038Y392976D01*
X89278Y391269D01*
X90769Y389778D01*
X92476Y388538D01*
X94356Y387580D01*
X96362Y386928D01*
X98445Y386598D01*
X100555D01*
X102638Y386928D01*
X104644Y387580D01*
X106524Y388538D01*
X108230Y389778D01*
X109722Y391269D01*
X110962Y392976D01*
X111920Y394856D01*
X112572Y396862D01*
X112902Y398945D01*
Y401055D01*
X112572Y403138D01*
X111920Y405144D01*
X110962Y407024D01*
X109722Y408731D01*
X108230Y410222D01*
X106524Y411462D01*
X104644Y412420D01*
X102638Y413072D01*
X100555Y413402D01*
D02*
G37*
G36*
X422353Y390853D02*
X414447D01*
Y382947D01*
X422353D01*
Y390853D01*
D02*
G37*
G36*
X492033Y387051D02*
X490967D01*
X489936Y386775D01*
X489012Y386242D01*
X488258Y385488D01*
X487725Y384564D01*
X487449Y383533D01*
Y382467D01*
X487725Y381436D01*
X488258Y380512D01*
X489012Y379758D01*
X489936Y379225D01*
X490967Y378949D01*
X492033D01*
X493064Y379225D01*
X493988Y379758D01*
X494742Y380512D01*
X495275Y381436D01*
X495551Y382467D01*
Y383533D01*
X495275Y384564D01*
X494742Y385488D01*
X493988Y386242D01*
X493064Y386775D01*
X492033Y387051D01*
D02*
G37*
G36*
X555533Y386551D02*
X554467D01*
X553436Y386275D01*
X552513Y385742D01*
X551758Y384987D01*
X551225Y384064D01*
X550949Y383033D01*
Y381967D01*
X551225Y380936D01*
X551758Y380012D01*
X552513Y379258D01*
X553436Y378725D01*
X554467Y378449D01*
X555533D01*
X556564Y378725D01*
X557487Y379258D01*
X558242Y380012D01*
X558775Y380936D01*
X559051Y381967D01*
Y383033D01*
X558775Y384064D01*
X558242Y384987D01*
X557487Y385742D01*
X556564Y386275D01*
X555533Y386551D01*
D02*
G37*
G36*
X523033D02*
X521967D01*
X520936Y386275D01*
X520013Y385742D01*
X519258Y384987D01*
X518725Y384064D01*
X518449Y383033D01*
Y381967D01*
X518725Y380936D01*
X519258Y380012D01*
X520013Y379258D01*
X520936Y378725D01*
X521967Y378449D01*
X523033D01*
X524064Y378725D01*
X524988Y379258D01*
X525742Y380012D01*
X526275Y380936D01*
X526551Y381967D01*
Y383033D01*
X526275Y384064D01*
X525742Y384987D01*
X524988Y385742D01*
X524064Y386275D01*
X523033Y386551D01*
D02*
G37*
G36*
X418920Y380853D02*
X417880D01*
X416874Y380583D01*
X415973Y380063D01*
X415237Y379327D01*
X414717Y378426D01*
X414447Y377420D01*
Y376380D01*
X414717Y375374D01*
X415237Y374473D01*
X415973Y373737D01*
X416874Y373217D01*
X417880Y372947D01*
X418920D01*
X419926Y373217D01*
X420827Y373737D01*
X421563Y374473D01*
X422083Y375374D01*
X422353Y376380D01*
Y377420D01*
X422083Y378426D01*
X421563Y379327D01*
X420827Y380063D01*
X419926Y380583D01*
X418920Y380853D01*
D02*
G37*
G36*
X492033Y377051D02*
X490967D01*
X489936Y376775D01*
X489012Y376242D01*
X488258Y375487D01*
X487725Y374564D01*
X487449Y373533D01*
Y372467D01*
X487725Y371436D01*
X487743Y371406D01*
X481919Y365581D01*
X481587Y365085D01*
X481471Y364500D01*
Y338954D01*
X480694Y338506D01*
X479994Y337806D01*
X479500Y336950D01*
X479244Y335995D01*
Y335005D01*
X479500Y334050D01*
X479994Y333194D01*
X480694Y332494D01*
X481550Y332000D01*
X482506Y331744D01*
X483495D01*
X484450Y332000D01*
X485306Y332494D01*
X486005Y333194D01*
X486500Y334050D01*
X486756Y335005D01*
Y335995D01*
X486500Y336950D01*
X486005Y337806D01*
X485306Y338506D01*
X484529Y338954D01*
Y363866D01*
X489906Y369243D01*
X489936Y369225D01*
X490967Y368949D01*
X492033D01*
X493064Y369225D01*
X493988Y369758D01*
X494742Y370513D01*
X495275Y371436D01*
X495551Y372467D01*
Y373533D01*
X495275Y374564D01*
X494742Y375487D01*
X493988Y376242D01*
X493064Y376775D01*
X492033Y377051D01*
D02*
G37*
G36*
X555533Y376551D02*
X554467D01*
X553436Y376275D01*
X552513Y375742D01*
X551758Y374988D01*
X551225Y374064D01*
X550949Y373033D01*
Y371967D01*
X551225Y370936D01*
X551243Y370905D01*
X491866Y311529D01*
X485954D01*
X485505Y312306D01*
X484806Y313005D01*
X483950Y313500D01*
X482995Y313756D01*
X482006D01*
X481050Y313500D01*
X480194Y313005D01*
X479494Y312306D01*
X479000Y311450D01*
X478744Y310494D01*
Y309506D01*
X479000Y308550D01*
X479494Y307694D01*
X480194Y306995D01*
X481050Y306500D01*
X482006Y306244D01*
X482995D01*
X483950Y306500D01*
X484806Y306995D01*
X485505Y307694D01*
X485954Y308471D01*
X492500D01*
X493085Y308587D01*
X493581Y308919D01*
X553406Y368743D01*
X553436Y368725D01*
X554467Y368449D01*
X555533D01*
X556564Y368725D01*
X557487Y369258D01*
X558242Y370012D01*
X558775Y370936D01*
X559051Y371967D01*
Y373033D01*
X558775Y374064D01*
X558242Y374988D01*
X557487Y375742D01*
X556564Y376275D01*
X555533Y376551D01*
D02*
G37*
G36*
X418920Y370853D02*
X418900D01*
Y367400D01*
X422353D01*
Y367420D01*
X422083Y368426D01*
X421563Y369327D01*
X420827Y370063D01*
X419926Y370583D01*
X418920Y370853D01*
D02*
G37*
G36*
X417900D02*
X417880D01*
X416874Y370583D01*
X415973Y370063D01*
X415237Y369327D01*
X414717Y368426D01*
X414447Y367420D01*
Y367400D01*
X417900D01*
Y370853D01*
D02*
G37*
G36*
X422353Y366400D02*
X418900D01*
Y362947D01*
X418920D01*
X419926Y363217D01*
X420827Y363737D01*
X421563Y364473D01*
X422083Y365374D01*
X422353Y366380D01*
Y366400D01*
D02*
G37*
G36*
X417900D02*
X414447D01*
Y366380D01*
X414717Y365374D01*
X415237Y364473D01*
X415973Y363737D01*
X416874Y363217D01*
X417880Y362947D01*
X417900D01*
Y366400D01*
D02*
G37*
G36*
X400900Y364247D02*
Y361400D01*
X403747D01*
X403533Y362198D01*
X403090Y362964D01*
X402464Y363590D01*
X401698Y364033D01*
X400900Y364247D01*
D02*
G37*
G36*
X399900D02*
X399102Y364033D01*
X398336Y363590D01*
X397710Y362964D01*
X397267Y362198D01*
X397053Y361400D01*
X399900D01*
Y364247D01*
D02*
G37*
G36*
X403747Y360400D02*
X400900D01*
Y357553D01*
X401698Y357767D01*
X402464Y358210D01*
X403090Y358836D01*
X403533Y359602D01*
X403747Y360400D01*
D02*
G37*
G36*
X399900D02*
X397053D01*
X397267Y359602D01*
X397710Y358836D01*
X398336Y358210D01*
X399102Y357767D01*
X399900Y357553D01*
Y360400D01*
D02*
G37*
G36*
X356299Y368700D02*
X355019D01*
X353763Y368450D01*
X352580Y367960D01*
X351516Y367249D01*
X350610Y366343D01*
X349899Y365279D01*
X349409Y364096D01*
X349159Y362840D01*
Y361560D01*
X349409Y360304D01*
X349899Y359121D01*
X350610Y358056D01*
X351516Y357151D01*
X352580Y356440D01*
X353763Y355950D01*
X355019Y355700D01*
X356299D01*
X357555Y355950D01*
X358738Y356440D01*
X359803Y357151D01*
X360708Y358056D01*
X361419Y359121D01*
X361909Y360304D01*
X362159Y361560D01*
Y362840D01*
X361909Y364096D01*
X361419Y365279D01*
X360708Y366343D01*
X359803Y367249D01*
X358738Y367960D01*
X357555Y368450D01*
X356299Y368700D01*
D02*
G37*
G36*
X328740D02*
X327460D01*
X326204Y368450D01*
X325021Y367960D01*
X323956Y367249D01*
X323051Y366343D01*
X322340Y365279D01*
X321850Y364096D01*
X321600Y362840D01*
Y361560D01*
X321850Y360304D01*
X322340Y359121D01*
X323051Y358056D01*
X323956Y357151D01*
X325021Y356440D01*
X326204Y355950D01*
X327460Y355700D01*
X328740D01*
X329996Y355950D01*
X330314Y356081D01*
X336451Y349944D01*
Y338206D01*
X336310Y338064D01*
X335867Y337298D01*
X335638Y336443D01*
Y335557D01*
X335867Y334702D01*
X336310Y333936D01*
X336936Y333310D01*
X337702Y332867D01*
X338557Y332638D01*
X339443D01*
X340298Y332867D01*
X341064Y333310D01*
X341690Y333936D01*
X342133Y334702D01*
X342362Y335557D01*
Y336443D01*
X342133Y337298D01*
X341690Y338064D01*
X341549Y338206D01*
Y351000D01*
X341355Y351975D01*
X340802Y352802D01*
X334043Y359562D01*
X334350Y360304D01*
X334600Y361560D01*
Y362840D01*
X334350Y364096D01*
X333860Y365279D01*
X333149Y366343D01*
X332243Y367249D01*
X331179Y367960D01*
X329996Y368450D01*
X328740Y368700D01*
D02*
G37*
G36*
X309443Y339362D02*
X308557D01*
X307702Y339133D01*
X306936Y338690D01*
X306310Y338064D01*
X305867Y337298D01*
X305638Y336443D01*
Y335557D01*
X305867Y334702D01*
X306310Y333936D01*
X306936Y333310D01*
X307702Y332867D01*
X308557Y332638D01*
X309443D01*
X310298Y332867D01*
X311064Y333310D01*
X311690Y333936D01*
X312133Y334702D01*
X312362Y335557D01*
Y336443D01*
X312133Y337298D01*
X311690Y338064D01*
X311064Y338690D01*
X310298Y339133D01*
X309443Y339362D01*
D02*
G37*
G36*
X443495Y339256D02*
X442506D01*
X441550Y339000D01*
X440694Y338506D01*
X439994Y337806D01*
X439500Y336950D01*
X439244Y335995D01*
Y335005D01*
X439500Y334050D01*
X439994Y333194D01*
X440694Y332494D01*
X441550Y332000D01*
X442506Y331744D01*
X443495D01*
X444450Y332000D01*
X445306Y332494D01*
X446005Y333194D01*
X446500Y334050D01*
X446756Y335005D01*
Y335995D01*
X446500Y336950D01*
X446005Y337806D01*
X445306Y338506D01*
X444450Y339000D01*
X443495Y339256D01*
D02*
G37*
G36*
X523033Y376551D02*
X521967D01*
X520936Y376275D01*
X520013Y375742D01*
X519258Y374988D01*
X518725Y374064D01*
X518449Y373033D01*
Y371967D01*
X518725Y370936D01*
X519258Y370012D01*
X520013Y369258D01*
X520936Y368725D01*
X520971Y368716D01*
Y363134D01*
X483861Y326024D01*
X482995Y326256D01*
X482006D01*
X481050Y326000D01*
X480194Y325505D01*
X479494Y324806D01*
X479000Y323950D01*
X478744Y322994D01*
Y322006D01*
X479000Y321050D01*
X479494Y320194D01*
X480194Y319495D01*
X481050Y319000D01*
X482006Y318744D01*
X482995D01*
X483950Y319000D01*
X484806Y319495D01*
X485505Y320194D01*
X486000Y321050D01*
X486256Y322006D01*
Y322994D01*
X486024Y323861D01*
X523581Y361419D01*
X523913Y361915D01*
X524029Y362500D01*
Y368716D01*
X524064Y368725D01*
X524988Y369258D01*
X525742Y370012D01*
X526275Y370936D01*
X526551Y371967D01*
Y373033D01*
X526275Y374064D01*
X525742Y374988D01*
X524988Y375742D01*
X524064Y376275D01*
X523033Y376551D01*
D02*
G37*
G36*
X442994Y326256D02*
X442005D01*
X441050Y326000D01*
X440194Y325505D01*
X439495Y324806D01*
X439000Y323950D01*
X438744Y322994D01*
Y322006D01*
X439000Y321050D01*
X439495Y320194D01*
X440194Y319495D01*
X441050Y319000D01*
X442005Y318744D01*
X442994D01*
X443950Y319000D01*
X444806Y319495D01*
X445506Y320194D01*
X446000Y321050D01*
X446256Y322006D01*
Y322994D01*
X446000Y323950D01*
X445506Y324806D01*
X444806Y325505D01*
X443950Y326000D01*
X442994Y326256D01*
D02*
G37*
G36*
X600453Y326453D02*
X592547D01*
Y318547D01*
X600453D01*
Y326453D01*
D02*
G37*
G36*
X597020Y316453D02*
X595980D01*
X594974Y316183D01*
X594073Y315663D01*
X593337Y314927D01*
X592817Y314026D01*
X592547Y313020D01*
Y311980D01*
X592817Y310974D01*
X593337Y310073D01*
X594073Y309337D01*
X594974Y308817D01*
X595980Y308547D01*
X597020D01*
X598026Y308817D01*
X598927Y309337D01*
X599663Y310073D01*
X600183Y310974D01*
X600453Y311980D01*
Y313020D01*
X600183Y314026D01*
X599663Y314927D01*
X598927Y315663D01*
X598026Y316183D01*
X597020Y316453D01*
D02*
G37*
G36*
X442994Y313756D02*
X442005D01*
X441050Y313500D01*
X440194Y313005D01*
X439495Y312306D01*
X439000Y311450D01*
X438744Y310494D01*
Y309506D01*
X439000Y308550D01*
X439495Y307694D01*
X440194Y306995D01*
X441050Y306500D01*
X442005Y306244D01*
X442994D01*
X443950Y306500D01*
X444806Y306995D01*
X445506Y307694D01*
X446000Y308550D01*
X446256Y309506D01*
Y310494D01*
X446000Y311450D01*
X445506Y312306D01*
X444806Y313005D01*
X443950Y313500D01*
X442994Y313756D01*
D02*
G37*
G36*
X268700Y317349D02*
X114300D01*
X113324Y317155D01*
X112498Y316602D01*
X105848Y309953D01*
X104980D01*
X103974Y309683D01*
X103073Y309163D01*
X102337Y308427D01*
X101817Y307526D01*
X101547Y306520D01*
Y305480D01*
X101817Y304474D01*
X102337Y303573D01*
X102951Y302959D01*
Y295541D01*
X102337Y294927D01*
X101817Y294026D01*
X101547Y293020D01*
Y291980D01*
X101817Y290974D01*
X102337Y290073D01*
X103073Y289337D01*
X103974Y288817D01*
X104980Y288547D01*
X106020D01*
X107026Y288817D01*
X107927Y289337D01*
X108663Y290073D01*
X109183Y290974D01*
X109453Y291980D01*
Y293020D01*
X109183Y294026D01*
X108663Y294927D01*
X108049Y295541D01*
Y302959D01*
X108663Y303573D01*
X109183Y304474D01*
X109453Y305480D01*
Y306348D01*
X115356Y312251D01*
X168935D01*
X169126Y311789D01*
X167022Y309684D01*
X166020Y309953D01*
X164980D01*
X163974Y309683D01*
X163073Y309163D01*
X162337Y308427D01*
X161817Y307526D01*
X161547Y306520D01*
Y305480D01*
X161817Y304474D01*
X162337Y303573D01*
X163073Y302837D01*
X163971Y302319D01*
Y296181D01*
X163073Y295663D01*
X162337Y294927D01*
X161817Y294026D01*
X161547Y293020D01*
Y291980D01*
X161817Y290974D01*
X162337Y290073D01*
X163073Y289337D01*
X163974Y288817D01*
X164980Y288547D01*
X166020D01*
X167026Y288817D01*
X167927Y289337D01*
X168663Y290073D01*
X169183Y290974D01*
X169453Y291980D01*
Y293020D01*
X169183Y294026D01*
X168663Y294927D01*
X167927Y295663D01*
X167029Y296181D01*
Y302319D01*
X167927Y302837D01*
X168663Y303573D01*
X169183Y304474D01*
X169453Y305480D01*
Y306520D01*
X169185Y307522D01*
X171933Y310271D01*
X174234D01*
X174300Y309771D01*
X173974Y309683D01*
X173073Y309163D01*
X172337Y308427D01*
X171817Y307526D01*
X171547Y306520D01*
Y305480D01*
X171817Y304474D01*
X172337Y303573D01*
X173073Y302837D01*
X173971Y302319D01*
Y296181D01*
X173073Y295663D01*
X172337Y294927D01*
X171817Y294026D01*
X171547Y293020D01*
Y291980D01*
X171817Y290974D01*
X172337Y290073D01*
X173073Y289337D01*
X173971Y288819D01*
Y263633D01*
X157539Y247202D01*
X156943Y247362D01*
X156057D01*
X155461Y247202D01*
X143081Y259581D01*
X142585Y259913D01*
X142000Y260029D01*
X125454D01*
X125005Y260806D01*
X124306Y261506D01*
X123450Y262000D01*
X122494Y262256D01*
X121505D01*
X120550Y262000D01*
X119694Y261506D01*
X118994Y260806D01*
X118500Y259950D01*
X118244Y258995D01*
Y258005D01*
X118500Y257050D01*
X118994Y256194D01*
X119694Y255494D01*
X120550Y255000D01*
X121505Y254744D01*
X122494D01*
X123450Y255000D01*
X124306Y255494D01*
X125005Y256194D01*
X125454Y256971D01*
X141367D01*
X153298Y245039D01*
X153138Y244443D01*
Y243557D01*
X153367Y242702D01*
X153810Y241936D01*
X154436Y241310D01*
X155202Y240867D01*
X156057Y240638D01*
X156943D01*
X157798Y240867D01*
X158564Y241310D01*
X159190Y241936D01*
X159633Y242702D01*
X159862Y243557D01*
Y244443D01*
X159702Y245039D01*
X176581Y261919D01*
X176913Y262415D01*
X177029Y263000D01*
Y288819D01*
X177927Y289337D01*
X178471Y289881D01*
X178971Y289673D01*
Y273000D01*
X179087Y272415D01*
X179419Y271919D01*
X192976Y258361D01*
X192744Y257494D01*
Y256505D01*
X193000Y255550D01*
X193494Y254694D01*
X194194Y253994D01*
X195050Y253500D01*
X196005Y253244D01*
X196994D01*
X197950Y253500D01*
X198806Y253994D01*
X199505Y254694D01*
X199954Y255471D01*
X217367D01*
X228298Y244539D01*
X228138Y243943D01*
Y243057D01*
X228367Y242202D01*
X228810Y241436D01*
X229436Y240810D01*
X230202Y240367D01*
X231057Y240138D01*
X231943D01*
X232798Y240367D01*
X233564Y240810D01*
X234190Y241436D01*
X234633Y242202D01*
X234862Y243057D01*
Y243943D01*
X234633Y244798D01*
X234190Y245564D01*
X233564Y246190D01*
X232798Y246633D01*
X231943Y246862D01*
X231057D01*
X230461Y246702D01*
X219081Y258081D01*
X218585Y258413D01*
X218000Y258529D01*
X199954D01*
X199505Y259306D01*
X198806Y260005D01*
X197950Y260500D01*
X196994Y260756D01*
X196005D01*
X195139Y260524D01*
X182029Y273634D01*
Y289673D01*
X182529Y289881D01*
X183073Y289337D01*
X183974Y288817D01*
X184980Y288547D01*
X186020D01*
X187026Y288817D01*
X187927Y289337D01*
X188663Y290073D01*
X189183Y290974D01*
X189453Y291980D01*
Y293020D01*
X189183Y294026D01*
X188663Y294927D01*
X187927Y295663D01*
X187026Y296183D01*
X186020Y296453D01*
X184980D01*
X183974Y296183D01*
X183073Y295663D01*
X182529Y295119D01*
X182029Y295326D01*
Y303173D01*
X182529Y303381D01*
X183073Y302837D01*
X183974Y302317D01*
X184980Y302047D01*
X186020D01*
X187026Y302317D01*
X187927Y302837D01*
X188663Y303573D01*
X189183Y304474D01*
X189453Y305480D01*
Y306520D01*
X189183Y307526D01*
X188663Y308427D01*
X187927Y309163D01*
X187026Y309683D01*
X186020Y309953D01*
X184980D01*
X183974Y309683D01*
X183073Y309163D01*
X182501Y308591D01*
X181963Y308732D01*
X181913Y308985D01*
X181581Y309481D01*
X179274Y311789D01*
X179465Y312251D01*
X267644D01*
X272500Y307395D01*
Y307039D01*
X272739Y306149D01*
X273199Y305351D01*
X273851Y304699D01*
X274649Y304239D01*
X275539Y304000D01*
X276461D01*
X277351Y304239D01*
X278149Y304699D01*
X278801Y305351D01*
X279261Y306149D01*
X279500Y307039D01*
Y307961D01*
X279261Y308851D01*
X278801Y309649D01*
X278149Y310301D01*
X277351Y310761D01*
X276461Y311000D01*
X276105D01*
X270502Y316602D01*
X269675Y317155D01*
X268700Y317349D01*
D02*
G37*
G36*
X246020Y309953D02*
X244980D01*
X243974Y309683D01*
X243073Y309163D01*
X242337Y308427D01*
X241817Y307526D01*
X241547Y306520D01*
Y305480D01*
X241817Y304474D01*
X242337Y303573D01*
X243073Y302837D01*
X243974Y302317D01*
X244980Y302047D01*
X246020D01*
X247026Y302317D01*
X247927Y302837D01*
X248663Y303573D01*
X249183Y304474D01*
X249453Y305480D01*
Y306520D01*
X249183Y307526D01*
X248663Y308427D01*
X247927Y309163D01*
X247026Y309683D01*
X246020Y309953D01*
D02*
G37*
G36*
X236020D02*
X234980D01*
X233974Y309683D01*
X233073Y309163D01*
X232337Y308427D01*
X231817Y307526D01*
X231547Y306520D01*
Y305480D01*
X231817Y304474D01*
X232337Y303573D01*
X233073Y302837D01*
X233974Y302317D01*
X234980Y302047D01*
X236020D01*
X237026Y302317D01*
X237927Y302837D01*
X238663Y303573D01*
X239183Y304474D01*
X239453Y305480D01*
Y306520D01*
X239183Y307526D01*
X238663Y308427D01*
X237927Y309163D01*
X237026Y309683D01*
X236020Y309953D01*
D02*
G37*
G36*
X226020D02*
X224980D01*
X223974Y309683D01*
X223073Y309163D01*
X222337Y308427D01*
X221817Y307526D01*
X221547Y306520D01*
Y305480D01*
X221817Y304474D01*
X222337Y303573D01*
X223073Y302837D01*
X223974Y302317D01*
X224980Y302047D01*
X226020D01*
X227026Y302317D01*
X227927Y302837D01*
X228663Y303573D01*
X229183Y304474D01*
X229453Y305480D01*
Y306520D01*
X229183Y307526D01*
X228663Y308427D01*
X227927Y309163D01*
X227026Y309683D01*
X226020Y309953D01*
D02*
G37*
G36*
X156020D02*
X154980D01*
X153974Y309683D01*
X153073Y309163D01*
X152337Y308427D01*
X151817Y307526D01*
X151547Y306520D01*
Y305480D01*
X151817Y304474D01*
X152337Y303573D01*
X153073Y302837D01*
X153974Y302317D01*
X154980Y302047D01*
X156020D01*
X157026Y302317D01*
X157927Y302837D01*
X158663Y303573D01*
X159183Y304474D01*
X159453Y305480D01*
Y306520D01*
X159183Y307526D01*
X158663Y308427D01*
X157927Y309163D01*
X157026Y309683D01*
X156020Y309953D01*
D02*
G37*
G36*
X146020D02*
X144980D01*
X143974Y309683D01*
X143073Y309163D01*
X142337Y308427D01*
X141817Y307526D01*
X141547Y306520D01*
Y305480D01*
X141817Y304474D01*
X142337Y303573D01*
X143073Y302837D01*
X143974Y302317D01*
X144980Y302047D01*
X146020D01*
X147026Y302317D01*
X147927Y302837D01*
X148663Y303573D01*
X149183Y304474D01*
X149453Y305480D01*
Y306520D01*
X149183Y307526D01*
X148663Y308427D01*
X147927Y309163D01*
X147026Y309683D01*
X146020Y309953D01*
D02*
G37*
G36*
X126020D02*
X124980D01*
X123974Y309683D01*
X123073Y309163D01*
X122337Y308427D01*
X121817Y307526D01*
X121547Y306520D01*
Y305480D01*
X121817Y304474D01*
X122337Y303573D01*
X123073Y302837D01*
X123974Y302317D01*
X124980Y302047D01*
X126020D01*
X127026Y302317D01*
X127927Y302837D01*
X128663Y303573D01*
X129183Y304474D01*
X129453Y305480D01*
Y306520D01*
X129183Y307526D01*
X128663Y308427D01*
X127927Y309163D01*
X127026Y309683D01*
X126020Y309953D01*
D02*
G37*
G36*
X116020D02*
X114980D01*
X113974Y309683D01*
X113073Y309163D01*
X112337Y308427D01*
X111817Y307526D01*
X111547Y306520D01*
Y305480D01*
X111817Y304474D01*
X112337Y303573D01*
X113073Y302837D01*
X113974Y302317D01*
X114980Y302047D01*
X116020D01*
X117026Y302317D01*
X117927Y302837D01*
X118663Y303573D01*
X119183Y304474D01*
X119453Y305480D01*
Y306520D01*
X119183Y307526D01*
X118663Y308427D01*
X117927Y309163D01*
X117026Y309683D01*
X116020Y309953D01*
D02*
G37*
G36*
X359961Y310500D02*
X359039D01*
X358149Y310262D01*
X357351Y309801D01*
X356699Y309149D01*
X356239Y308351D01*
X356000Y307461D01*
Y306539D01*
X356239Y305649D01*
X356699Y304851D01*
X357351Y304199D01*
X358149Y303738D01*
X359039Y303500D01*
X359936D01*
X362739Y300698D01*
X363566Y300145D01*
X364541Y299951D01*
X593459D01*
X594073Y299337D01*
X594974Y298817D01*
X595980Y298547D01*
X597020D01*
X598026Y298817D01*
X598927Y299337D01*
X599663Y300073D01*
X600183Y300974D01*
X600453Y301980D01*
Y303020D01*
X600183Y304026D01*
X599663Y304927D01*
X598927Y305663D01*
X598026Y306183D01*
X597020Y306453D01*
X595980D01*
X594974Y306183D01*
X594073Y305663D01*
X593459Y305049D01*
X365597D01*
X362932Y307714D01*
X362761Y308351D01*
X362301Y309149D01*
X361649Y309801D01*
X360851Y310262D01*
X359961Y310500D01*
D02*
G37*
G36*
X597020Y296453D02*
X595980D01*
X594974Y296183D01*
X594073Y295663D01*
X593337Y294927D01*
X592819Y294029D01*
X493000D01*
X492415Y293913D01*
X491919Y293581D01*
X460361Y262024D01*
X459494Y262256D01*
X458505D01*
X457550Y262000D01*
X456694Y261506D01*
X455995Y260806D01*
X455546Y260029D01*
X447634D01*
X438081Y269581D01*
X437585Y269913D01*
X437000Y270029D01*
X422454D01*
X422006Y270806D01*
X421306Y271505D01*
X420450Y272000D01*
X419494Y272256D01*
X418505D01*
X417550Y272000D01*
X416694Y271505D01*
X415995Y270806D01*
X415500Y269950D01*
X415244Y268994D01*
Y268005D01*
X415500Y267050D01*
X415995Y266194D01*
X416694Y265494D01*
X417550Y265000D01*
X418505Y264744D01*
X419494D01*
X420450Y265000D01*
X421306Y265494D01*
X422006Y266194D01*
X422454Y266971D01*
X436367D01*
X445919Y257419D01*
X446415Y257087D01*
X447000Y256971D01*
X455546D01*
X455995Y256194D01*
X456694Y255494D01*
X457550Y255000D01*
X458505Y254744D01*
X459494D01*
X460450Y255000D01*
X461306Y255494D01*
X462006Y256194D01*
X462500Y257050D01*
X462756Y258005D01*
Y258995D01*
X462524Y259861D01*
X493634Y290971D01*
X592819D01*
X593337Y290073D01*
X594073Y289337D01*
X594974Y288817D01*
X595980Y288547D01*
X597020D01*
X598026Y288817D01*
X598927Y289337D01*
X599663Y290073D01*
X600183Y290974D01*
X600453Y291980D01*
Y293020D01*
X600183Y294026D01*
X599663Y294927D01*
X598927Y295663D01*
X598026Y296183D01*
X597020Y296453D01*
D02*
G37*
G36*
X246020D02*
X244980D01*
X243974Y296183D01*
X243073Y295663D01*
X242337Y294927D01*
X241817Y294026D01*
X241547Y293020D01*
Y291980D01*
X241817Y290974D01*
X242337Y290073D01*
X243073Y289337D01*
X243974Y288817D01*
X244980Y288547D01*
X246020D01*
X247026Y288817D01*
X247927Y289337D01*
X248663Y290073D01*
X249183Y290974D01*
X249453Y291980D01*
Y293020D01*
X249183Y294026D01*
X248663Y294927D01*
X247927Y295663D01*
X247026Y296183D01*
X246020Y296453D01*
D02*
G37*
G36*
X236020D02*
X234980D01*
X233974Y296183D01*
X233073Y295663D01*
X232337Y294927D01*
X231817Y294026D01*
X231547Y293020D01*
Y291980D01*
X231817Y290974D01*
X232337Y290073D01*
X233073Y289337D01*
X233974Y288817D01*
X234980Y288547D01*
X236020D01*
X237026Y288817D01*
X237927Y289337D01*
X238663Y290073D01*
X239183Y290974D01*
X239453Y291980D01*
Y293020D01*
X239183Y294026D01*
X238663Y294927D01*
X237927Y295663D01*
X237026Y296183D01*
X236020Y296453D01*
D02*
G37*
G36*
X226020D02*
X224980D01*
X223974Y296183D01*
X223073Y295663D01*
X222337Y294927D01*
X221817Y294026D01*
X221547Y293020D01*
Y291980D01*
X221817Y290974D01*
X222337Y290073D01*
X223073Y289337D01*
X223974Y288817D01*
X224980Y288547D01*
X226020D01*
X227026Y288817D01*
X227927Y289337D01*
X228663Y290073D01*
X229183Y290974D01*
X229453Y291980D01*
Y293020D01*
X229183Y294026D01*
X228663Y294927D01*
X227927Y295663D01*
X227026Y296183D01*
X226020Y296453D01*
D02*
G37*
G36*
X156020D02*
X154980D01*
X153974Y296183D01*
X153073Y295663D01*
X152337Y294927D01*
X151817Y294026D01*
X151547Y293020D01*
Y291980D01*
X151817Y290974D01*
X152337Y290073D01*
X153073Y289337D01*
X153974Y288817D01*
X154980Y288547D01*
X156020D01*
X157026Y288817D01*
X157927Y289337D01*
X158663Y290073D01*
X159183Y290974D01*
X159453Y291980D01*
Y293020D01*
X159183Y294026D01*
X158663Y294927D01*
X157927Y295663D01*
X157026Y296183D01*
X156020Y296453D01*
D02*
G37*
G36*
X146020D02*
X144980D01*
X143974Y296183D01*
X143073Y295663D01*
X142337Y294927D01*
X141817Y294026D01*
X141547Y293020D01*
Y291980D01*
X141817Y290974D01*
X142337Y290073D01*
X143073Y289337D01*
X143974Y288817D01*
X144980Y288547D01*
X146020D01*
X147026Y288817D01*
X147927Y289337D01*
X148663Y290073D01*
X149183Y290974D01*
X149453Y291980D01*
Y293020D01*
X149183Y294026D01*
X148663Y294927D01*
X147927Y295663D01*
X147026Y296183D01*
X146020Y296453D01*
D02*
G37*
G36*
X136020Y309953D02*
X134980D01*
X133974Y309683D01*
X133073Y309163D01*
X132337Y308427D01*
X131817Y307526D01*
X131547Y306520D01*
Y305480D01*
X131817Y304474D01*
X132337Y303573D01*
X133073Y302837D01*
X133971Y302319D01*
Y296181D01*
X133073Y295663D01*
X132337Y294927D01*
X131817Y294026D01*
X131547Y293020D01*
Y291980D01*
X131817Y290974D01*
X132337Y290073D01*
X133073Y289337D01*
X133974Y288817D01*
X134980Y288547D01*
X136020D01*
X137026Y288817D01*
X137927Y289337D01*
X138663Y290073D01*
X139183Y290974D01*
X139453Y291980D01*
Y293020D01*
X139183Y294026D01*
X138663Y294927D01*
X137927Y295663D01*
X137029Y296181D01*
Y302319D01*
X137927Y302837D01*
X138663Y303573D01*
X139183Y304474D01*
X139453Y305480D01*
Y306520D01*
X139183Y307526D01*
X138663Y308427D01*
X137927Y309163D01*
X137026Y309683D01*
X136020Y309953D01*
D02*
G37*
G36*
X126020Y296453D02*
X124980D01*
X123974Y296183D01*
X123073Y295663D01*
X122337Y294927D01*
X121817Y294026D01*
X121547Y293020D01*
Y291980D01*
X121817Y290974D01*
X122337Y290073D01*
X123073Y289337D01*
X123974Y288817D01*
X124980Y288547D01*
X126020D01*
X127026Y288817D01*
X127927Y289337D01*
X128663Y290073D01*
X129183Y290974D01*
X129453Y291980D01*
Y293020D01*
X129183Y294026D01*
X128663Y294927D01*
X127927Y295663D01*
X127026Y296183D01*
X126020Y296453D01*
D02*
G37*
G36*
X116020D02*
X114980D01*
X113974Y296183D01*
X113073Y295663D01*
X112337Y294927D01*
X111817Y294026D01*
X111547Y293020D01*
Y291980D01*
X111817Y290974D01*
X112337Y290073D01*
X113073Y289337D01*
X113974Y288817D01*
X114980Y288547D01*
X116020D01*
X117026Y288817D01*
X117927Y289337D01*
X118663Y290073D01*
X119183Y290974D01*
X119453Y291980D01*
Y293020D01*
X119183Y294026D01*
X118663Y294927D01*
X117927Y295663D01*
X117026Y296183D01*
X116020Y296453D01*
D02*
G37*
G36*
X99453Y309953D02*
X91547D01*
Y302047D01*
X93971D01*
Y296453D01*
X91547D01*
Y288547D01*
X99453D01*
Y296453D01*
X97029D01*
Y302047D01*
X99453D01*
Y309953D01*
D02*
G37*
G36*
X597020Y286453D02*
X595980D01*
X594974Y286183D01*
X594073Y285663D01*
X593337Y284927D01*
X592819Y284029D01*
X560000D01*
X559415Y283913D01*
X558919Y283581D01*
X537361Y262024D01*
X536494Y262256D01*
X535505D01*
X534550Y262000D01*
X533694Y261506D01*
X532995Y260806D01*
X532546Y260029D01*
X523134D01*
X513081Y270081D01*
X512585Y270413D01*
X512000Y270529D01*
X499454D01*
X499006Y271306D01*
X498306Y272006D01*
X497450Y272500D01*
X496494Y272756D01*
X495506D01*
X494550Y272500D01*
X493694Y272006D01*
X492994Y271306D01*
X492500Y270450D01*
X492244Y269495D01*
Y268506D01*
X492500Y267550D01*
X492994Y266694D01*
X493694Y265995D01*
X494550Y265500D01*
X495506Y265244D01*
X496494D01*
X497450Y265500D01*
X498306Y265995D01*
X499006Y266694D01*
X499454Y267471D01*
X511367D01*
X521419Y257419D01*
X521915Y257087D01*
X522500Y256971D01*
X532546D01*
X532995Y256194D01*
X533694Y255494D01*
X534550Y255000D01*
X535505Y254744D01*
X536494D01*
X537450Y255000D01*
X538306Y255494D01*
X539006Y256194D01*
X539500Y257050D01*
X539756Y258005D01*
Y258995D01*
X539524Y259861D01*
X560634Y280971D01*
X592819D01*
X593337Y280073D01*
X594073Y279337D01*
X594974Y278817D01*
X595980Y278547D01*
X597020D01*
X598026Y278817D01*
X598927Y279337D01*
X599663Y280073D01*
X600183Y280974D01*
X600453Y281980D01*
Y283020D01*
X600183Y284026D01*
X599663Y284927D01*
X598927Y285663D01*
X598026Y286183D01*
X597020Y286453D01*
D02*
G37*
G36*
X216020Y309953D02*
X214980D01*
X213974Y309683D01*
X213073Y309163D01*
X212337Y308427D01*
X211817Y307526D01*
X211547Y306520D01*
Y305480D01*
X211817Y304474D01*
X212337Y303573D01*
X213073Y302837D01*
X213971Y302319D01*
Y296181D01*
X213073Y295663D01*
X212337Y294927D01*
X211817Y294026D01*
X211547Y293020D01*
Y291980D01*
X211817Y290974D01*
X212337Y290073D01*
X213073Y289337D01*
X213974Y288817D01*
X214980Y288547D01*
X216020D01*
X217022Y288815D01*
X228846Y276991D01*
X228654Y276529D01*
X223634D01*
X209185Y290978D01*
X209453Y291980D01*
Y293020D01*
X209183Y294026D01*
X208663Y294927D01*
X207927Y295663D01*
X207029Y296181D01*
Y302319D01*
X207927Y302837D01*
X208663Y303573D01*
X209183Y304474D01*
X209453Y305480D01*
Y306520D01*
X209183Y307526D01*
X208663Y308427D01*
X207927Y309163D01*
X207026Y309683D01*
X206020Y309953D01*
X204980D01*
X203974Y309683D01*
X203073Y309163D01*
X202337Y308427D01*
X201817Y307526D01*
X201547Y306520D01*
Y305480D01*
X201817Y304474D01*
X202337Y303573D01*
X203073Y302837D01*
X203971Y302319D01*
Y296181D01*
X203073Y295663D01*
X202337Y294927D01*
X201817Y294026D01*
X201547Y293020D01*
Y291980D01*
X201817Y290974D01*
X202337Y290073D01*
X203073Y289337D01*
X203974Y288817D01*
X204980Y288547D01*
X206020D01*
X207022Y288815D01*
X220846Y274991D01*
X220654Y274529D01*
X215634D01*
X199185Y290978D01*
X199453Y291980D01*
Y293020D01*
X199183Y294026D01*
X198663Y294927D01*
X197927Y295663D01*
X197029Y296181D01*
Y302319D01*
X197927Y302837D01*
X198663Y303573D01*
X199183Y304474D01*
X199453Y305480D01*
Y306520D01*
X199183Y307526D01*
X198663Y308427D01*
X197927Y309163D01*
X197026Y309683D01*
X196020Y309953D01*
X194980D01*
X193974Y309683D01*
X193073Y309163D01*
X192337Y308427D01*
X191817Y307526D01*
X191547Y306520D01*
Y305480D01*
X191817Y304474D01*
X192337Y303573D01*
X193073Y302837D01*
X193971Y302319D01*
Y296181D01*
X193073Y295663D01*
X192337Y294927D01*
X191817Y294026D01*
X191547Y293020D01*
Y291980D01*
X191817Y290974D01*
X192337Y290073D01*
X193073Y289337D01*
X193974Y288817D01*
X194980Y288547D01*
X196020D01*
X197022Y288815D01*
X213919Y271919D01*
X214415Y271587D01*
X215000Y271471D01*
X234069D01*
X234133Y271232D01*
X234159Y270971D01*
X233494Y270306D01*
X233000Y269450D01*
X232744Y268495D01*
Y267506D01*
X233000Y266550D01*
X233494Y265694D01*
X234194Y264995D01*
X235050Y264500D01*
X236005Y264244D01*
X236995D01*
X237950Y264500D01*
X238806Y264995D01*
X239506Y265694D01*
X240000Y266550D01*
X240256Y267506D01*
Y268495D01*
X240000Y269450D01*
X239754Y269876D01*
X240154Y270183D01*
X265726Y244611D01*
Y194889D01*
X237991Y167154D01*
X237529Y167346D01*
Y177046D01*
X238306Y177495D01*
X239005Y178194D01*
X239500Y179050D01*
X239756Y180006D01*
Y180994D01*
X239500Y181950D01*
X239005Y182806D01*
X238306Y183505D01*
X237450Y184000D01*
X236494Y184256D01*
X235506D01*
X234550Y184000D01*
X233694Y183505D01*
X232995Y182806D01*
X232500Y181950D01*
X232244Y180994D01*
Y180006D01*
X232500Y179050D01*
X232995Y178194D01*
X233694Y177495D01*
X234471Y177046D01*
Y163134D01*
X220367Y149029D01*
X219454D01*
X219005Y149806D01*
X218306Y150505D01*
X217450Y151000D01*
X216494Y151256D01*
X215506D01*
X214550Y151000D01*
X213694Y150505D01*
X212995Y149806D01*
X212500Y148950D01*
X212244Y147994D01*
Y147005D01*
X212500Y146050D01*
X212995Y145194D01*
X213694Y144494D01*
X214550Y144000D01*
X215506Y143744D01*
X216494D01*
X217450Y144000D01*
X218306Y144494D01*
X219005Y145194D01*
X219454Y145971D01*
X221000D01*
X221585Y146087D01*
X222081Y146419D01*
X235708Y160045D01*
X236242Y159872D01*
X236270Y159696D01*
X217361Y140787D01*
X216494Y141020D01*
X215506D01*
X214550Y140764D01*
X213694Y140269D01*
X212995Y139570D01*
X212500Y138714D01*
X212244Y137758D01*
Y136769D01*
X212500Y135814D01*
X212995Y134958D01*
X213694Y134258D01*
X214550Y133764D01*
X215506Y133508D01*
X216494D01*
X217450Y133764D01*
X218306Y134258D01*
X219005Y134958D01*
X219500Y135814D01*
X219756Y136769D01*
Y137758D01*
X219524Y138625D01*
X239081Y158182D01*
X239413Y158678D01*
X239529Y159264D01*
Y164366D01*
X246435Y171272D01*
X246883Y171013D01*
X246744Y170494D01*
Y169506D01*
X247000Y168550D01*
X247495Y167694D01*
X248194Y166995D01*
X248971Y166546D01*
Y161870D01*
X237861Y150760D01*
X236995Y150992D01*
X236005D01*
X235050Y150736D01*
X234194Y150242D01*
X233494Y149542D01*
X233000Y148686D01*
X232744Y147731D01*
Y146742D01*
X233000Y145786D01*
X233494Y144930D01*
X234194Y144231D01*
X235050Y143736D01*
X236005Y143480D01*
X236995D01*
X237950Y143736D01*
X238806Y144231D01*
X239506Y144930D01*
X240000Y145786D01*
X240256Y146742D01*
Y147731D01*
X240024Y148597D01*
X251581Y160155D01*
X251913Y160651D01*
X252029Y161236D01*
Y166546D01*
X252806Y166995D01*
X253505Y167694D01*
X254000Y168550D01*
X254256Y169506D01*
Y170494D01*
X254000Y171450D01*
X253505Y172306D01*
X252806Y173005D01*
X251950Y173500D01*
X250994Y173756D01*
X250006D01*
X249487Y173617D01*
X249228Y174065D01*
X268337Y193175D01*
X268471Y193374D01*
X268971Y193222D01*
Y154633D01*
X260695Y146357D01*
X260256Y146626D01*
Y147494D01*
X260024Y148361D01*
X264081Y152419D01*
X264413Y152915D01*
X264529Y153500D01*
Y156046D01*
X265306Y156494D01*
X266005Y157194D01*
X266500Y158050D01*
X266756Y159005D01*
Y159994D01*
X266500Y160950D01*
X266005Y161806D01*
X265306Y162505D01*
X264450Y163000D01*
X263494Y163256D01*
X262506D01*
X261550Y163000D01*
X260694Y162505D01*
X259995Y161806D01*
X259500Y160950D01*
X259244Y159994D01*
Y159005D01*
X259500Y158050D01*
X259995Y157194D01*
X260694Y156494D01*
X261471Y156046D01*
Y154133D01*
X257861Y150524D01*
X256995Y150756D01*
X256006D01*
X255050Y150500D01*
X254194Y150005D01*
X253495Y149306D01*
X253000Y148450D01*
X252744Y147494D01*
Y146505D01*
X253000Y145550D01*
X253495Y144694D01*
X254159Y144029D01*
X254133Y143768D01*
X254069Y143529D01*
X247000D01*
X246415Y143413D01*
X245919Y143081D01*
X241367Y138529D01*
X239954D01*
X239506Y139306D01*
X238806Y140006D01*
X237950Y140500D01*
X236995Y140756D01*
X236005D01*
X235050Y140500D01*
X234194Y140006D01*
X233494Y139306D01*
X233000Y138450D01*
X232744Y137495D01*
Y136505D01*
X233000Y135550D01*
X233494Y134694D01*
X234194Y133994D01*
X235050Y133500D01*
X236005Y133244D01*
X236995D01*
X237950Y133500D01*
X238806Y133994D01*
X239506Y134694D01*
X239954Y135471D01*
X242000D01*
X242585Y135587D01*
X243081Y135919D01*
X247634Y140471D01*
X254409D01*
X254543Y139971D01*
X254194Y139769D01*
X253495Y139070D01*
X253000Y138214D01*
X252744Y137258D01*
Y136269D01*
X253000Y135314D01*
X253495Y134458D01*
X254194Y133758D01*
X255050Y133264D01*
X256006Y133008D01*
X256995D01*
X257950Y133264D01*
X258806Y133758D01*
X259506Y134458D01*
X260000Y135314D01*
X260256Y136269D01*
Y137258D01*
X260024Y138125D01*
X273581Y151682D01*
X273913Y152179D01*
X274029Y152764D01*
Y245657D01*
X273913Y246242D01*
X273581Y246738D01*
X241668Y278651D01*
X241172Y278983D01*
X240587Y279099D01*
X231064D01*
X219184Y290978D01*
X219453Y291980D01*
Y293020D01*
X219183Y294026D01*
X218663Y294927D01*
X217927Y295663D01*
X217029Y296181D01*
Y302319D01*
X217927Y302837D01*
X218663Y303573D01*
X219183Y304474D01*
X219453Y305480D01*
Y306520D01*
X219183Y307526D01*
X218663Y308427D01*
X217927Y309163D01*
X217026Y309683D01*
X216020Y309953D01*
D02*
G37*
G36*
X536494Y272756D02*
X535505D01*
X534550Y272500D01*
X533694Y272006D01*
X532995Y271306D01*
X532500Y270450D01*
X532244Y269495D01*
Y268506D01*
X532500Y267550D01*
X532995Y266694D01*
X533694Y265995D01*
X534550Y265500D01*
X535505Y265244D01*
X536494D01*
X537450Y265500D01*
X538306Y265995D01*
X539006Y266694D01*
X539500Y267550D01*
X539756Y268506D01*
Y269495D01*
X539500Y270450D01*
X539006Y271306D01*
X538306Y272006D01*
X537450Y272500D01*
X536494Y272756D01*
D02*
G37*
G36*
X459494Y272256D02*
X458505D01*
X457550Y272000D01*
X456694Y271505D01*
X455995Y270806D01*
X455500Y269950D01*
X455244Y268994D01*
Y268005D01*
X455500Y267050D01*
X455995Y266194D01*
X456694Y265494D01*
X457550Y265000D01*
X458505Y264744D01*
X459494D01*
X460450Y265000D01*
X461306Y265494D01*
X462006Y266194D01*
X462500Y267050D01*
X462756Y268005D01*
Y268994D01*
X462500Y269950D01*
X462006Y270806D01*
X461306Y271505D01*
X460450Y272000D01*
X459494Y272256D01*
D02*
G37*
G36*
X162495D02*
X161505D01*
X160550Y272000D01*
X159694Y271505D01*
X158994Y270806D01*
X158500Y269950D01*
X158244Y268994D01*
Y268005D01*
X158500Y267050D01*
X158994Y266194D01*
X159694Y265494D01*
X160550Y265000D01*
X161505Y264744D01*
X162495D01*
X163450Y265000D01*
X164306Y265494D01*
X165006Y266194D01*
X165500Y267050D01*
X165756Y268005D01*
Y268994D01*
X165500Y269950D01*
X165006Y270806D01*
X164306Y271505D01*
X163450Y272000D01*
X162495Y272256D01*
D02*
G37*
G36*
X122494D02*
X121505D01*
X120550Y272000D01*
X119694Y271505D01*
X118994Y270806D01*
X118500Y269950D01*
X118244Y268994D01*
Y268005D01*
X118500Y267050D01*
X118994Y266194D01*
X119694Y265494D01*
X120550Y265000D01*
X121505Y264744D01*
X122494D01*
X123450Y265000D01*
X124306Y265494D01*
X125005Y266194D01*
X125454Y266971D01*
X136866D01*
X146419Y257419D01*
X146915Y257087D01*
X147500Y256971D01*
X158546D01*
X158994Y256194D01*
X159694Y255494D01*
X160550Y255000D01*
X161505Y254744D01*
X162495D01*
X163450Y255000D01*
X164306Y255494D01*
X165006Y256194D01*
X165500Y257050D01*
X165756Y258005D01*
Y258995D01*
X165500Y259950D01*
X165006Y260806D01*
X164306Y261506D01*
X163450Y262000D01*
X162495Y262256D01*
X161505D01*
X160550Y262000D01*
X159694Y261506D01*
X158994Y260806D01*
X158546Y260029D01*
X148134D01*
X138581Y269581D01*
X138085Y269913D01*
X137500Y270029D01*
X125454D01*
X125005Y270806D01*
X124306Y271505D01*
X123450Y272000D01*
X122494Y272256D01*
D02*
G37*
G36*
X196994Y271756D02*
X196005D01*
X195050Y271500D01*
X194194Y271006D01*
X193494Y270306D01*
X193000Y269450D01*
X192744Y268495D01*
Y267506D01*
X193000Y266550D01*
X193494Y265694D01*
X194194Y264995D01*
X195050Y264500D01*
X196005Y264244D01*
X196994D01*
X197950Y264500D01*
X198806Y264995D01*
X199505Y265694D01*
X199954Y266471D01*
X211866D01*
X222419Y255919D01*
X222915Y255587D01*
X223500Y255471D01*
X233046D01*
X233494Y254694D01*
X234194Y253994D01*
X235050Y253500D01*
X236005Y253244D01*
X236995D01*
X237950Y253500D01*
X238806Y253994D01*
X239506Y254694D01*
X240000Y255550D01*
X240256Y256505D01*
Y257494D01*
X240000Y258450D01*
X239506Y259306D01*
X238806Y260005D01*
X237950Y260500D01*
X236995Y260756D01*
X236005D01*
X235050Y260500D01*
X234194Y260005D01*
X233494Y259306D01*
X233046Y258529D01*
X224133D01*
X213581Y269081D01*
X213085Y269413D01*
X212500Y269529D01*
X199954D01*
X199505Y270306D01*
X198806Y271006D01*
X197950Y271500D01*
X196994Y271756D01*
D02*
G37*
G36*
X589571Y268902D02*
X587461D01*
X585378Y268572D01*
X583371Y267920D01*
X581492Y266962D01*
X579785Y265722D01*
X578294Y264230D01*
X577054Y262524D01*
X576096Y260644D01*
X575444Y258638D01*
X575114Y256555D01*
Y254445D01*
X575444Y252362D01*
X576096Y250356D01*
X577054Y248476D01*
X578294Y246769D01*
X579785Y245278D01*
X581492Y244038D01*
X583371Y243080D01*
X585378Y242428D01*
X587461Y242098D01*
X589571D01*
X591654Y242428D01*
X593660Y243080D01*
X595540Y244038D01*
X597246Y245278D01*
X598738Y246769D01*
X599978Y248476D01*
X600936Y250356D01*
X601587Y252362D01*
X601917Y254445D01*
Y256555D01*
X601587Y258638D01*
X600936Y260644D01*
X599978Y262524D01*
X598738Y264230D01*
X597246Y265722D01*
X595540Y266962D01*
X593660Y267920D01*
X591654Y268572D01*
X589571Y268902D01*
D02*
G37*
G36*
X100555D02*
X98445D01*
X96362Y268572D01*
X94356Y267920D01*
X92476Y266962D01*
X90769Y265722D01*
X89278Y264230D01*
X88038Y262524D01*
X87080Y260644D01*
X86428Y258638D01*
X86098Y256555D01*
Y254445D01*
X86428Y252362D01*
X87080Y250356D01*
X88038Y248476D01*
X89278Y246769D01*
X90769Y245278D01*
X92476Y244038D01*
X94356Y243080D01*
X96362Y242428D01*
X98445Y242098D01*
X100555D01*
X102638Y242428D01*
X104644Y243080D01*
X106524Y244038D01*
X108230Y245278D01*
X109722Y246769D01*
X110962Y248476D01*
X111920Y250356D01*
X112572Y252362D01*
X112902Y254445D01*
Y256555D01*
X112572Y258638D01*
X111920Y260644D01*
X110962Y262524D01*
X109722Y264230D01*
X108230Y265722D01*
X106524Y266962D01*
X104644Y267920D01*
X102638Y268572D01*
X100555Y268902D01*
D02*
G37*
G36*
X496494Y262256D02*
X495506D01*
X494550Y262000D01*
X493694Y261506D01*
X492994Y260806D01*
X492500Y259950D01*
X492244Y258995D01*
Y258005D01*
X492500Y257050D01*
X492994Y256194D01*
X493694Y255494D01*
X494550Y255000D01*
X495506Y254744D01*
X496494D01*
X497450Y255000D01*
X498306Y255494D01*
X499006Y256194D01*
X499454Y256971D01*
X516366D01*
X527298Y246039D01*
X527138Y245443D01*
Y244557D01*
X527367Y243702D01*
X527810Y242936D01*
X528436Y242310D01*
X529202Y241867D01*
X530057Y241638D01*
X530943D01*
X531798Y241867D01*
X532564Y242310D01*
X533190Y242936D01*
X533633Y243702D01*
X533862Y244557D01*
Y245443D01*
X533633Y246298D01*
X533190Y247064D01*
X532564Y247690D01*
X531798Y248133D01*
X530943Y248362D01*
X530057D01*
X529461Y248202D01*
X518081Y259581D01*
X517585Y259913D01*
X517000Y260029D01*
X499454D01*
X499006Y260806D01*
X498306Y261506D01*
X497450Y262000D01*
X496494Y262256D01*
D02*
G37*
G36*
X500943Y248362D02*
X500057D01*
X499202Y248133D01*
X498436Y247690D01*
X497810Y247064D01*
X497367Y246298D01*
X497138Y245443D01*
Y244557D01*
X497367Y243702D01*
X497810Y242936D01*
X498436Y242310D01*
X499202Y241867D01*
X500057Y241638D01*
X500943D01*
X501798Y241867D01*
X502564Y242310D01*
X503190Y242936D01*
X503633Y243702D01*
X503862Y244557D01*
Y245443D01*
X503633Y246298D01*
X503190Y247064D01*
X502564Y247690D01*
X501798Y248133D01*
X500943Y248362D01*
D02*
G37*
G36*
X419494Y262256D02*
X418505D01*
X417550Y262000D01*
X416694Y261506D01*
X415995Y260806D01*
X415500Y259950D01*
X415244Y258995D01*
Y258005D01*
X415500Y257050D01*
X415995Y256194D01*
X416694Y255494D01*
X417550Y255000D01*
X418505Y254744D01*
X419494D01*
X420450Y255000D01*
X421306Y255494D01*
X422006Y256194D01*
X422454Y256971D01*
X440867D01*
X451798Y246039D01*
X451638Y245443D01*
Y244557D01*
X451867Y243702D01*
X452310Y242936D01*
X452936Y242310D01*
X453702Y241867D01*
X454557Y241638D01*
X455443D01*
X456298Y241867D01*
X457064Y242310D01*
X457690Y242936D01*
X458133Y243702D01*
X458362Y244557D01*
Y245443D01*
X458133Y246298D01*
X457690Y247064D01*
X457064Y247690D01*
X456298Y248133D01*
X455443Y248362D01*
X454557D01*
X453961Y248202D01*
X442581Y259581D01*
X442085Y259913D01*
X441500Y260029D01*
X422454D01*
X422006Y260806D01*
X421306Y261506D01*
X420450Y262000D01*
X419494Y262256D01*
D02*
G37*
G36*
X425443Y248362D02*
X424557D01*
X423702Y248133D01*
X422936Y247690D01*
X422310Y247064D01*
X421867Y246298D01*
X421638Y245443D01*
Y244557D01*
X421867Y243702D01*
X422310Y242936D01*
X422936Y242310D01*
X423702Y241867D01*
X424557Y241638D01*
X425443D01*
X426298Y241867D01*
X427064Y242310D01*
X427690Y242936D01*
X428133Y243702D01*
X428362Y244557D01*
Y245443D01*
X428133Y246298D01*
X427690Y247064D01*
X427064Y247690D01*
X426298Y248133D01*
X425443Y248362D01*
D02*
G37*
G36*
X126943Y247362D02*
X126057D01*
X125202Y247133D01*
X124436Y246690D01*
X123810Y246064D01*
X123367Y245298D01*
X123138Y244443D01*
Y243557D01*
X123367Y242702D01*
X123810Y241936D01*
X124436Y241310D01*
X125202Y240867D01*
X126057Y240638D01*
X126943D01*
X127798Y240867D01*
X128564Y241310D01*
X129190Y241936D01*
X129633Y242702D01*
X129862Y243557D01*
Y244443D01*
X129633Y245298D01*
X129190Y246064D01*
X128564Y246690D01*
X127798Y247133D01*
X126943Y247362D01*
D02*
G37*
G36*
X201943Y246862D02*
X201057D01*
X200202Y246633D01*
X199436Y246190D01*
X198810Y245564D01*
X198367Y244798D01*
X198138Y243943D01*
Y243057D01*
X198367Y242202D01*
X198810Y241436D01*
X199436Y240810D01*
X200202Y240367D01*
X201057Y240138D01*
X201943D01*
X202798Y240367D01*
X203564Y240810D01*
X204190Y241436D01*
X204633Y242202D01*
X204862Y243057D01*
Y243943D01*
X204633Y244798D01*
X204190Y245564D01*
X203564Y246190D01*
X202798Y246633D01*
X201943Y246862D01*
D02*
G37*
G36*
X526000Y204254D02*
Y201000D01*
X529254D01*
X529000Y201950D01*
X528506Y202806D01*
X527806Y203505D01*
X526950Y204000D01*
X526000Y204254D01*
D02*
G37*
G36*
X525000D02*
X524050Y204000D01*
X523194Y203505D01*
X522495Y202806D01*
X522000Y201950D01*
X521746Y201000D01*
X525000D01*
Y204254D01*
D02*
G37*
G36*
X451500D02*
Y201000D01*
X454754D01*
X454500Y201950D01*
X454005Y202806D01*
X453306Y203505D01*
X452450Y204000D01*
X451500Y204254D01*
D02*
G37*
G36*
X450500D02*
X449550Y204000D01*
X448694Y203505D01*
X447995Y202806D01*
X447500Y201950D01*
X447246Y201000D01*
X450500D01*
Y204254D01*
D02*
G37*
G36*
X227000D02*
Y201000D01*
X230254D01*
X230000Y201950D01*
X229505Y202806D01*
X228806Y203505D01*
X227950Y204000D01*
X227000Y204254D01*
D02*
G37*
G36*
X226000D02*
X225050Y204000D01*
X224194Y203505D01*
X223495Y202806D01*
X223000Y201950D01*
X222746Y201000D01*
X226000D01*
Y204254D01*
D02*
G37*
G36*
X152500D02*
Y201000D01*
X155754D01*
X155500Y201950D01*
X155006Y202806D01*
X154306Y203505D01*
X153450Y204000D01*
X152500Y204254D01*
D02*
G37*
G36*
X151500D02*
X150550Y204000D01*
X149694Y203505D01*
X148995Y202806D01*
X148500Y201950D01*
X148246Y201000D01*
X151500D01*
Y204254D01*
D02*
G37*
G36*
X172494Y204256D02*
X171505D01*
X170550Y204000D01*
X169694Y203505D01*
X168994Y202806D01*
X168500Y201950D01*
X168379Y201498D01*
X167905Y201404D01*
X167409Y201072D01*
X166195Y199857D01*
X165756Y200126D01*
Y200994D01*
X165500Y201950D01*
X165006Y202806D01*
X164306Y203505D01*
X163450Y204000D01*
X162495Y204256D01*
X161505D01*
X160550Y204000D01*
X159694Y203505D01*
X158994Y202806D01*
X158500Y201950D01*
X158244Y200994D01*
Y200006D01*
X158318Y199731D01*
X131354Y172767D01*
X130950Y173000D01*
X129994Y173256D01*
X129006D01*
X128050Y173000D01*
X127194Y172505D01*
X126495Y171806D01*
X126000Y170950D01*
X125744Y169994D01*
Y169006D01*
X126000Y168050D01*
X126495Y167194D01*
X127194Y166495D01*
X128050Y166000D01*
X129006Y165744D01*
X129994D01*
X130950Y166000D01*
X131806Y166495D01*
X132506Y167194D01*
X133000Y168050D01*
X133256Y169006D01*
Y169994D01*
X133182Y170269D01*
X160146Y197233D01*
X160550Y197000D01*
X161505Y196744D01*
X162374D01*
X162643Y196305D01*
X144419Y178081D01*
X144087Y177585D01*
X143971Y177000D01*
Y162454D01*
X143194Y162005D01*
X142494Y161306D01*
X142000Y160450D01*
X141744Y159494D01*
Y158505D01*
X142000Y157550D01*
X142494Y156694D01*
X143194Y155994D01*
X144050Y155500D01*
X145006Y155244D01*
X145994D01*
X146950Y155500D01*
X147806Y155994D01*
X148505Y156694D01*
X149000Y157550D01*
X149256Y158505D01*
Y159494D01*
X149000Y160450D01*
X148505Y161306D01*
X147806Y162005D01*
X147029Y162454D01*
Y176366D01*
X168873Y198210D01*
X168994Y198194D01*
X169694Y197494D01*
X170550Y197000D01*
X171505Y196744D01*
X172494D01*
X173450Y197000D01*
X174306Y197494D01*
X175005Y198194D01*
X175500Y199050D01*
X175756Y200006D01*
Y200994D01*
X175500Y201950D01*
X175005Y202806D01*
X174306Y203505D01*
X173450Y204000D01*
X172494Y204256D01*
D02*
G37*
G36*
X529254Y200000D02*
X526000D01*
Y196746D01*
X526950Y197000D01*
X527806Y197494D01*
X528506Y198194D01*
X529000Y199050D01*
X529254Y200000D01*
D02*
G37*
G36*
X525000D02*
X521746D01*
X522000Y199050D01*
X522495Y198194D01*
X523194Y197494D01*
X524050Y197000D01*
X525000Y196746D01*
Y200000D01*
D02*
G37*
G36*
X454754D02*
X451500D01*
Y196746D01*
X452450Y197000D01*
X453306Y197494D01*
X454005Y198194D01*
X454500Y199050D01*
X454754Y200000D01*
D02*
G37*
G36*
X450500D02*
X447246D01*
X447500Y199050D01*
X447995Y198194D01*
X448694Y197494D01*
X449550Y197000D01*
X450500Y196746D01*
Y200000D01*
D02*
G37*
G36*
X230254D02*
X227000D01*
Y196746D01*
X227950Y197000D01*
X228806Y197494D01*
X229505Y198194D01*
X230000Y199050D01*
X230254Y200000D01*
D02*
G37*
G36*
X226000D02*
X222746D01*
X223000Y199050D01*
X223495Y198194D01*
X224194Y197494D01*
X225050Y197000D01*
X226000Y196746D01*
Y200000D01*
D02*
G37*
G36*
X155754D02*
X152500D01*
Y196746D01*
X153450Y197000D01*
X154306Y197494D01*
X155006Y198194D01*
X155500Y199050D01*
X155754Y200000D01*
D02*
G37*
G36*
X151500D02*
X148246D01*
X148500Y199050D01*
X148995Y198194D01*
X149694Y197494D01*
X150550Y197000D01*
X151500Y196746D01*
Y200000D01*
D02*
G37*
G36*
X545995Y204256D02*
X545006D01*
X544050Y204000D01*
X543194Y203505D01*
X542494Y202806D01*
X542000Y201950D01*
X541744Y200994D01*
Y200006D01*
X541765Y199928D01*
X516919Y175081D01*
X516587Y174585D01*
X516471Y174000D01*
Y162954D01*
X515694Y162505D01*
X514994Y161806D01*
X514500Y160950D01*
X514244Y159994D01*
Y159005D01*
X514500Y158050D01*
X514994Y157194D01*
X515694Y156494D01*
X516550Y156000D01*
X517506Y155744D01*
X518495D01*
X519450Y156000D01*
X520306Y156494D01*
X521005Y157194D01*
X521500Y158050D01*
X521756Y159005D01*
Y159994D01*
X521500Y160950D01*
X521005Y161806D01*
X520306Y162505D01*
X519529Y162954D01*
Y173366D01*
X543488Y197325D01*
X544050Y197000D01*
X545006Y196744D01*
X545995D01*
X546950Y197000D01*
X547806Y197494D01*
X548505Y198194D01*
X549000Y199050D01*
X549256Y200006D01*
Y200994D01*
X549000Y201950D01*
X548505Y202806D01*
X547806Y203505D01*
X546950Y204000D01*
X545995Y204256D01*
D02*
G37*
G36*
X515995D02*
X515005D01*
X514050Y204000D01*
X513194Y203505D01*
X512495Y202806D01*
X512000Y201950D01*
X511744Y200994D01*
Y200006D01*
X511871Y199533D01*
X495695Y183358D01*
X495450Y183500D01*
X494494Y183756D01*
X493505D01*
X492550Y183500D01*
X491694Y183005D01*
X490995Y182306D01*
X490500Y181450D01*
X490244Y180494D01*
Y179506D01*
X490500Y178550D01*
X490995Y177694D01*
X491694Y176995D01*
X492550Y176500D01*
X493505Y176244D01*
X494494D01*
X495450Y176500D01*
X496306Y176995D01*
X497006Y177694D01*
X497500Y178550D01*
X497756Y179506D01*
Y180494D01*
X497629Y180966D01*
X513805Y197142D01*
X514050Y197000D01*
X515005Y196744D01*
X515995D01*
X516950Y197000D01*
X517806Y197494D01*
X518505Y198194D01*
X519000Y199050D01*
X519256Y200006D01*
Y200994D01*
X519000Y201950D01*
X518505Y202806D01*
X517806Y203505D01*
X516950Y204000D01*
X515995Y204256D01*
D02*
G37*
G36*
X471494D02*
X470506D01*
X469550Y204000D01*
X468694Y203505D01*
X467994Y202806D01*
X467500Y201950D01*
X467244Y200994D01*
Y200006D01*
X467476Y199139D01*
X443919Y175581D01*
X443587Y175085D01*
X443471Y174500D01*
Y163454D01*
X442694Y163005D01*
X441994Y162306D01*
X441500Y161450D01*
X441244Y160494D01*
Y159505D01*
X441500Y158550D01*
X441994Y157694D01*
X442694Y156994D01*
X443550Y156500D01*
X444506Y156244D01*
X445495D01*
X446450Y156500D01*
X447306Y156994D01*
X448005Y157694D01*
X448500Y158550D01*
X448756Y159505D01*
Y160494D01*
X448500Y161450D01*
X448005Y162306D01*
X447306Y163005D01*
X446529Y163454D01*
Y173866D01*
X469639Y196976D01*
X470506Y196744D01*
X471494D01*
X472450Y197000D01*
X473306Y197494D01*
X474006Y198194D01*
X474500Y199050D01*
X474756Y200006D01*
Y200994D01*
X474500Y201950D01*
X474006Y202806D01*
X473306Y203505D01*
X472450Y204000D01*
X471494Y204256D01*
D02*
G37*
G36*
X461494D02*
X460505D01*
X459550Y204000D01*
X458694Y203505D01*
X457995Y202806D01*
X457500Y201950D01*
X457244Y200994D01*
Y200006D01*
X457476Y199139D01*
X432782Y174445D01*
X432450Y173949D01*
X432407Y173729D01*
X431550Y173500D01*
X430694Y173005D01*
X429994Y172306D01*
X429500Y171450D01*
X429244Y170494D01*
Y169506D01*
X429500Y168550D01*
X429994Y167694D01*
X430694Y166995D01*
X431550Y166500D01*
X432506Y166244D01*
X433495D01*
X434450Y166500D01*
X435306Y166995D01*
X436005Y167694D01*
X436500Y168550D01*
X436756Y169506D01*
Y170494D01*
X436500Y171450D01*
X436005Y172306D01*
X435487Y172824D01*
X459639Y196976D01*
X460505Y196744D01*
X461494D01*
X462450Y197000D01*
X463306Y197494D01*
X464006Y198194D01*
X464500Y199050D01*
X464756Y200006D01*
Y200994D01*
X464500Y201950D01*
X464006Y202806D01*
X463306Y203505D01*
X462450Y204000D01*
X461494Y204256D01*
D02*
G37*
G36*
X441495D02*
X440506D01*
X439550Y204000D01*
X438694Y203505D01*
X437994Y202806D01*
X437500Y201950D01*
X437244Y200994D01*
Y200006D01*
X437500Y199050D01*
X437733Y198646D01*
X422769Y183682D01*
X422495Y183756D01*
X421505D01*
X420550Y183500D01*
X419694Y183005D01*
X418995Y182306D01*
X418500Y181450D01*
X418244Y180494D01*
Y179506D01*
X418500Y178550D01*
X418995Y177694D01*
X419694Y176995D01*
X420550Y176500D01*
X421505Y176244D01*
X422495D01*
X423450Y176500D01*
X424306Y176995D01*
X425005Y177694D01*
X425500Y178550D01*
X425756Y179506D01*
Y180494D01*
X425500Y181450D01*
X425267Y181854D01*
X440231Y196818D01*
X440506Y196744D01*
X441495D01*
X442450Y197000D01*
X443306Y197494D01*
X444005Y198194D01*
X444500Y199050D01*
X444756Y200006D01*
Y200994D01*
X444500Y201950D01*
X444005Y202806D01*
X443306Y203505D01*
X442450Y204000D01*
X441495Y204256D01*
D02*
G37*
G36*
X246994D02*
X246006D01*
X245050Y204000D01*
X244194Y203505D01*
X243495Y202806D01*
X243000Y201950D01*
X242744Y200994D01*
Y200006D01*
X242976Y199139D01*
X221919Y178081D01*
X221587Y177585D01*
X221471Y177000D01*
Y162954D01*
X220694Y162505D01*
X219994Y161806D01*
X219500Y160950D01*
X219244Y159994D01*
Y159005D01*
X219500Y158050D01*
X219994Y157194D01*
X220694Y156494D01*
X221550Y156000D01*
X222505Y155744D01*
X223495D01*
X224450Y156000D01*
X225306Y156494D01*
X226006Y157194D01*
X226500Y158050D01*
X226756Y159005D01*
Y159994D01*
X226500Y160950D01*
X226006Y161806D01*
X225306Y162505D01*
X224529Y162954D01*
Y176366D01*
X245139Y196976D01*
X246006Y196744D01*
X246994D01*
X247950Y197000D01*
X248806Y197494D01*
X249505Y198194D01*
X250000Y199050D01*
X250256Y200006D01*
Y200994D01*
X250000Y201950D01*
X249505Y202806D01*
X248806Y203505D01*
X247950Y204000D01*
X246994Y204256D01*
D02*
G37*
G36*
X236995D02*
X236005D01*
X235050Y204000D01*
X234194Y203505D01*
X233494Y202806D01*
X233000Y201950D01*
X232744Y200994D01*
Y200006D01*
X232976Y199139D01*
X209419Y175581D01*
X209087Y175085D01*
X208971Y174500D01*
Y173454D01*
X208194Y173005D01*
X207494Y172306D01*
X207000Y171450D01*
X206744Y170494D01*
Y169506D01*
X207000Y168550D01*
X207494Y167694D01*
X208194Y166995D01*
X209050Y166500D01*
X210005Y166244D01*
X210995D01*
X211950Y166500D01*
X212806Y166995D01*
X213506Y167694D01*
X214000Y168550D01*
X214256Y169506D01*
Y170494D01*
X214000Y171450D01*
X213506Y172306D01*
X212806Y173005D01*
X212118Y173403D01*
X212076Y173914D01*
X235139Y196976D01*
X236005Y196744D01*
X236995D01*
X237950Y197000D01*
X238806Y197494D01*
X239506Y198194D01*
X240000Y199050D01*
X240256Y200006D01*
Y200994D01*
X240000Y201950D01*
X239506Y202806D01*
X238806Y203505D01*
X237950Y204000D01*
X236995Y204256D01*
D02*
G37*
G36*
X216995D02*
X216005D01*
X215050Y204000D01*
X214194Y203505D01*
X213494Y202806D01*
X213000Y201950D01*
X212744Y200994D01*
Y200006D01*
X212923Y199336D01*
X197537Y183950D01*
X197450Y184000D01*
X196494Y184256D01*
X195505D01*
X194550Y184000D01*
X193694Y183505D01*
X192994Y182806D01*
X192500Y181950D01*
X192244Y180994D01*
Y180006D01*
X192500Y179050D01*
X192994Y178194D01*
X193694Y177495D01*
X194550Y177000D01*
X195505Y176744D01*
X196494D01*
X197450Y177000D01*
X198306Y177495D01*
X199005Y178194D01*
X199500Y179050D01*
X199756Y180006D01*
Y180994D01*
X199577Y181664D01*
X214963Y197050D01*
X215050Y197000D01*
X216005Y196744D01*
X216995D01*
X217950Y197000D01*
X218806Y197494D01*
X219506Y198194D01*
X220000Y199050D01*
X220256Y200006D01*
Y200994D01*
X220000Y201950D01*
X219506Y202806D01*
X218806Y203505D01*
X217950Y204000D01*
X216995Y204256D01*
D02*
G37*
G36*
X142494D02*
X141506D01*
X140550Y204000D01*
X139694Y203505D01*
X138995Y202806D01*
X138500Y201950D01*
X138244Y200994D01*
Y200006D01*
X138265Y199928D01*
X121512Y183175D01*
X120950Y183500D01*
X119994Y183756D01*
X119006D01*
X118050Y183500D01*
X117194Y183005D01*
X116495Y182306D01*
X116000Y181450D01*
X115744Y180494D01*
Y179506D01*
X116000Y178550D01*
X116495Y177694D01*
X117194Y176995D01*
X118050Y176500D01*
X119006Y176244D01*
X119994D01*
X120950Y176500D01*
X121806Y176995D01*
X122505Y177694D01*
X123000Y178550D01*
X123256Y179506D01*
Y180494D01*
X123235Y180572D01*
X139988Y197325D01*
X140550Y197000D01*
X141506Y196744D01*
X142494D01*
X143450Y197000D01*
X144306Y197494D01*
X145006Y198194D01*
X145500Y199050D01*
X145756Y200006D01*
Y200994D01*
X145500Y201950D01*
X145006Y202806D01*
X144306Y203505D01*
X143450Y204000D01*
X142494Y204256D01*
D02*
G37*
G36*
X345063Y211150D02*
X342953D01*
X340870Y210820D01*
X338863Y210168D01*
X336984Y209210D01*
X335277Y207970D01*
X333786Y206479D01*
X332546Y204772D01*
X331588Y202892D01*
X330936Y200886D01*
X330606Y198803D01*
Y196693D01*
X330936Y194610D01*
X331588Y192604D01*
X332546Y190724D01*
X333786Y189017D01*
X335277Y187526D01*
X336984Y186286D01*
X338863Y185328D01*
X340870Y184676D01*
X342953Y184346D01*
X345063D01*
X347146Y184676D01*
X349152Y185328D01*
X351032Y186286D01*
X352738Y187526D01*
X354230Y189017D01*
X355470Y190724D01*
X356428Y192604D01*
X357079Y194610D01*
X357409Y196693D01*
Y198803D01*
X357079Y200886D01*
X356428Y202892D01*
X355470Y204772D01*
X354230Y206479D01*
X352738Y207970D01*
X351032Y209210D01*
X349152Y210168D01*
X347146Y210820D01*
X345063Y211150D01*
D02*
G37*
G36*
X535994Y204256D02*
X535006D01*
X534050Y204000D01*
X533194Y203505D01*
X532494Y202806D01*
X532000Y201950D01*
X531744Y200994D01*
Y200006D01*
X532000Y199050D01*
X532494Y198194D01*
X533013Y197676D01*
X508861Y173524D01*
X507995Y173756D01*
X507006D01*
X506050Y173500D01*
X505194Y173005D01*
X504494Y172306D01*
X504000Y171450D01*
X503744Y170494D01*
Y169506D01*
X504000Y168550D01*
X504494Y167694D01*
X505194Y166995D01*
X506050Y166500D01*
X507006Y166244D01*
X507995D01*
X508950Y166500D01*
X509806Y166995D01*
X510505Y167694D01*
X511000Y168550D01*
X511256Y169506D01*
Y170494D01*
X511024Y171361D01*
X535718Y196055D01*
X536050Y196551D01*
X536093Y196771D01*
X536950Y197000D01*
X537806Y197494D01*
X538506Y198194D01*
X539000Y199050D01*
X539256Y200006D01*
Y200994D01*
X539000Y201950D01*
X538506Y202806D01*
X537806Y203505D01*
X536950Y204000D01*
X535994Y204256D01*
D02*
G37*
G36*
X485495Y163756D02*
X484506D01*
X483550Y163500D01*
X482694Y163005D01*
X481994Y162306D01*
X481500Y161450D01*
X481244Y160494D01*
Y159505D01*
X481476Y158639D01*
X477919Y155081D01*
X477587Y154585D01*
X477471Y154000D01*
Y151454D01*
X476694Y151005D01*
X475994Y150306D01*
X475500Y149450D01*
X475244Y148495D01*
Y147505D01*
X475500Y146550D01*
X475994Y145694D01*
X476694Y144994D01*
X477550Y144500D01*
X478506Y144244D01*
X479494D01*
X480450Y144500D01*
X481306Y144994D01*
X482006Y145694D01*
X482500Y146550D01*
X482756Y147505D01*
Y148495D01*
X482500Y149450D01*
X482006Y150306D01*
X481306Y151005D01*
X480529Y151454D01*
Y153366D01*
X483639Y156476D01*
X484506Y156244D01*
X485495D01*
X486450Y156500D01*
X487306Y156994D01*
X488005Y157694D01*
X488500Y158550D01*
X488756Y159505D01*
Y160494D01*
X488500Y161450D01*
X488005Y162306D01*
X487306Y163005D01*
X486450Y163500D01*
X485495Y163756D01*
D02*
G37*
G36*
X473494Y173756D02*
X472506D01*
X471550Y173500D01*
X470694Y173005D01*
X469994Y172306D01*
X469500Y171450D01*
X469244Y170494D01*
Y169506D01*
X469500Y168550D01*
X469994Y167694D01*
X470694Y166995D01*
X471471Y166546D01*
Y162883D01*
X460111Y151524D01*
X459244Y151756D01*
X458255D01*
X457300Y151500D01*
X456444Y151005D01*
X455745Y150306D01*
X455250Y149450D01*
X454994Y148495D01*
Y147505D01*
X455250Y146550D01*
X455745Y145694D01*
X456444Y144994D01*
X457300Y144500D01*
X458255Y144244D01*
X459244D01*
X460200Y144500D01*
X461056Y144994D01*
X461756Y145694D01*
X462250Y146550D01*
X462506Y147505D01*
Y148495D01*
X462274Y149361D01*
X474081Y161169D01*
X474413Y161665D01*
X474529Y162250D01*
Y166546D01*
X475306Y166995D01*
X476006Y167694D01*
X476500Y168550D01*
X476756Y169506D01*
Y170494D01*
X476500Y171450D01*
X476006Y172306D01*
X475306Y173005D01*
X474450Y173500D01*
X473494Y173756D01*
D02*
G37*
G36*
X185995Y162756D02*
X185005D01*
X184050Y162500D01*
X183194Y162005D01*
X182494Y161306D01*
X182000Y160450D01*
X181744Y159494D01*
Y158505D01*
X182000Y157550D01*
X182494Y156694D01*
X183194Y155994D01*
X183258Y155958D01*
Y154157D01*
X180361Y151260D01*
X179495Y151492D01*
X178506D01*
X177550Y151236D01*
X176694Y150742D01*
X175995Y150042D01*
X175500Y149186D01*
X175244Y148231D01*
Y147242D01*
X175500Y146286D01*
X175995Y145430D01*
X176694Y144731D01*
X177550Y144236D01*
X178506Y143980D01*
X179495D01*
X180450Y144236D01*
X181306Y144731D01*
X182006Y145430D01*
X182500Y146286D01*
X182756Y147242D01*
Y148231D01*
X182524Y149097D01*
X185868Y152442D01*
X186200Y152938D01*
X186316Y153523D01*
Y155330D01*
X186950Y155500D01*
X187806Y155994D01*
X188505Y156694D01*
X189000Y157550D01*
X189256Y158505D01*
Y159494D01*
X189000Y160450D01*
X188505Y161306D01*
X187806Y162005D01*
X186950Y162500D01*
X185995Y162756D01*
D02*
G37*
G36*
X169994Y173256D02*
X169006D01*
X168050Y173000D01*
X167194Y172505D01*
X166495Y171806D01*
X166000Y170950D01*
X165744Y169994D01*
Y169006D01*
X166000Y168050D01*
X166495Y167194D01*
X167194Y166495D01*
X167971Y166046D01*
Y158370D01*
X160861Y151260D01*
X159994Y151492D01*
X159005D01*
X158050Y151236D01*
X157194Y150742D01*
X156494Y150042D01*
X156000Y149186D01*
X155744Y148231D01*
Y147242D01*
X156000Y146286D01*
X156494Y145430D01*
X157194Y144731D01*
X158050Y144236D01*
X159005Y143980D01*
X159994D01*
X160950Y144236D01*
X161806Y144731D01*
X162505Y145430D01*
X163000Y146286D01*
X163256Y147242D01*
Y148231D01*
X163024Y149097D01*
X170581Y156655D01*
X170913Y157151D01*
X171029Y157736D01*
Y166046D01*
X171806Y166495D01*
X172505Y167194D01*
X173000Y168050D01*
X173256Y169006D01*
Y169994D01*
X173000Y170950D01*
X172505Y171806D01*
X171806Y172505D01*
X170950Y173000D01*
X169994Y173256D01*
D02*
G37*
G36*
X547995Y173756D02*
X547006D01*
X546050Y173500D01*
X545194Y173005D01*
X544494Y172306D01*
X544000Y171450D01*
X543744Y170494D01*
Y169506D01*
X544000Y168550D01*
X544494Y167694D01*
X545194Y166995D01*
X545971Y166546D01*
Y162620D01*
X534611Y151260D01*
X533744Y151492D01*
X532756D01*
X531800Y151236D01*
X530944Y150742D01*
X530244Y150042D01*
X529750Y149186D01*
X529494Y148231D01*
Y147242D01*
X529750Y146286D01*
X530244Y145430D01*
X530944Y144731D01*
X531800Y144236D01*
X532756Y143980D01*
X533744D01*
X534700Y144236D01*
X535556Y144731D01*
X536256Y145430D01*
X536750Y146286D01*
X537006Y147242D01*
Y148231D01*
X536774Y149097D01*
X548581Y160905D01*
X548913Y161401D01*
X549029Y161986D01*
Y166546D01*
X549806Y166995D01*
X550505Y167694D01*
X551000Y168550D01*
X551256Y169506D01*
Y170494D01*
X551000Y171450D01*
X550505Y172306D01*
X549806Y173005D01*
X548950Y173500D01*
X547995Y173756D01*
D02*
G37*
G36*
X534494Y183756D02*
X533505D01*
X532550Y183500D01*
X531694Y183005D01*
X530995Y182306D01*
X530500Y181450D01*
X530244Y180494D01*
Y179506D01*
X530500Y178550D01*
X530995Y177694D01*
X531694Y176995D01*
X532471Y176546D01*
Y166633D01*
X515969Y150131D01*
X515398Y150150D01*
X514806Y150742D01*
X513950Y151236D01*
X512994Y151492D01*
X512006D01*
X511050Y151236D01*
X510194Y150742D01*
X509494Y150042D01*
X509000Y149186D01*
X508744Y148231D01*
Y147242D01*
X509000Y146286D01*
X509494Y145430D01*
X510194Y144731D01*
X511050Y144236D01*
X512006Y143980D01*
X512994D01*
X513950Y144236D01*
X514806Y144731D01*
X515506Y145430D01*
X516000Y146286D01*
X516083Y146598D01*
X516127D01*
X516713Y146714D01*
X517209Y147046D01*
X535081Y164919D01*
X535413Y165415D01*
X535529Y166000D01*
Y176546D01*
X536306Y176995D01*
X537006Y177694D01*
X537500Y178550D01*
X537756Y179506D01*
Y180494D01*
X537500Y181450D01*
X537006Y182306D01*
X536306Y183005D01*
X535450Y183500D01*
X534494Y183756D01*
D02*
G37*
G36*
X159994D02*
X159005D01*
X158050Y183500D01*
X157194Y183005D01*
X156494Y182306D01*
X156000Y181450D01*
X155744Y180494D01*
Y179506D01*
X156000Y178550D01*
X156494Y177694D01*
X157194Y176995D01*
X157971Y176546D01*
Y163634D01*
X144116Y149779D01*
X143620Y149844D01*
X143506Y150042D01*
X142806Y150742D01*
X141950Y151236D01*
X140995Y151492D01*
X140006D01*
X139050Y151236D01*
X138194Y150742D01*
X137495Y150042D01*
X137000Y149186D01*
X136744Y148231D01*
Y147242D01*
X137000Y146286D01*
X137495Y145430D01*
X138194Y144731D01*
X139050Y144236D01*
X140006Y143980D01*
X140995D01*
X141950Y144236D01*
X142806Y144731D01*
X143506Y145430D01*
X143954Y146207D01*
X144236D01*
X144822Y146323D01*
X145318Y146655D01*
X160581Y161919D01*
X160913Y162415D01*
X161029Y163000D01*
Y176546D01*
X161806Y176995D01*
X162505Y177694D01*
X163000Y178550D01*
X163256Y179506D01*
Y180494D01*
X163000Y181450D01*
X162505Y182306D01*
X161806Y183005D01*
X160950Y183500D01*
X159994Y183756D01*
D02*
G37*
G36*
X179495Y141256D02*
X178506D01*
X177550Y141000D01*
X176694Y140506D01*
X175995Y139806D01*
X175500Y138950D01*
X175244Y137995D01*
Y137005D01*
X175500Y136050D01*
X175995Y135194D01*
X176694Y134494D01*
X177550Y134000D01*
X178506Y133744D01*
X179495D01*
X180450Y134000D01*
X181306Y134494D01*
X182006Y135194D01*
X182500Y136050D01*
X182756Y137005D01*
Y137995D01*
X182500Y138950D01*
X182006Y139806D01*
X181306Y140506D01*
X180450Y141000D01*
X179495Y141256D01*
D02*
G37*
G36*
X159994D02*
X159005D01*
X158050Y141000D01*
X157194Y140506D01*
X156494Y139806D01*
X156000Y138950D01*
X155744Y137995D01*
Y137005D01*
X156000Y136050D01*
X156494Y135194D01*
X157194Y134494D01*
X158050Y134000D01*
X159005Y133744D01*
X159994D01*
X160950Y134000D01*
X161806Y134494D01*
X162505Y135194D01*
X163000Y136050D01*
X163256Y137005D01*
Y137995D01*
X163000Y138950D01*
X162505Y139806D01*
X161806Y140506D01*
X160950Y141000D01*
X159994Y141256D01*
D02*
G37*
G36*
X140995D02*
X140006D01*
X139050Y141000D01*
X138194Y140506D01*
X137495Y139806D01*
X137000Y138950D01*
X136744Y137995D01*
Y137005D01*
X137000Y136050D01*
X137495Y135194D01*
X138194Y134494D01*
X139050Y134000D01*
X140006Y133744D01*
X140995D01*
X141950Y134000D01*
X142806Y134494D01*
X143506Y135194D01*
X144000Y136050D01*
X144256Y137005D01*
Y137995D01*
X144000Y138950D01*
X143506Y139806D01*
X142806Y140506D01*
X141950Y141000D01*
X140995Y141256D01*
D02*
G37*
G36*
X589571Y153402D02*
X587461D01*
X585378Y153072D01*
X583371Y152420D01*
X581492Y151462D01*
X579785Y150222D01*
X578294Y148731D01*
X577054Y147024D01*
X576096Y145144D01*
X575444Y143138D01*
X575114Y141055D01*
Y138945D01*
X575444Y136862D01*
X576096Y134856D01*
X577054Y132976D01*
X578294Y131270D01*
X579785Y129778D01*
X581492Y128538D01*
X583371Y127580D01*
X585378Y126928D01*
X587461Y126598D01*
X589571D01*
X591654Y126928D01*
X593660Y127580D01*
X595540Y128538D01*
X597246Y129778D01*
X598738Y131270D01*
X599978Y132976D01*
X600936Y134856D01*
X601587Y136862D01*
X601917Y138945D01*
Y141055D01*
X601587Y143138D01*
X600936Y145144D01*
X599978Y147024D01*
X598738Y148731D01*
X597246Y150222D01*
X595540Y151462D01*
X593660Y152420D01*
X591654Y153072D01*
X589571Y153402D01*
D02*
G37*
G36*
X100555D02*
X98445D01*
X96362Y153072D01*
X94356Y152420D01*
X92476Y151462D01*
X90769Y150222D01*
X89278Y148731D01*
X88038Y147024D01*
X87080Y145144D01*
X86428Y143138D01*
X86098Y141055D01*
Y138945D01*
X86428Y136862D01*
X87080Y134856D01*
X88038Y132976D01*
X89278Y131270D01*
X90769Y129778D01*
X92476Y128538D01*
X94356Y127580D01*
X96362Y126928D01*
X98445Y126598D01*
X100555D01*
X102638Y126928D01*
X104644Y127580D01*
X106524Y128538D01*
X108230Y129778D01*
X109722Y131270D01*
X110962Y132976D01*
X111920Y134856D01*
X112572Y136862D01*
X112902Y138945D01*
Y141055D01*
X112572Y143138D01*
X111920Y145144D01*
X110962Y147024D01*
X109722Y148731D01*
X108230Y150222D01*
X106524Y151462D01*
X104644Y152420D01*
X102638Y153072D01*
X100555Y153402D01*
D02*
G37*
G36*
X482756Y131283D02*
X475244D01*
Y123772D01*
X482756D01*
Y131283D01*
D02*
G37*
G36*
X462506D02*
X454994D01*
Y123772D01*
X462506D01*
Y131283D01*
D02*
G37*
G36*
X442256D02*
X434744D01*
Y123772D01*
X442256D01*
Y131283D01*
D02*
G37*
G36*
X182756Y131020D02*
X175244D01*
Y123508D01*
X182756D01*
Y131020D01*
D02*
G37*
G36*
X163256D02*
X155744D01*
Y123508D01*
X163256D01*
Y131020D01*
D02*
G37*
G36*
X144256D02*
X136744D01*
Y123508D01*
X144256D01*
Y131020D01*
D02*
G37*
G36*
X219756Y130783D02*
X212244D01*
Y123272D01*
X219756D01*
Y130783D01*
D02*
G37*
G36*
X240256Y130520D02*
X232744D01*
Y123008D01*
X240256D01*
Y130520D01*
D02*
G37*
G36*
X260256Y130283D02*
X252744D01*
Y122772D01*
X260256D01*
Y130283D01*
D02*
G37*
%LPD*%
G36*
X242881Y412471D02*
X242337Y411927D01*
X241817Y411026D01*
X241547Y410020D01*
Y408980D01*
X241817Y407974D01*
X242337Y407073D01*
X243073Y406337D01*
X243971Y405819D01*
Y399681D01*
X243073Y399163D01*
X242337Y398427D01*
X241817Y397526D01*
X241547Y396520D01*
Y395480D01*
X241817Y394474D01*
X242337Y393573D01*
X243073Y392837D01*
X243971Y392319D01*
Y357846D01*
X243509Y357654D01*
X230029Y371133D01*
Y388367D01*
X233978Y392316D01*
X234980Y392047D01*
X236020D01*
X237026Y392317D01*
X237927Y392837D01*
X238663Y393573D01*
X239183Y394474D01*
X239453Y395480D01*
Y396520D01*
X239183Y397526D01*
X238663Y398427D01*
X237927Y399163D01*
X237029Y399681D01*
Y405819D01*
X237927Y406337D01*
X238663Y407073D01*
X239183Y407974D01*
X239453Y408980D01*
Y410020D01*
X239183Y411026D01*
X238663Y411927D01*
X238119Y412471D01*
X238327Y412971D01*
X242673D01*
X242881Y412471D01*
D02*
G37*
G36*
X232881D02*
X232337Y411927D01*
X231817Y411026D01*
X231547Y410020D01*
Y408980D01*
X231817Y407974D01*
X232337Y407073D01*
X233073Y406337D01*
X233971Y405819D01*
Y399681D01*
X233073Y399163D01*
X232337Y398427D01*
X231817Y397526D01*
X231547Y396520D01*
Y395480D01*
X231816Y394478D01*
X227529Y390192D01*
X227092Y390329D01*
X227029Y390377D01*
Y392319D01*
X227927Y392837D01*
X228663Y393573D01*
X229183Y394474D01*
X229453Y395480D01*
Y396520D01*
X229183Y397526D01*
X228663Y398427D01*
X227927Y399163D01*
X227029Y399681D01*
Y405819D01*
X227927Y406337D01*
X228663Y407073D01*
X229183Y407974D01*
X229453Y408980D01*
Y410020D01*
X229183Y411026D01*
X228663Y411927D01*
X228119Y412471D01*
X228327Y412971D01*
X232674D01*
X232881Y412471D01*
D02*
G37*
G36*
X259971Y400967D02*
Y345517D01*
X259509Y345326D01*
X247029Y357805D01*
Y392319D01*
X247927Y392837D01*
X248663Y393573D01*
X249183Y394474D01*
X249453Y395480D01*
Y396520D01*
X249183Y397526D01*
X248663Y398427D01*
X247927Y399163D01*
X247029Y399681D01*
Y405819D01*
X247927Y406337D01*
X248663Y407073D01*
X249183Y407974D01*
X249453Y408980D01*
Y410020D01*
X249183Y411026D01*
X249155Y411075D01*
X249555Y411382D01*
X259971Y400967D01*
D02*
G37*
G36*
X564726Y137410D02*
Y131489D01*
X558218Y124981D01*
X557756Y125172D01*
Y131020D01*
X557756D01*
X557747Y131520D01*
X558085Y131587D01*
X558581Y131919D01*
X564265Y137602D01*
X564726Y137410D01*
D02*
G37*
D12*
X171300Y311800D02*
X177100D01*
X180500Y308400D01*
X165500Y306000D02*
X171300Y311800D01*
X180500Y273000D02*
Y308400D01*
Y273000D02*
X196500Y257000D01*
X537750Y133000D02*
X557500D01*
X564256Y139756D01*
Y195244D01*
X435992Y143100D02*
X453414D01*
X334546Y244546D02*
X435992Y143100D01*
X453414D02*
X458750Y137764D01*
X249428Y416500D02*
X263500Y402428D01*
X247626Y416500D02*
X249428D01*
X265500Y401454D02*
Y403257D01*
X250257Y418500D02*
X265500Y403257D01*
X221600Y414500D02*
X248600D01*
X261500Y344000D02*
Y401600D01*
X263500Y400626D02*
Y402428D01*
X248600Y414500D02*
X261500Y401600D01*
X248454Y418500D02*
X250257D01*
X265500Y346000D02*
Y401454D01*
X204500Y418500D02*
X248454D01*
X263500Y344828D02*
Y400626D01*
X212500Y416500D02*
X247626D01*
X205500Y409500D02*
X212500Y416500D01*
X195500Y409500D02*
X204500Y418500D01*
X216600Y409500D02*
X221600Y414500D01*
X215500Y409500D02*
X216600D01*
X527500Y122500D02*
X557900D01*
X566256Y130856D01*
X512500Y137500D02*
X527500Y122500D01*
X566256Y130856D02*
Y196072D01*
X479000Y137764D02*
X491600Y150364D01*
Y173800D01*
X483000Y182400D02*
X491600Y173800D01*
X483000Y182400D02*
Y201500D01*
X472700Y211800D02*
X483000Y201500D01*
X263500Y344828D02*
X392528Y215800D01*
X261500Y344000D02*
X391700Y213800D01*
X245500Y357172D02*
X390872Y211800D01*
X392528Y215800D02*
X543700D01*
X542200Y213800D02*
X562256Y193744D01*
X390872Y211800D02*
X472700D01*
X544528Y217800D02*
X566256Y196072D01*
X265500Y346000D02*
X393700Y217800D01*
X543700Y215800D02*
X564256Y195244D01*
X393700Y217800D02*
X544528D01*
X391700Y213800D02*
X542200D01*
X165500Y396000D02*
Y409500D01*
X155500Y396000D02*
Y409500D01*
X145500Y396000D02*
Y409500D01*
X95500Y292500D02*
Y306000D01*
X135500Y292500D02*
Y306000D01*
X482500Y310000D02*
X492500D01*
X555000Y372500D01*
X459000Y258500D02*
X493000Y292500D01*
X596500D01*
X245500Y357172D02*
Y396000D01*
X228500Y370500D02*
X334546Y264454D01*
X228500Y389000D02*
X235500Y396000D01*
X334546Y244546D02*
Y264454D01*
X225500Y370672D02*
X332038Y264134D01*
X225500Y370672D02*
Y409500D01*
X228500Y370500D02*
Y389000D01*
X332038Y244226D02*
Y264134D01*
X560000Y282500D02*
X596500D01*
X536000Y258500D02*
X560000Y282500D01*
X332038Y244226D02*
X438500Y137764D01*
X240587Y277570D02*
X272500Y245657D01*
X256500Y136764D02*
X272500Y152764D01*
X267256Y194256D02*
Y245244D01*
X270500Y154000D02*
Y244828D01*
X240328Y275000D02*
X270500Y244828D01*
X272500Y152764D02*
Y245657D01*
X238000Y165000D02*
X267256Y194256D01*
X239500Y273000D02*
X267256Y245244D01*
X258500Y142000D02*
X270500Y154000D01*
X218000Y257000D02*
X231500Y243500D01*
X196500Y257000D02*
X218000D01*
X156500Y244000D02*
X175500Y263000D01*
Y292500D01*
X483000Y364500D02*
X491500Y373000D01*
X483000Y335500D02*
Y364500D01*
X522500Y362500D02*
Y372500D01*
X482500Y322500D02*
X522500Y362500D01*
X195500Y396000D02*
Y409500D01*
X205500Y396000D02*
Y409500D01*
X245500Y396000D02*
Y409500D01*
X562256Y145756D02*
Y193744D01*
X533250Y137500D02*
X537750Y133000D01*
X554000Y137500D02*
X562256Y145756D01*
X507500Y170000D02*
X534637Y197137D01*
Y199637D01*
X535500Y200500D01*
X544500D02*
X545500D01*
X518000Y174000D02*
X544500Y200500D01*
X518000Y159500D02*
Y174000D01*
X215500Y396000D02*
Y409500D01*
X458750Y148000D02*
X473000Y162250D01*
Y170000D01*
X235500Y396000D02*
Y409500D01*
X422000Y180000D02*
Y180750D01*
X441000Y199750D01*
Y200500D01*
X433863Y173363D02*
X461000Y200500D01*
X433000Y170000D02*
X433863Y170863D01*
Y173363D01*
X247000Y142000D02*
X258500D01*
X242000Y137000D02*
X247000Y142000D01*
X236500Y137000D02*
X242000D01*
X230430Y277570D02*
X240587D01*
X215500Y292500D02*
X230430Y277570D01*
X238000Y159264D02*
Y165000D01*
X215000Y273000D02*
X239500D01*
X223000Y275000D02*
X240328D01*
X216000Y137264D02*
X238000Y159264D01*
X256500Y147000D02*
X263000Y153500D01*
Y159500D01*
X215500Y292500D02*
Y306000D01*
X205500Y292500D02*
Y306000D01*
Y292500D02*
X223000Y275000D01*
X212500Y268000D02*
X223500Y257000D01*
X196500Y268000D02*
X212500D01*
X195500Y292500D02*
X215000Y273000D01*
X223500Y257000D02*
X236500D01*
X195500Y292500D02*
Y306000D01*
X147500Y258500D02*
X162000D01*
X137500Y268500D02*
X147500Y258500D01*
X122000Y268500D02*
X137500D01*
X512000Y269000D02*
X522500Y258500D01*
X496000Y269000D02*
X512000D01*
X522500Y258500D02*
X536000D01*
X419000Y268500D02*
X437000D01*
X447000Y258500D02*
X459000D01*
X437000Y268500D02*
X447000Y258500D01*
X175500Y292500D02*
Y306000D01*
X165500Y292500D02*
Y306000D01*
X517000Y258500D02*
X530500Y245000D01*
X496000Y258500D02*
X517000D01*
X441500D02*
X455000Y245000D01*
X419000Y258500D02*
X441500D01*
X142000D02*
X156500Y244000D01*
X122000Y258500D02*
X142000D01*
X512500Y147736D02*
X512891Y148127D01*
X516127D01*
X534000Y166000D01*
Y180000D01*
X558000Y151736D02*
Y159500D01*
X554000Y147736D02*
X558000Y151736D01*
X547500Y161986D02*
Y170000D01*
X533250Y147736D02*
X547500Y161986D01*
X494000Y180000D02*
X494500D01*
X515000Y200500D02*
X515500D01*
X494500Y180000D02*
X515000Y200500D01*
X479000Y148000D02*
Y154000D01*
X485000Y160000D01*
X171491Y199991D02*
X172000Y200500D01*
X168491Y199991D02*
X171491D01*
X145500Y159000D02*
Y177000D01*
X168491Y199991D01*
X144236Y147736D02*
X159500Y163000D01*
X140500Y147736D02*
X144236D01*
X159500Y163000D02*
Y180000D01*
X236000Y162500D02*
Y180500D01*
X221000Y147500D02*
X236000Y162500D01*
X216000Y147500D02*
X221000D01*
X442500Y148000D02*
X462000Y167500D01*
X438500Y148000D02*
X442500D01*
X462000Y167500D02*
Y180000D01*
X445000Y160000D02*
Y174500D01*
X471000Y200500D01*
X250500Y161236D02*
Y170000D01*
X236500Y147236D02*
X250500Y161236D01*
X223000Y177000D02*
X246500Y200500D01*
X223000Y159500D02*
Y177000D01*
X210500Y170000D02*
Y174500D01*
X236500Y200500D01*
X196250Y180500D02*
X216250Y200500D01*
X196000Y180500D02*
X196250D01*
X216250Y200500D02*
X216500D01*
X184787Y153523D02*
Y158287D01*
X179000Y147736D02*
X184787Y153523D01*
Y158287D02*
X185500Y159000D01*
X159500Y147736D02*
X169500Y157736D01*
Y169500D01*
X161250Y200500D02*
X162000D01*
X130250Y169500D02*
X161250Y200500D01*
X129500Y169500D02*
X130250D01*
X119500Y180000D02*
X120500D01*
X141000Y200500D02*
X142000D01*
X120500Y180000D02*
X141000Y200500D01*
D24*
X114300Y314800D02*
X268700D01*
X276000Y307500D01*
X105500Y306000D02*
X114300Y314800D01*
X339000Y336000D02*
Y351000D01*
X325328Y364672D02*
X339000Y351000D01*
X359500Y307000D02*
X360041D01*
X364541Y302500D01*
X596500D01*
X105500Y292500D02*
Y306000D01*
D25*
X339000Y336000D02*
D03*
X309000D02*
D03*
X400400Y360900D02*
D03*
Y390900D02*
D03*
X126500Y244000D02*
D03*
X156500D02*
D03*
X201500Y243500D02*
D03*
X231500D02*
D03*
X500500Y245000D02*
D03*
X530500D02*
D03*
X425000D02*
D03*
X455000D02*
D03*
D26*
X95500Y292500D02*
D03*
Y306000D02*
D03*
X135500Y409500D02*
D03*
Y396000D02*
D03*
D27*
X105500Y292500D02*
D03*
X115500D02*
D03*
X125500D02*
D03*
X135500D02*
D03*
X145500D02*
D03*
X155500D02*
D03*
X165500D02*
D03*
X175500D02*
D03*
X185500D02*
D03*
X195500D02*
D03*
X205500D02*
D03*
X215500D02*
D03*
X225500D02*
D03*
X235500D02*
D03*
X245500D02*
D03*
Y306000D02*
D03*
X235500D02*
D03*
X225500D02*
D03*
X215500D02*
D03*
X205500D02*
D03*
X195500D02*
D03*
X185500D02*
D03*
X175500D02*
D03*
X165500D02*
D03*
X155500D02*
D03*
X145500D02*
D03*
X135500D02*
D03*
X125500D02*
D03*
X115500D02*
D03*
X105500D02*
D03*
X245500Y409500D02*
D03*
X235500D02*
D03*
X225500D02*
D03*
X215500D02*
D03*
X205500D02*
D03*
X195500D02*
D03*
X185500D02*
D03*
X175500D02*
D03*
X165500D02*
D03*
X155500D02*
D03*
X145500D02*
D03*
Y396000D02*
D03*
X155500D02*
D03*
X165500D02*
D03*
X175500D02*
D03*
X185500D02*
D03*
X195500D02*
D03*
X205500D02*
D03*
X215500D02*
D03*
X225500D02*
D03*
X235500D02*
D03*
X245500D02*
D03*
X596500Y282500D02*
D03*
Y292500D02*
D03*
Y302500D02*
D03*
Y312500D02*
D03*
X418400Y366900D02*
D03*
Y376900D02*
D03*
D28*
X588516Y400000D02*
D03*
X99500D02*
D03*
X588516Y140000D02*
D03*
Y255500D02*
D03*
X344008Y197748D02*
D03*
X99500Y255500D02*
D03*
Y140000D02*
D03*
D29*
X443000Y335500D02*
D03*
X483000D02*
D03*
X442500Y322500D02*
D03*
X482500D02*
D03*
X442500Y310000D02*
D03*
X482500D02*
D03*
X162000Y258500D02*
D03*
X122000D02*
D03*
X162000Y268500D02*
D03*
X122000D02*
D03*
X236500Y268000D02*
D03*
X196500D02*
D03*
X236500Y257000D02*
D03*
X196500D02*
D03*
X536000Y269000D02*
D03*
X496000D02*
D03*
X536000Y258500D02*
D03*
X496000D02*
D03*
X459000Y268500D02*
D03*
X419000D02*
D03*
X459000Y258500D02*
D03*
X419000D02*
D03*
X179000Y137500D02*
D03*
Y147736D02*
D03*
X140500Y137500D02*
D03*
Y147736D02*
D03*
X159500Y137500D02*
D03*
Y147736D02*
D03*
X169500Y169500D02*
D03*
X129500D02*
D03*
X159500Y180000D02*
D03*
X119500D02*
D03*
X256500Y136764D02*
D03*
Y147000D02*
D03*
X216000Y137264D02*
D03*
Y147500D02*
D03*
X236500Y137000D02*
D03*
Y147236D02*
D03*
X236000Y180500D02*
D03*
X196000D02*
D03*
X250500Y170000D02*
D03*
X210500D02*
D03*
X485000Y160000D02*
D03*
X445000D02*
D03*
X473000Y170000D02*
D03*
X433000D02*
D03*
X462000Y180000D02*
D03*
X422000D02*
D03*
X479000Y137764D02*
D03*
Y148000D02*
D03*
X458750Y137764D02*
D03*
Y148000D02*
D03*
X438500Y137764D02*
D03*
Y148000D02*
D03*
X533250Y137500D02*
D03*
Y147736D02*
D03*
X525500Y200500D02*
D03*
X515500D02*
D03*
X535500D02*
D03*
X545500D02*
D03*
X554000Y137500D02*
D03*
Y147736D02*
D03*
X512500D02*
D03*
Y137500D02*
D03*
X534000Y180000D02*
D03*
X494000D02*
D03*
X558000Y159500D02*
D03*
X518000D02*
D03*
X263000D02*
D03*
X223000D02*
D03*
X185500Y159000D02*
D03*
X145500D02*
D03*
X547500Y170000D02*
D03*
X507500D02*
D03*
X172000Y200500D02*
D03*
X162000D02*
D03*
X142000D02*
D03*
X152000D02*
D03*
X246500D02*
D03*
X236500D02*
D03*
X216500D02*
D03*
X226500D02*
D03*
X471000D02*
D03*
X461000D02*
D03*
X441000D02*
D03*
X451000D02*
D03*
D30*
X355659Y362200D02*
D03*
X328100D02*
D03*
D31*
X555000Y372500D02*
D03*
Y382500D02*
D03*
X522500Y372500D02*
D03*
Y382500D02*
D03*
X491500Y373000D02*
D03*
Y383000D02*
D03*
D32*
X596500Y322500D02*
D03*
X418400Y386900D02*
D03*
D33*
X179000Y127264D02*
D03*
X140500D02*
D03*
X159500D02*
D03*
X256500Y126528D02*
D03*
X216000Y127028D02*
D03*
X236500Y126764D02*
D03*
X479000Y127528D02*
D03*
X458750D02*
D03*
X438500D02*
D03*
X533250Y127264D02*
D03*
X554000D02*
D03*
X512500D02*
D03*
D34*
X359500Y307000D02*
D03*
X276000Y307500D02*
D03*
M02*
