M48
;Layer_Color=9474304
;FILE_FORMAT=2:5
INCH,TZ
;TYPE=PLATED
T1F00S00C0.02756
T2F00S00C0.02800
T3F00S00C0.03346
T4F00S00C0.03543
T5F00S00C0.04134
T6F00S00C0.05906
T7F00S00C0.13386
%
T01
X500500Y245000
X530500
X455000
X425000
X231500Y243500
X201500
X156500Y244000
X126500
X309000Y336000
X339000
X400400Y360900
Y390900
T02
X359500Y307000
X276000Y307500
T03
X473000Y170000
X485000Y160000
X494000Y180000
X507500Y170000
X518000Y159500
X534000Y180000
X547500Y170000
X558000Y159500
X536000Y258500
Y269000
X496000
Y258500
X482500Y310000
X442500
X459000Y268500
Y258500
X419000
Y268500
X422000Y180000
X433000Y170000
X445000Y160000
X462000Y180000
X263000Y159500
X250500Y170000
X236000Y180500
X223000Y159500
X210500Y170000
X196000Y180500
X185500Y159000
X169500Y169500
X159500Y180000
X162000Y258500
Y268500
X196500Y268000
Y257000
X236500
Y268000
X122000Y268500
Y258500
X119500Y180000
X129500Y169500
X145500Y159000
X442500Y322500
X443000Y335500
X483000
X482500Y322500
T04
X140500Y127264
Y137500
Y147736
X159500
Y137500
Y127264
X179000
Y137500
Y147736
X216000Y147500
Y137264
Y127028
X236500Y126764
Y137000
Y147236
X256500Y147000
Y136764
Y126528
X438500Y127528
Y137764
Y148000
X458750
Y137764
Y127528
X479000
Y137764
Y148000
X512500Y147736
Y137500
Y127264
X533250
Y137500
Y147736
X554000
Y137500
Y127264
X545500Y200500
X535500
X525500
X515500
X471000
X596500Y282500
Y292500
Y302500
X461000Y200500
X451000
X441000
X246500
X236500
X226500
X216500
X172000
X162000
X165500Y292500
X175500
X185500
X195500
X205500
X215500
X225500
X235500
X245500
Y306000
X235500
X225500
X215500
X205500
X195500
X185500
X175500
X165500
X155500
X145500
X135500
X125500
X115500
X105500
X95500
Y292500
X105500
X115500
X125500
X135500
X145500
X155500
X152000Y200500
X142000
X145500Y396000
X135500
Y409500
X145500
X155500
Y396000
X165500
X175500
X185500
X195500
X205500
X215500
X225500
X235500
X245500
Y409500
X235500
X225500
X215500
X205500
X195500
X185500
X175500
X165500
X418400Y386900
Y376900
Y366900
X596500Y322500
Y312500
T05
X491500Y373000
Y383000
X522500Y382500
Y372500
X555000
Y382500
T06
X328100Y362200
X355659
T07
X99500Y140000
X588516
Y255500
X344008Y197748
X99500Y255500
Y400000
X588516
M30
