M48
;Layer_Color=9474304
;FILE_FORMAT=2:5
INCH,TZ
;TYPE=PLATED
T1F00S00C0.03543
T2F00S00C0.05906
T3F00S00C0.06693
T4F00S00C0.13386
T5F00S00C0.15748
%
T01
X423500Y230000
X433500
X443500
X453500
X463500
T02
X497213Y195500
X522213Y205500
X572016Y195500
X597016Y205500
X297803
X272803Y195500
X223000Y205500
X198000Y195500
T03
X492213Y185500
X532213
X567016
X607016
X307803
X267803
X233000
X193000
T04
X155500Y103000
X644516
Y218500
X400008Y160750
X155500Y218500
T05
X512213Y185500
X587016
X287803
X213000
M30
